<?xml version="1.0" standalone="no"?>
<!DOCTYPE svg PUBLIC "-//W3C//DTD SVG 1.1//EN" "http://www.w3.org/Graphics/SVG/1.1/DTD/svg11.dtd" >
<svg xmlns="http://www.w3.org/2000/svg" xmlns:xlink="http://www.w3.org/1999/xlink" version="1.1">
<metadata>
Created by FontForge 20170910 at Wed Jan 25 17:40:19 2017
 By Jimmy Wärting
Copyright (c) 2016 by Fontsmith Ltd. All rights reserved. This font may not be altered in any way without prior permission of Fontsmith Ltd.
</metadata>
<defs>
<font id="FSSiena-light" horiz-adv-x="0" >
  <font-face 
    font-family="FSSiena"
    font-weight="300"
    font-stretch="normal"
    units-per-em="1000"
    panose-1="2 11 6 4 7 4 2 8 2 3"
    ascent="800"
    descent="-200"
    x-height="456"
    cap-height="614"
    bbox="-430 -202 1123 840"
    underline-thickness="43"
    underline-position="-152"
    unicode-range="U+000D-FB02"
  />
<missing-glyph horiz-adv-x="664" 
d="M100 650h464v-650h-464v650zM490 604h-316l159 -237zM304 325l-157 237v-474zM518 562l-158 -237l158 -237v474zM490 47l-157 236l-159 -236h316z" />
    <glyph glyph-name="fi" unicode="fi" horiz-adv-x="560" 
d="M473 0h-76v423h-215v-423h-76v423h-91v33h91q0 102 55.5 159t151.5 57q74 0 124 -37l-17 -30q-19 14 -48 23.5t-57 9.5q-65 0 -99 -43t-34 -121v-18h291v-456z" />
    <glyph glyph-name="fl" unicode="fl" horiz-adv-x="564" 
d="M482 657v-657h-76v620q-39 18 -86 18q-67 0 -102.5 -43.5t-35.5 -120.5v-18h128v-33h-128v-423h-76v423h-91v33h91q0 101 57 158.5t155 57.5q45 0 88 -15h76z" />
    <glyph glyph-name="f_b.liga" unicode="fb" horiz-adv-x="878" 
d="M779 409.5q52 -59.5 52 -168.5q0 -79 -27.5 -136.5t-74 -88t-103.5 -30.5q-54 0 -93.5 20t-58.5 63l-18 -69h-50v620q-39 18 -86 18q-67 0 -102.5 -43.5t-35.5 -120.5v-18h128v-33h-128v-423h-76v423h-91v33h91q0 101 57 158.5t155 57.5q45 0 88 -15h76v-263
q63 75 162 75q83 0 135 -59.5zM716 89.5q33 60.5 33 147.5q0 83 -29 137t-101 54q-40 0 -77 -22t-60 -63v-136q0 -87 34 -132.5t93 -45.5q74 0 107 60.5z" />
    <glyph glyph-name="f_f.liga" unicode="ff" horiz-adv-x="612" 
d="M506.5 596.5q-25.5 -41.5 -25.5 -122.5v-18h138v-33h-138v-423h-75v423h-224v-423h-76v423h-91v33h91q1 99 46 152.5t131 53.5q28 0 48.5 -5.5t41.5 -18.5l-17 -30q-33 20 -71 20q-55 0 -79 -41.5t-24 -122.5v-8h224v6q0 101 46 155.5t136 54.5q59 0 98 -26l-17 -30
q-35 22 -78 22q-59 0 -84.5 -41.5z" />
    <glyph glyph-name="f_f_b.liga" unicode="ffb" horiz-adv-x="1169" 
d="M1032 443q42 -26 66.5 -77.5t24.5 -124.5q0 -78 -27.5 -136t-74.5 -88.5t-103 -30.5q-54 0 -93.5 20.5t-58.5 62.5l-19 -69h-50v620q-38 18 -85 18q-67 0 -103 -43.5t-36 -120.5v-18h128v-33h-128v-423h-75v423h-216v-423h-76v423h-91v33h91q1 99 46 152.5t131 53.5
q28 0 48.5 -5.5t41.5 -18.5l-17 -30q-33 20 -71 20q-55 0 -79 -41.5t-24 -122.5v-8h216q0 101 57 158.5t155 57.5q45 0 87 -15h77v-263q63 75 162 75q54 0 96 -26zM1008 89.5q33 60.5 33 147.5q0 83 -29 137t-101 54q-40 0 -77 -22t-60 -63v-136q0 -88 34.5 -133t94.5 -45
q72 0 105 60.5z" />
    <glyph glyph-name="f_f_h.liga" unicode="ffh" horiz-adv-x="1167" 
d="M1060.5 416.5q39.5 -52.5 39.5 -143.5v-273h-76v247q0 79 -20 129t-85 50q-64 0 -101 -54t-37 -151v-221h-76v620q-39 18 -85 18q-68 0 -103.5 -43.5t-35.5 -120.5v-18h128v-33h-128v-423h-75v423h-224v-423h-76v423h-91v33h91q1 99 46 152.5t131 53.5q28 0 48.5 -5.5
t41.5 -18.5l-17 -30q-33 20 -71 20q-55 0 -79 -41.5t-24 -122.5v-8h224q0 101 57 158.5t154 57.5q45 0 88 -15h76v-283q21 46 64 70.5t92 24.5q84 0 123.5 -52.5z" />
    <glyph glyph-name="f_f_i.liga" unicode="ffi" horiz-adv-x="859" 
d="M773 0h-77v423h-215v-423h-75v423h-224v-423h-76v423h-91v33h91q1 99 46 152.5t131 53.5q28 0 48.5 -5.5t41.5 -18.5l-17 -30q-33 20 -71 20q-55 0 -79 -41.5t-24 -122.5v-8h224q0 102 55 159t151 57q75 0 125 -37l-18 -30q-18 14 -47 23.5t-57 9.5q-65 0 -99.5 -43
t-34.5 -121v-18h292v-456z" />
    <glyph glyph-name="f_f_j.liga" unicode="ffj" horiz-adv-x="856" 
d="M780 101q0 -108 -30 -175.5t-107 -103.5l-16 28q44 29 60.5 70t16.5 124v379h-220v-423h-75v423h-228v-423h-75v423h-91v33h91q1 98 45.5 152t132.5 54q27 0 47 -5.5t42 -18.5l-17 -30q-31 20 -71 20q-56 0 -80 -42t-24 -123v-7h228q0 101 55 158.5t151 57.5
q75 0 125 -37l-18 -30q-18 14 -47 23.5t-57 9.5q-65 0 -99.5 -43t-34.5 -121v-18h296v-355z" />
    <glyph glyph-name="f_f_k.liga" unicode="ffk" horiz-adv-x="1102" 
d="M832 227h-51v-227h-76v620q-39 18 -85 18q-68 0 -103.5 -43.5t-35.5 -120.5v-18h128v-33h-128v-423h-75v423h-224v-423h-76v423h-91v33h91q1 99 46 152.5t131 53.5q28 0 48.5 -5.5t41.5 -18.5l-17 -30q-33 20 -71 20q-55 0 -79 -41.5t-24 -122.5v-8h224q0 101 57 158.5
t154 57.5q45 0 88 -15h76v-392h56q70 73 151 191h76q-99 -123 -180 -195l205 -261h-85z" />
    <glyph glyph-name="f_f_l.liga" unicode="ffl" horiz-adv-x="864" 
d="M781 657v-657h-76v620q-39 18 -85 18q-68 0 -103.5 -43.5t-35.5 -120.5v-18h128v-33h-128v-423h-75v423h-224v-423h-76v423h-91v33h91q1 99 46 152.5t131 53.5q28 0 48.5 -5.5t41.5 -18.5l-17 -30q-33 20 -71 20q-55 0 -79 -41.5t-24 -122.5v-8h224q0 101 57 158.5
t154 57.5q45 0 88 -15h76z" />
    <glyph glyph-name="f_f_t.liga" unicode="fft" horiz-adv-x="941" 
d="M922 25q-25 -21 -50.5 -30t-55.5 -9q-71 0 -98 49.5t-27 139.5v248h-210v-423h-75v423h-224v-423h-76v423h-91v33h91q1 99 46 152.5t131 53.5q28 0 48.5 -5.5t41.5 -18.5l-17 -30q-33 20 -71 20q-55 0 -79 -41.5t-24 -122.5v-8h224v7q0 100 46.5 154.5t137.5 54.5
q49 0 83 -22l-18 -30q-30 18 -63 18q-60 0 -85.5 -42t-25.5 -122v-18h210v123h75v-123h138v-33h-138v-235q0 -80 13.5 -121.5t57.5 -41.5q16 0 34 7.5t33 20.5z" />
    <glyph glyph-name="f_h.liga" unicode="fh" horiz-adv-x="868" 
d="M761 416.5q40 -52.5 40 -143.5v-273h-76v247q0 79 -20 129t-85 50q-64 0 -101 -54t-37 -151v-221h-76v620q-39 18 -86 18q-67 0 -102.5 -43.5t-35.5 -120.5v-18h128v-33h-128v-423h-76v423h-91v33h91q0 101 57 158.5t155 57.5q45 0 88 -15h76v-282q21 46 64 70t91 24
q84 0 124 -52.5z" />
    <glyph glyph-name="f_imacron.liga" unicode="f&#x12b;" horiz-adv-x="578" 
d="M147.5 618q41.5 54 120.5 54q19 0 37 -4.5t28 -10.5l-13 -30q-21 12 -47 12q-49 0 -70 -41.5t-21 -120.5v-21h138v-33h-138v-423h-76v423h-91v33h91v10q0 98 41.5 152zM569 610v-44h-230v44h230zM415 456h77v-456h-77v456z" />
    <glyph glyph-name="f_j.liga" unicode="fj" horiz-adv-x="554" 
d="M478 101q0 -108 -30.5 -175.5t-107.5 -103.5l-16 28q44 29 61 70.5t17 123.5v379h-220v-423h-76v423h-91v33h91q0 102 55.5 159t151.5 57q74 0 124 -37l-17 -30q-19 14 -48 23.5t-57 9.5q-65 0 -99 -43t-34 -121v-18h296v-355z" />
    <glyph glyph-name="f_k.liga" unicode="fk" horiz-adv-x="803" 
d="M533 227h-51v-227h-76v620q-39 18 -86 18q-67 0 -102.5 -43.5t-35.5 -120.5v-18h128v-33h-128v-423h-76v423h-91v33h91q0 101 57 158.5t155 57.5q45 0 88 -15h76v-392h55q72 74 151 191h77q-91 -115 -181 -195l206 -261h-85z" />
    <glyph glyph-name="f_lcaron.liga" unicode="f&#x13e;" horiz-adv-x="574" 
d="M482 657v-657h-76v620q-39 18 -86 18q-67 0 -102.5 -43.5t-35.5 -120.5v-18h128v-33h-128v-423h-76v423h-91v33h91q0 101 57 158.5t155 57.5q45 0 88 -15h76zM537 509q1 60 10 150h67q-32 -95 -46 -150h-31z" />
    <glyph glyph-name="f_t.liga" unicode="ft" horiz-adv-x="639" 
d="M620 25q-46 -39 -106 -39q-71 0 -98 49.5t-27 139.5v248h-208v-423h-75v423h-91v33h91v7q0 100 45 154.5t134 54.5q49 0 83 -22l-18 -30q-30 18 -63 18q-57 0 -81.5 -42t-24.5 -122v-18h208v123h75v-123h138v-33h-138v-235q0 -80 13.5 -121.5t57.5 -41.5q16 0 34 7.5
t33 20.5z" />
    <glyph glyph-name=".notdef" horiz-adv-x="664" 
d="M100 650h464v-650h-464v650zM490 604h-316l159 -237zM304 325l-157 237v-474zM518 562l-158 -237l158 -237v474zM490 47l-157 236l-159 -236h316z" />
    <glyph glyph-name=".null" 
 />
    <glyph glyph-name="nonmarkingreturn" unicode="&#xd;" horiz-adv-x="222" 
 />
    <glyph glyph-name="space" unicode=" " horiz-adv-x="222" 
 />
    <glyph glyph-name="exclam" unicode="!" horiz-adv-x="279" 
d="M90 614h99q-19 -227 -28 -433h-45q-10 216 -26 433zM101 0.5q-15 14.5 -15 36.5q0 23 15 37.5t40 14.5q24 0 38 -14.5t14 -37.5q0 -22 -14 -36.5t-39 -14.5q-24 0 -39 14.5z" />
    <glyph glyph-name="quotedbl" unicode="&#x22;" horiz-adv-x="199" 
d="M6 614h81q-18 -119 -25 -188h-33q-7 73 -23 188zM112 614h81q-14 -92 -25 -188h-32q-14 120 -24 188z" />
    <glyph glyph-name="numbersign" unicode="#" horiz-adv-x="621" 
d="M477 414l-52 -192h137l-10 -42h-139l-49 -180h-50l49 180h-175l-49 -180h-51l49 180h-126l10 42h128l52 192h-142l10 42h144l43 158h50l-43 -158h175l43 158h51l-43 -158h121l-10 -42h-123zM427 414h-175l-53 -192h175z" />
    <glyph glyph-name="dollar" unicode="$" horiz-adv-x="454" 
d="M372 67.5q-41 -38.5 -116 -45.5v-77h-34v75h-2q-45 0 -92.5 13t-77.5 37l25 36q33 -25 71 -36.5t73 -11.5h3v218l-55 28q-56 30 -83 65.5t-27 79.5q0 59 44 99t121 46v65h34v-64q39 -1 75.5 -12.5t62.5 -29.5l-20 -39q-48 40 -118 45v-215l40 -22q60 -34 88.5 -68.5
t28.5 -89.5q0 -58 -41 -96.5zM150.5 415.5q20.5 -22.5 71.5 -51.5v195q-44 -4 -68 -27.5t-24 -58.5t20.5 -57.5zM317.5 90.5q21.5 22.5 21.5 52.5q0 38 -20.5 64t-62.5 51v-197q40 7 61.5 29.5z" />
    <glyph glyph-name="percent" unicode="%" horiz-adv-x="615" 
d="M90 385q-29 19 -43.5 48.5t-14.5 61.5q0 33 15 63t44.5 49t69.5 19q60 0 92.5 -39t32.5 -91q0 -32 -14.5 -62t-43.5 -49t-68 -19q-41 0 -70 19zM474 614h55l-400 -614h-55zM207 421q16 30 16 75t-16 75t-47 30t-48 -31t-17 -75q0 -43 17.5 -73.5t48.5 -30.5q30 0 46 30z
M387 7q-29 19 -43.5 49t-14.5 62t15 62t44 49t69 19q41 0 69.5 -19t42.5 -48.5t14 -61.5q0 -33 -15 -63t-43.5 -49t-68.5 -19t-69 19zM504 43.5q16 30.5 16 75.5q0 44 -16.5 74.5t-47.5 30.5t-47.5 -31t-16.5 -75t17 -74.5t48 -30.5t47 30.5z" />
    <glyph glyph-name="ampersand" unicode="&#x26;" horiz-adv-x="594" 
d="M480 0l-58 70q-38 -41 -86.5 -62.5t-111.5 -21.5q-77 0 -124.5 41.5t-47.5 119.5q0 61 42 108t111 75l-12 14q-30 36 -51 72t-21 73q0 63 47.5 100.5t120.5 37.5t110.5 -34.5t37.5 -87.5q0 -50 -43.5 -95t-104.5 -67l156 -190q45 74 40 189h53q0 -53 -18.5 -110.5
t-53.5 -104.5l105 -127h-91zM209 449q18 -31 55 -76l6 -8q48 25 73 62t25 77q0 42 -23.5 68.5t-63.5 26.5q-39 0 -64.5 -24.5t-25.5 -63.5q0 -31 18 -62zM401 94l-175 211q-93 -58 -93 -147q0 -55 35.5 -91t94.5 -36q84 0 138 63z" />
    <glyph glyph-name="quotesingle" unicode="'" horiz-adv-x="94" 
d="M12 569l-6 45h82q-18 -126 -24 -188h-35q-2 23 -17 143z" />
    <glyph glyph-name="parenleft" unicode="(" horiz-adv-x="284" 
d="M93 16.5q-42 97.5 -42 206.5q0 111 42 212t127 179h41q-59 -74 -91.5 -178t-32.5 -213t32.5 -208t91.5 -173h-41q-85 77 -127 174.5z" />
    <glyph glyph-name="parenright" unicode=")" horiz-adv-x="284" 
d="M191 439.5q42 -97.5 42 -206.5q0 -111 -42 -212t-127 -179h-41q59 74 91.5 178t32.5 213t-32.5 208t-91.5 173h41q85 -77 127 -174.5z" />
    <glyph glyph-name="asterisk" unicode="*" horiz-adv-x="267" 
d="M121 489q-54 -37 -86 -62l-29 64q64 12 106 22q-43 34 -87 65l52 46q29 -53 54 -92q20 54 34 101l61 -35q-34 -33 -72 -79q40 -2 61 -2l46 1l-14 -69q-48 23 -99 44q11 -42 32 -103l-70 -7q7 43 11 106z" />
    <glyph glyph-name="plus" unicode="+" horiz-adv-x="524" 
d="M469 209h-183v-195h-49v195h-182v40h182v195h49v-195h183v-40z" />
    <glyph glyph-name="comma" unicode="," horiz-adv-x="176" 
d="M139 67q17 -22 17 -61q0 -55 -29 -95t-83 -61l-14 25q40 23 58.5 49t18.5 61q0 7 -1 11q-10 -9 -26 -9q-21 0 -32.5 13.5t-11.5 34.5q0 24 15.5 39t38.5 15q32 0 49 -22z" />
    <glyph glyph-name="hyphen" unicode="-" horiz-adv-x="274" 
d="M40 250h194v-43h-194v43z" />
    <glyph glyph-name="period" unicode="." horiz-adv-x="177" 
d="M50 0.5q-15 14.5 -15 36.5q0 23 15 37.5t40 14.5q24 0 38 -14.5t14 -37.5q0 -22 -14 -36.5t-39 -14.5q-24 0 -39 14.5z" />
    <glyph glyph-name="slash" unicode="/" horiz-adv-x="327" 
d="M279 614h48l-279 -772h-48z" />
    <glyph glyph-name="zero" unicode="0" horiz-adv-x="569" 
d="M160 30.5q-48 44.5 -71 117.5t-23 160q0 85 28 158t80.5 117t123.5 44q73 0 121 -43.5t71 -115t23 -159.5q0 -84 -28 -158t-81 -119.5t-124 -45.5q-72 0 -120 44.5zM395.5 109.5q34.5 85.5 34.5 199.5q0 115 -30.5 197.5t-103.5 82.5q-78 0 -112.5 -83.5t-34.5 -197.5
q0 -115 30.5 -199.5t103.5 -84.5q78 0 112.5 85.5z" />
    <glyph glyph-name="one" unicode="1" horiz-adv-x="338" 
d="M247 614v-614h-78v507q-60 -28 -124 -43l-9 25q106 46 179 125h32z" />
    <glyph glyph-name="two" unicode="2" horiz-adv-x="473" 
d="M383 340.5q-39 -63.5 -105 -127.5t-170 -149h310v-64h-382v50q101 90 162.5 152.5t101.5 129t40 131.5q0 56 -33.5 90t-91.5 34q-72 0 -140 -53l-23 32q39 30 86.5 45.5t94.5 15.5q95 0 142 -46.5t47 -114.5q0 -62 -39 -125.5z" />
    <glyph glyph-name="three" unicode="3" horiz-adv-x="485" 
d="M395.5 303q48.5 -48 48.5 -123q0 -58 -29 -102t-79 -68t-111 -24q-105 0 -178 54l26 38q66 -54 148 -54q65 0 102.5 39.5t37.5 106.5q0 64 -33.5 103t-102.5 39q-39 0 -81 -18v37q97 106 210 224h-284v59h346v-58q-113 -109 -210 -211q19 6 48 6q93 0 141.5 -48z" />
    <glyph glyph-name="four" unicode="4" horiz-adv-x="499" 
d="M484 145h-69v-145h-76v145h-317v52q94 82 152.5 191.5t73.5 225.5h92q-15 -64 -53.5 -142t-93 -151t-116.5 -121h262v174h76v-174h69v-55z" />
    <glyph glyph-name="five" unicode="5" horiz-adv-x="484" 
d="M389.5 334.5q53.5 -54.5 53.5 -141.5q0 -61 -29.5 -108t-80 -73t-111.5 -26q-104 0 -176 54l26 38q60 -54 146 -54q67 0 104 42.5t37 119.5q0 75 -40.5 117.5t-110.5 42.5q-72 0 -121 -25v293h339v-60h-297v-182q47 17 107 17q100 0 153.5 -54.5z" />
    <glyph glyph-name="six" unicode="6" horiz-adv-x="551" 
d="M453.5 342.5q52.5 -51.5 52.5 -140.5q0 -66 -29.5 -115t-79 -75t-108.5 -26q-119 0 -171 80t-52 211q0 101 34 180t99 124.5t156 45.5q74 0 121 -28l-25 -38q-40 26 -101 26q-94 0 -149 -67.5t-59 -198.5q33 33 77.5 53t93.5 20q88 0 140.5 -51.5zM368 45.5
q31 24.5 46 63.5t15 81q0 68 -33.5 114.5t-99.5 46.5q-42 0 -82.5 -19.5t-71.5 -56.5q2 -130 39 -192t110 -62q46 0 77 24.5z" />
    <glyph glyph-name="seven" unicode="7" horiz-adv-x="418" 
d="M402 614v-67q-91 -93 -142.5 -223t-51.5 -281v-43h-78v38q0 123 58 259.5t172 252.5h-334v64h376z" />
    <glyph glyph-name="eight" unicode="8" horiz-adv-x="532" 
d="M452.5 247q28.5 -38 28.5 -92q0 -45 -27 -84t-75.5 -62t-110.5 -23t-109 20t-72.5 55.5t-25.5 81.5q0 57 38.5 103.5t106.5 68.5q-54 29 -86 65t-32 89q0 44 24.5 80t68.5 57t100 21q83 0 132 -37.5t49 -103.5q0 -47 -37 -89t-97 -61l37 -20q59 -31 87.5 -69z
M190.5 421.5q28.5 -28.5 82.5 -56.5l25 -13q43 25 66.5 59t23.5 75q0 47 -29.5 78t-85.5 31q-49 0 -80 -28.5t-31 -74.5q0 -42 28.5 -70.5zM369 52q36 32 36 80q0 47 -28 76t-88 61l-52 29q-46 -20 -71 -58.5t-25 -86.5q0 -61 39 -97t97 -36q56 0 92 32z" />
    <glyph glyph-name="nine" unicode="9" horiz-adv-x="548" 
d="M450.5 546.5q50.5 -80.5 50.5 -210.5q0 -101 -30.5 -180.5t-91.5 -125t-148 -45.5q-39 0 -75.5 7.5t-62.5 23.5l20 39q28 -14 60.5 -22t61.5 -8q90 0 139.5 74t50.5 206q-29 -37 -74 -58t-96 -21q-87 0 -139.5 51t-52.5 138q0 64 30 112.5t80 74t109 25.5
q118 0 168.5 -80.5zM425 353q-4 123 -38.5 180.5t-107.5 57.5q-46 0 -77.5 -24t-47.5 -61.5t-16 -78.5q0 -67 34 -113t100 -46q94 0 153 85z" />
    <glyph glyph-name="colon" unicode=":" horiz-adv-x="177" 
d="M50 0.5q-15 14.5 -15 36.5q0 23 15 37.5t40 14.5q24 0 38 -14.5t14 -37.5q0 -22 -14 -36.5t-39 -14.5q-24 0 -39 14.5zM50 311.5q-15 14.5 -15 36.5q0 23 15 37.5t40 14.5q24 0 38 -14.5t14 -37.5q0 -22 -14 -36.5t-39 -14.5q-24 0 -39 14.5z" />
    <glyph glyph-name="semicolon" unicode=";" horiz-adv-x="176" 
d="M139 67q17 -22 17 -61q0 -55 -29 -95t-83 -61l-14 25q40 23 58.5 49t18.5 61q0 7 -1 11q-10 -9 -26 -9q-21 0 -32.5 13.5t-11.5 34.5q0 24 15.5 39t38.5 15q32 0 49 -22zM56 309.5q-15 14.5 -15 36.5q0 23 15 37.5t40 14.5q24 0 38 -14.5t14 -37.5q0 -22 -14 -36.5
t-39 -14.5q-24 0 -39 14.5z" />
    <glyph glyph-name="less" unicode="&#x3c;" horiz-adv-x="524" 
d="M456 394l-334 -165l334 -164v-48l-393 193v38l393 193v-47z" />
    <glyph glyph-name="equal" unicode="=" horiz-adv-x="524" 
d="M55 346h414v-41h-414v41zM55 156h414v-42h-414v42z" />
    <glyph glyph-name="greater" unicode="&#x3e;" horiz-adv-x="524" 
d="M461 248v-38l-393 -193v47l334 165l-334 164v48z" />
    <glyph glyph-name="question" unicode="?" horiz-adv-x="402" 
d="M145 229q0 70 48 118l25 24q36 34 52 58t16 61q0 43 -27.5 70.5t-75.5 27.5q-75 0 -136 -63l-26 32q31 30 78 50t100 20q82 0 126 -37.5t44 -94.5q0 -47 -29.5 -82t-81.5 -77q-34 -28 -49 -57.5t-15 -70.5q0 -17 1 -27h-44q-6 30 -6 48zM136.5 0.5q-16.5 14.5 -16.5 36.5
q0 23 14.5 37.5t40.5 14.5q24 0 38 -14.5t14 -37.5q0 -22 -12.5 -36.5t-36.5 -14.5q-25 0 -41.5 14.5z" />
    <glyph glyph-name="at" unicode="@" horiz-adv-x="830" 
d="M509 281q2 56 -21 85t-74 29q-30 0 -62 -9t-60 -28l-15 32q28 20 69 31.5t79 11.5q77 0 113 -35t34 -108l-3 -129q-1 -38 9.5 -58.5t43.5 -20.5q57 0 85 56t28 141q0 91 -38 159.5t-104.5 105t-151.5 36.5q-93 0 -168.5 -42.5t-119.5 -124.5t-44 -194q0 -108 37.5 -184.5
t107 -116.5t163.5 -40q68 0 126 18t112 62l22 -32q-115 -92 -273 -92q-120 0 -204 50t-126 136t-42 192q0 116 51 209.5t146 147t222 53.5q91 0 172 -35t132.5 -110t51.5 -188q0 -65 -20.5 -121t-66 -91t-115.5 -35q-37 0 -63.5 17t-32.5 53q-18 -32 -51.5 -50.5
t-79.5 -18.5q-48 0 -85 27.5t-37 82.5q0 58 46 90.5t124 32.5q43 0 83 -10v15zM475 117q30 32 32 88l1 32q-34 8 -69 8q-56 0 -84 -22t-28 -63q0 -36 21.5 -55.5t51.5 -19.5q45 0 75 32z" />
    <glyph glyph-name="A" unicode="A" horiz-adv-x="584" 
d="M399 191h-234l-70 -191h-60l249 614h42l229 -614h-88zM387 226l-103 291l-106 -291h209z" />
    <glyph glyph-name="B" unicode="B" horiz-adv-x="553" 
d="M460.5 278.5q40.5 -40.5 40.5 -106.5q0 -89 -69 -134.5t-185 -45.5q-27 0 -68.5 3t-77.5 9v609q56 8 130 8q105 0 165.5 -33t60.5 -114q0 -51 -29.5 -90t-82.5 -54q75 -11 115.5 -51.5zM337 561q-36 29 -110 29q-19 0 -48 -3v-247h51q143 0 143 128q0 64 -36 93z
M367.5 58.5q47.5 33.5 47.5 106.5q0 143 -176 143h-60v-275q37 -8 69 -8q72 0 119.5 33.5z" />
    <glyph glyph-name="C" unicode="C" horiz-adv-x="563" 
d="M206.5 23q-69.5 37 -107.5 107.5t-38 168.5q0 99 42.5 173.5t115.5 114.5t162 40q98 0 167 -39l-24 -42q-64 41 -143 41q-72 0 -124.5 -37t-80 -100t-27.5 -141q0 -125 59 -203t167 -78q94 0 155 49l21 -34q-76 -57 -182 -57q-93 0 -162.5 37z" />
    <glyph glyph-name="D" unicode="D" horiz-adv-x="676" 
d="M539 537.5q87 -83.5 87 -219.5q0 -92 -38 -165.5t-121.5 -117.5t-212.5 -44q-80 0 -153 11v609q60 10 156 10q195 0 282 -83.5zM476 109.5q64 81.5 64 206.5q0 118 -66.5 194t-226.5 76q-40 0 -66 -5v-546q38 -7 79 -7q152 0 216 81.5z" />
    <glyph glyph-name="E" unicode="E" horiz-adv-x="499" 
d="M456 46v-46h-355v614h350v-47q-84 8 -183 8h-89v-246h45q98 0 177 4v-46q-74 5 -177 5h-45v-253h99q95 0 178 7z" />
    <glyph glyph-name="F" unicode="F" horiz-adv-x="462" 
d="M181 575v-248h45q114 0 173 4v-46q-59 4 -173 4h-45v-289h-80v614h349v-47q-72 8 -183 8h-86z" />
    <glyph glyph-name="G" unicode="G" horiz-adv-x="648" 
d="M588 312v-260q-37 -31 -97 -48.5t-120 -17.5q-89 0 -159.5 37t-110.5 108t-40 169q0 96 42 170.5t116 115.5t167 41q117 0 191 -49l-26 -41q-71 50 -164 50q-76 0 -130 -35t-82 -97.5t-28 -144.5q0 -76 27.5 -140t81.5 -102.5t129 -38.5q70 0 126 33v213h-146v37h223z
" />
    <glyph glyph-name="H" unicode="H" horiz-adv-x="699" 
d="M608 614v-614h-80v300h-347v-300h-80v614h80v-276h347v276h80z" />
    <glyph glyph-name="I" unicode="I" horiz-adv-x="272" 
d="M101 614h80v-614h-80v614z" />
    <glyph glyph-name="J" unicode="J" horiz-adv-x="278" 
d="M32 -90q45 29 64 75t19 127v502h80v-461q0 -107 -34.5 -170t-113.5 -99z" />
    <glyph glyph-name="K" unicode="K" horiz-adv-x="568" 
d="M228 303h-47v-303h-80v614h80v-273h53q56 56 114.5 131.5t101.5 141.5h84q-41 -55 -114 -137.5t-128 -134.5l255 -342h-95z" />
    <glyph glyph-name="L" unicode="L" horiz-adv-x="435" 
d="M424 50v-50h-323v614h80v-572h52q93 0 191 8z" />
    <glyph glyph-name="M" unicode="M" horiz-adv-x="822" 
d="M666 0l-26 493l-215 -448h-46l-219 446l-20 -491h-53l42 614h62l234 -485l232 485h56l32 -614h-79z" />
    <glyph glyph-name="N" unicode="N" horiz-adv-x="669" 
d="M583 614v-614h-42l-400 487v-487h-45v614h43l399 -487v487h45z" />
    <glyph glyph-name="O" unicode="O" horiz-adv-x="734" 
d="M204 25.5q-70 39.5 -106.5 111t-36.5 166.5q0 94 43 168t115 115t155 41q97 0 166.5 -39t106 -110.5t36.5 -166.5q0 -94 -43 -168.5t-114.5 -115.5t-154.5 -41q-97 0 -167 39.5zM491 63q52 40 79 105.5t27 138.5q0 75 -24 139.5t-74 104t-124 39.5q-70 0 -122 -40
t-79 -105t-27 -138q0 -75 24 -140t74.5 -104.5t123.5 -39.5q70 0 122 40z" />
    <glyph glyph-name="P" unicode="P" horiz-adv-x="497" 
d="M486 438q0 -94 -72 -147.5t-190 -53.5q-26 0 -43 2v-239h-80v613q55 8 128 8q257 0 257 -183zM355 315.5q45 44.5 45 124.5q0 71 -42.5 110.5t-131.5 39.5q-18 0 -45 -3v-314q12 -2 36 -2q93 0 138 44.5z" />
    <glyph glyph-name="Q" unicode="Q" horiz-adv-x="742" 
d="M773 -98q-84 -77 -194 -77q-89 0 -149.5 39t-102.5 124q-126 13 -196 97.5t-70 217.5q0 94 43 168t115 115t155 41q97 0 166.5 -39t106 -110.5t36.5 -166.5q0 -84 -35 -153t-95 -112.5t-132 -55.5q23 -62 65.5 -94t103.5 -32q50 0 89 18t73 47zM171 167
q24 -65 74.5 -104.5t123.5 -39.5q70 0 122 40t79 105.5t27 138.5q0 75 -24 139.5t-74 104t-124 39.5q-70 0 -122 -40t-79 -105t-27 -138q0 -75 24 -140z" />
    <glyph glyph-name="R" unicode="R" horiz-adv-x="561" 
d="M421 0l-159 267q-8 -1 -23 -1q-39 0 -59 2v-268h-79v613q55 8 129 8q117 0 183.5 -43.5t66.5 -133.5q0 -60 -38 -102t-102 -62l178 -280h-97zM352.5 337q42.5 39 42.5 107q0 71 -37 108.5t-120 37.5q-27 0 -58 -4v-286q14 -2 40 -2q90 0 132.5 39z" />
    <glyph glyph-name="S" unicode="S" horiz-adv-x="480" 
d="M130.5 1.5q-46.5 15.5 -80.5 43.5l27 41q35 -30 76 -45t83 -15q60 0 95.5 32t35.5 84q0 43 -28.5 73.5t-88.5 60.5l-71 36q-60 31 -86 70.5t-26 88.5q0 70 53 113t143 43q51 0 93.5 -12t71.5 -32l-21 -40q-60 46 -137 46q-59 0 -95.5 -25.5t-36.5 -71.5q0 -40 23 -65
t84 -57l73 -38q63 -33 92 -72t29 -96q0 -80 -56 -129t-152 -49q-54 0 -100.5 15.5z" />
    <glyph glyph-name="T" unicode="T" horiz-adv-x="487" 
d="M486 614v-47q-41 4 -70 5.5t-70 1.5h-57v-574h-80v574h-60q-40 0 -68.5 -1.5t-69.5 -5.5v47h475z" />
    <glyph glyph-name="U" unicode="U" horiz-adv-x="640" 
d="M152.5 55q-60.5 69 -60.5 191v368h80v-340q0 -110 40.5 -177.5t128.5 -67.5q99 0 139 58t40 164v363h47v-376q0 -117 -58.5 -184.5t-171.5 -67.5q-124 0 -184.5 69z" />
    <glyph glyph-name="V" unicode="V" horiz-adv-x="566" 
d="M548 614q-126 -371 -236 -614h-40l-242 614h88l198 -514q84 205 160 514h72z" />
    <glyph glyph-name="W" unicode="W" horiz-adv-x="870" 
d="M850 614q-108 -378 -199 -614h-39l-158 478q-35 -121 -78.5 -249t-87.5 -229h-39l-217 614h87l168 -501q64 170 157 501h43l165 -494q77 238 127 494h71z" />
    <glyph glyph-name="X" unicode="X" horiz-adv-x="600" 
d="M471 0l-173 267q-102 -160 -159 -267h-86q69 95 110 149l110 151l-211 314h94l170 -252q69 101 153 252h75q-87 -131 -205 -281l217 -333h-95z" />
    <glyph glyph-name="Y" unicode="Y" horiz-adv-x="532" 
d="M320 269v-269h-80v267l-221 347h89l192 -304q99 181 156 304h70q-100 -178 -206 -345z" />
    <glyph glyph-name="Z" unicode="Z" horiz-adv-x="544" 
d="M498 579l-350 -541h163q50 0 97 1t87 5v-44h-438v33l344 543h-156q-114 0 -184 -6v44h437v-35z" />
    <glyph glyph-name="bracketleft" unicode="[" horiz-adv-x="305" 
d="M82 614h203v-38h-123v-697h123v-37h-203v772z" />
    <glyph glyph-name="backslash" unicode="\" horiz-adv-x="327" 
d="M279 -158l-279 772h48l279 -772h-48z" />
    <glyph glyph-name="bracketright" unicode="]" horiz-adv-x="305" 
d="M223 -158h-203v38h123v697h-123v37h203v-772z" />
    <glyph glyph-name="asciicircum" unicode="^" horiz-adv-x="524" 
d="M410 273l-148 281l-148 -281h-53l182 341h37l183 -341h-53z" />
    <glyph glyph-name="underscore" unicode="_" horiz-adv-x="480" 
d="M40 -18h400v-46h-400v46z" />
    <glyph glyph-name="grave" unicode="`" horiz-adv-x="543" 
d="M160 603l49 50q57 -44 138 -117l-16 -20q-88 49 -171 87z" />
    <glyph glyph-name="a" unicode="a" horiz-adv-x="490" 
d="M380.5 422.5q43.5 -46.5 43.5 -143.5v-279h-49l-22 79q-22 -47 -63.5 -70t-95.5 -23q-65 0 -111 34.5t-46 101.5q0 76 58 115t158 39q52 0 97 -8v19q0 69 -25 105.5t-90 36.5q-77 0 -143 -54l-20 37q33 27 81 42t95 15q89 0 132.5 -46.5zM311 73.5q39 42.5 39 123.5v39
q-47 7 -73 7q-77 0 -118.5 -29t-41.5 -85q0 -45 27 -71.5t71 -26.5q57 0 96 42.5z" />
    <glyph glyph-name="b" unicode="b" horiz-adv-x="554" 
d="M417 443q42 -26 66.5 -77.5t24.5 -124.5q0 -78 -27.5 -136t-74.5 -88.5t-103 -30.5q-54 0 -93.5 20.5t-58.5 62.5l-19 -69h-50v659h76v-266q63 76 163 76q54 0 96 -26zM393 89.5q33 60.5 33 147.5q0 83 -29 137t-101 54q-41 0 -78 -22.5t-60 -64.5v-134q0 -87 35 -132.5
t95 -45.5q72 0 105 60.5z" />
    <glyph glyph-name="c" unicode="c" horiz-adv-x="443" 
d="M106.5 50.5q-59.5 64.5 -59.5 171.5q0 69 30.5 125.5t85.5 89t125 32.5q78 0 130 -35l-20 -37q-45 36 -100 36q-58 0 -95.5 -30.5t-55 -77.5t-17.5 -96q0 -91 41.5 -146t123.5 -55q63 0 107 39l19 -30q-24 -23 -64 -37t-83 -14q-108 0 -167.5 64.5z" />
    <glyph glyph-name="d" unicode="d" horiz-adv-x="554" 
d="M472 659v-659h-48l-24 85q-17 -45 -59.5 -72t-96.5 -27q-90 0 -143.5 63t-53.5 174q0 76 30 132t80 85t108 29q84 0 131 -57v247h76zM359.5 81q36.5 53 36.5 143v133q-23 38 -55 55.5t-67 17.5q-71 0 -108.5 -59t-37.5 -145q0 -50 14.5 -95.5t44 -74t71.5 -28.5
q65 0 101.5 53z" />
    <glyph glyph-name="e" unicode="e" horiz-adv-x="494" 
d="M449 234h-321q2 -90 42.5 -148t120.5 -58q37 0 65.5 9.5t57.5 30.5l19 -30q-63 -52 -158 -52q-77 0 -128 33t-75.5 87.5t-24.5 121.5q0 65 27 120t77 88t115 33q94 0 140 -57t46 -146q0 -17 -3 -32zM168 389q-36 -49 -40 -123h240q2 10 2 26q0 59 -25 102.5t-83 43.5
t-94 -49z" />
    <glyph glyph-name="f" unicode="f" horiz-adv-x="313" 
d="M207.5 596q-25.5 -42 -25.5 -122v-18h138v-33h-138v-423h-76v423h-91v33h91v6q0 101 46.5 155.5t136.5 54.5q59 0 98 -26l-17 -30q-36 22 -79 22q-58 0 -83.5 -42z" />
    <glyph glyph-name="g" unicode="g" horiz-adv-x="533" 
d="M472 456v-414q0 -115 -56 -179.5t-167 -64.5q-80 0 -140 35l21 39q29 -17 60.5 -25.5t60.5 -8.5q79 0 112 47t33 137v62q-17 -41 -60 -66t-96 -25q-91 0 -142 63t-51 171q0 76 29.5 130.5t79 83t108.5 28.5q95 0 143 -73l17 60h48zM358.5 85q37.5 50 37.5 139v129
q-23 40 -55.5 58.5t-67.5 18.5q-72 0 -108.5 -58.5t-36.5 -145.5q0 -49 15 -92.5t44.5 -71t71.5 -27.5q62 0 99.5 50z" />
    <glyph glyph-name="h" unicode="h" horiz-adv-x="544" 
d="M438 416.5q40 -52.5 40 -143.5v-273h-76v247q0 78 -20.5 128.5t-84.5 50.5t-101.5 -54.5t-37.5 -150.5v-221h-76v659h76v-286q21 47 64 71.5t92 24.5q84 0 124 -52.5z" />
    <glyph glyph-name="i" unicode="i" horiz-adv-x="250" 
d="M86.5 556q-13.5 13 -13.5 34t13.5 35t38.5 14t38.5 -13.5t13.5 -34.5t-14 -34.5t-38 -13.5q-25 0 -38.5 13zM87 456h76v-456h-76v456z" />
    <glyph glyph-name="j" unicode="j" horiz-adv-x="242" 
d="M88.5 556q-13.5 13 -13.5 34t13.5 35t38.5 14t39 -13.5t14 -34.5t-14.5 -34.5t-38.5 -13.5q-25 0 -38.5 13zM12 -150q44 29 61 70.5t17 123.5v412h76v-355q0 -109 -29 -176t-106 -103z" />
    <glyph glyph-name="k" unicode="k" horiz-adv-x="479" 
d="M210 227h-52v-227h-76v659h76v-394h56q70 73 151 191h77q-91 -115 -181 -195l206 -261h-86z" />
    <glyph glyph-name="l" unicode="l" horiz-adv-x="241" 
d="M82 659h76v-659h-76v659z" />
    <glyph glyph-name="m" unicode="m" horiz-adv-x="847" 
d="M736 416.5q38 -52.5 38 -143.5v-273h-76v247q0 80 -17.5 129.5t-77.5 49.5q-61 0 -96.5 -52t-35.5 -146v-228h-75v247q0 79 -19.5 129t-81.5 50t-99 -54t-37 -148v-224h-76v456h50l23 -85q24 48 68.5 73t93.5 25q56 0 92.5 -29t48.5 -76q21 51 65.5 78t91.5 27
q82 0 120 -52.5z" />
    <glyph glyph-name="n" unicode="n" horiz-adv-x="553" 
d="M440 416q40 -53 40 -143v-273h-77v247q0 79 -20 129t-84 50t-101.5 -53.5t-37.5 -148.5v-224h-77v456h50l23 -85q24 49 67 73.5t94 24.5q83 0 123 -53z" />
    <glyph glyph-name="o" unicode="o" horiz-adv-x="541" 
d="M107.5 49q-60.5 63 -60.5 178q0 71 31 126t82.5 85.5t110.5 30.5q102 0 162.5 -63t60.5 -177q0 -71 -31 -126.5t-82.5 -86t-110.5 -30.5q-102 0 -162.5 63zM375 80q37 61 37 149q0 89 -34.5 148t-106.5 59q-68 0 -105.5 -60.5t-37.5 -147.5q0 -90 35 -149.5t107 -59.5
q68 0 105 61z" />
    <glyph glyph-name="p" unicode="p" horiz-adv-x="554" 
d="M454.5 410q53.5 -59 53.5 -169q0 -79 -28 -136.5t-75 -88t-105 -30.5q-46 0 -83.5 18.5t-58.5 55.5v-249h-76v645h50l18 -66q31 41 74 60t90 19q87 0 140.5 -59zM393 89.5q33 60.5 33 147.5q0 83 -29 137t-101 54q-41 0 -78 -23t-60 -65v-134q0 -87 35.5 -132t94.5 -45
q72 0 105 60.5z" />
    <glyph glyph-name="q" unicode="q" horiz-adv-x="544" 
d="M472 456v-645h-76v268q-17 -42 -59.5 -67.5t-95.5 -25.5q-92 0 -143 63.5t-51 173.5q0 77 29.5 133t79 84.5t108.5 28.5q94 0 144 -72l16 59h48zM358.5 79.5q37.5 51.5 37.5 140.5v134q-24 39 -56 57.5t-66 18.5q-72 0 -109 -59.5t-37 -147.5q0 -50 15 -94.5t44.5 -72.5
t71.5 -28q62 0 99.5 51.5z" />
    <glyph glyph-name="r" unicode="r" horiz-adv-x="330" 
d="M325 461v-59q-16 3 -35 3q-62 0 -96 -39.5t-34 -117.5v-248h-77v456h49l25 -88q17 42 55.5 69t84.5 27q14 0 28 -3z" />
    <glyph glyph-name="s" unicode="s" horiz-adv-x="412" 
d="M124.5 -3q-41.5 11 -77.5 37l22 38q65 -46 136 -46q46 0 73.5 19.5t27.5 56.5q0 33 -20.5 51t-69.5 41l-58 26q-96 44 -96 122q0 59 45.5 93t117.5 34q39 0 71 -7.5t61 -25.5l-17 -38q-30 19 -57.5 27t-57.5 8q-44 0 -71.5 -18.5t-27.5 -49.5q0 -27 17 -45t56 -36l74 -35
q52 -24 74 -54.5t22 -70.5q0 -66 -47.5 -102t-116.5 -36q-39 0 -80.5 11z" />
    <glyph glyph-name="t" unicode="t" horiz-adv-x="357" 
d="M339 25q-47 -39 -106 -39q-71 0 -98.5 50t-27.5 139v248h-91v33h91v123h75v-123h138v-33h-138v-235q0 -80 14 -121.5t58 -41.5q16 0 34 7.5t33 20.5z" />
    <glyph glyph-name="u" unicode="u" horiz-adv-x="551" 
d="M470 456v-456h-50l-23 84q-24 -48 -67 -73t-90 -25q-84 0 -124 53t-40 144v273h76v-247q0 -79 20 -129t85 -50q63 0 99.5 54.5t36.5 149.5v222h77z" />
    <glyph glyph-name="v" unicode="v" horiz-adv-x="434" 
d="M428 456q-39 -111 -92 -241t-96 -215h-46l-183 456h83l143 -372q32 70 68 181.5t55 190.5h68z" />
    <glyph glyph-name="w" unicode="w" horiz-adv-x="679" 
d="M668 456q-79 -275 -160 -456h-50l-111 332q-60 -189 -127 -332h-49l-156 456h80l121 -370q62 160 123 370h39l124 -370q28 77 54 176t44 194h68z" />
    <glyph glyph-name="x" unicode="x" horiz-adv-x="467" 
d="M357 0l-135 196q-60 -98 -114 -196h-76q110 150 167 226l-161 230h87l127 -182q62 93 108 182h75q-94 -126 -161 -210l171 -246h-88z" />
    <glyph glyph-name="y" unicode="y" horiz-adv-x="535" 
d="M470 456v-406q0 -252 -226 -252q-76 0 -136 35l21 39q29 -17 61 -25.5t60 -8.5q79 0 111.5 48t32.5 138v68q-18 -46 -60 -72.5t-91 -26.5q-167 0 -167 198v265h76v-242q0 -77 21.5 -127t86.5 -50q60 0 96.5 54t36.5 147v218h77z" />
    <glyph glyph-name="z" unicode="z" horiz-adv-x="424" 
d="M383 424l-245 -387l244 2v-39h-334v32l246 386l-248 -2v40h337v-32z" />
    <glyph glyph-name="braceleft" unicode="{" horiz-adv-x="318" 
d="M179.5 584q-18.5 -17 -18.5 -58q0 -21 6.5 -40.5t19.5 -51.5q15 -35 22.5 -59t7.5 -50q0 -36 -16 -62t-47 -35q31 -10 47 -36t16 -62q0 -25 -7 -48t-22 -59q-13 -31 -20 -52t-7 -42q0 -40 18.5 -57t55.5 -17q25 0 40 6v-25q-22 -8 -49 -8q-64 0 -101 29t-37 85
q0 22 7 44.5t20 51.5q14 36 20.5 57t6.5 44q0 31 -14.5 51.5t-45.5 20.5h-10v34h10q31 0 45.5 20.5t14.5 51.5q0 23 -6.5 44t-20.5 57q-13 29 -20 51.5t-7 44.5q0 55 37 84t101 29q27 0 49 -8v-24q-15 6 -40 6q-37 0 -55.5 -17z" />
    <glyph glyph-name="bar" unicode="|" horiz-adv-x="253" 
d="M102 659h48v-848h-48v848z" />
    <glyph glyph-name="braceright" unicode="}" horiz-adv-x="318" 
d="M246 245v-34h-10q-31 0 -45.5 -20.5t-14.5 -51.5q0 -23 6.5 -44t20.5 -57q13 -29 20 -51.5t7 -44.5q0 -55 -37 -84t-101 -29q-27 0 -49 8v24q15 -6 40 -6q37 0 55.5 17t18.5 58q0 21 -6.5 40.5t-19.5 51.5q-15 35 -22.5 59t-7.5 50q0 36 16 62t47 35q-31 10 -47 36
t-16 62q0 25 7 48t22 59q13 31 20 52t7 42q0 40 -18.5 57t-55.5 17q-25 0 -40 -6v25q22 8 49 8q64 0 101 -29t37 -85q0 -22 -7 -44.5t-20 -51.5q-14 -36 -20.5 -57t-6.5 -44q0 -31 14.5 -51.5t45.5 -20.5h10z" />
    <glyph glyph-name="asciitilde" unicode="~" horiz-adv-x="524" 
d="M37 200q24 41 53.5 61.5t71.5 20.5q28 0 64 -15l85 -33q22 -9 34 -12t25 -3q25 0 44.5 12.5t41.5 46.5l30 -20q-23 -41 -52.5 -62t-71.5 -21q-25 0 -65 15l-84 34q-20 8 -33 11t-27 3q-25 0 -44 -12t-42 -46z" />
    <glyph glyph-name="uni00A0" unicode="&#xa0;" horiz-adv-x="222" 
 />
    <glyph glyph-name="exclamdown" unicode="&#xa1;" horiz-adv-x="279" 
d="M178 455.5q15 -14.5 15 -36.5q0 -23 -15 -37.5t-40 -14.5q-24 0 -38 14.5t-14 37.5q0 22 14 36.5t39 14.5q24 0 39 -14.5zM189 -158h-99q19 227 28 433h45q10 -216 26 -433z" />
    <glyph glyph-name="cent" unicode="&#xa2;" horiz-adv-x="465" 
d="M383.5 89.5q-37.5 -13.5 -79.5 -15.5v-88h-34v87q-107 5 -165 71t-58 173q0 64 28.5 117t79.5 85t115 36v72h34v-71q83 -3 136 -37l-20 -36q-47 33 -116 36v-404q78 3 120 39l19 -30q-22 -21 -59.5 -34.5zM165.5 182q35.5 -56 104.5 -65v401q-70 -9 -105 -66t-35 -128
q0 -86 35.5 -142z" />
    <glyph glyph-name="sterling" unicode="&#xa3;" horiz-adv-x="452" 
d="M199.5 135.5q-23.5 -45.5 -67.5 -71.5h296v-64h-377v50q51 25 75.5 66.5t24.5 94.5q0 44 -14 88h-82v34h70q-17 45 -24 70.5t-7 61.5q0 44 22 80.5t66 59t108 22.5q85 0 142 -40l-22 -37q-27 22 -60 32.5t-65 10.5q-59 0 -91 -30t-32 -85q0 -27 7 -52.5t22 -62.5l12 -30
h156v-34h-146q10 -35 10 -68q0 -50 -23.5 -95.5z" />
    <glyph glyph-name="currency" unicode="&#xa4;" horiz-adv-x="527" 
d="M406 182l66 -66l-25 -24l-67 65q-49 -40 -117 -40t-117 40l-67 -65l-25 24l66 66q-40 51 -40 121q0 71 39 119l-65 66l25 24l65 -63q50 41 119 41q71 0 119 -42l65 64l25 -24l-64 -66q38 -49 38 -119t-40 -121zM358 198q36 39 36 105t-36 105.5t-95 39.5q-60 0 -96 -39.5
t-36 -105.5q0 -65 36.5 -104.5t95.5 -39.5t95 39z" />
    <glyph glyph-name="yen" unicode="&#xa5;" horiz-adv-x="532" 
d="M321 303h107v-32h-112v-66h112v-32h-112v-173h-75v173h-112v32h112v66h-112v32h104l-214 311h90l190 -279q101 168 157 279h70q-71 -118 -205 -311z" />
    <glyph glyph-name="brokenbar" unicode="&#xa6;" horiz-adv-x="253" 
d="M102 659h48v-351h-48v351zM102 162h48v-351h-48v351z" />
    <glyph glyph-name="section" unicode="&#xa7;" horiz-adv-x="435" 
d="M371 -31q0 -68 -44.5 -104.5t-116.5 -36.5q-80 0 -138 45l23 34q27 -21 57.5 -31.5t57.5 -10.5q44 0 70.5 21.5t26.5 54.5q0 34 -18.5 56t-62.5 50l-80 49q-51 31 -77.5 63t-26.5 79q0 41 26.5 74.5t69.5 55.5q-64 50 -64 117q0 68 45 105t116 37q79 0 138 -44l-23 -35
q-27 22 -57 32.5t-58 10.5q-44 0 -71 -22.5t-27 -55.5q0 -34 19 -56.5t63 -49.5l80 -49q51 -31 77.5 -63t26.5 -78q0 -41 -27 -75t-70 -55q65 -51 65 -118zM269 112l13 -8q52 38 52 88q0 34 -21 57.5t-68 51.5l-69 41l-14 9q-51 -37 -51 -88q0 -35 21 -59t68 -51z" />
    <glyph glyph-name="dieresis" unicode="&#xa8;" horiz-adv-x="543" 
d="M132 554q-12 13 -12 32q0 21 12 34t33 13q20 0 33 -13t13 -33q0 -18 -13.5 -32t-33.5 -14t-32 13zM301.5 554q-12.5 13 -12.5 32q0 21 13 34t34 13q20 0 32 -13t12 -33q0 -19 -12.5 -32.5t-32.5 -13.5q-21 0 -33.5 13z" />
    <glyph glyph-name="copyright" unicode="&#xa9;" horiz-adv-x="588" 
d="M156 191q-61 33 -95.5 91.5t-34.5 133.5q0 74 34.5 132.5t95.5 91t139 32.5q77 0 138 -32.5t95 -91t34 -132.5q0 -75 -34 -133.5t-95 -91.5t-138 -33q-78 0 -139 33zM411 219.5q51 28.5 80 79.5t29 117q0 64 -29 115t-80 79.5t-116 28.5q-66 0 -117.5 -28.5t-80 -79
t-28.5 -115.5q0 -66 28.5 -117t80 -79.5t117.5 -28.5q65 0 116 28.5zM194 318.5q-38 38.5 -38 99.5q0 41 20 74.5t56 53t80 19.5q51 0 86 -24l-15 -24q-26 20 -64 20q-50 0 -75 -34t-25 -80q0 -48 23.5 -79.5t70.5 -31.5q44 0 73 24l15 -21q-17 -16 -44 -25.5t-56 -9.5
q-69 0 -107 38.5z" />
    <glyph glyph-name="ordfeminine" unicode="&#xaa;" horiz-adv-x="368" 
d="M253 544v13q0 40 -16 60t-58 20q-52 0 -95 -36l-18 31q25 19 59.5 29.5t66.5 10.5q66 0 96.5 -30t30.5 -91v-200h-44l-13 55q-16 -32 -45 -48t-65 -16q-47 0 -77.5 25t-30.5 73q0 55 39 82t108 27q36 0 62 -5zM230 406q23 29 23 87v25q-25 5 -48 5q-44 0 -70.5 -19.5
t-26.5 -57.5q0 -32 18 -50.5t45 -18.5q36 0 59 29zM324 298v-35h-278v35h278z" />
    <glyph glyph-name="guillemotleft" unicode="&#xab;" horiz-adv-x="330" 
d="M88 227q6 -8 34 -48t53 -85l-27 -17q-66 78 -139 145v2q56 53 139 143l27 -14q-36 -59 -87 -126zM237 227q6 -8 34 -48t53 -85l-27 -17q-66 78 -139 145v2q56 53 139 143l27 -14q-36 -59 -87 -126z" />
    <glyph glyph-name="logicalnot" unicode="&#xac;" horiz-adv-x="524" 
d="M410 305h-365v41h414v-233h-49v192z" />
    <glyph glyph-name="uni00AD" unicode="&#xad;" horiz-adv-x="274" 
d="M40 250h194v-43h-194v43z" />
    <glyph glyph-name="registered" unicode="&#xae;" horiz-adv-x="588" 
d="M432 640.5q61 -32.5 95.5 -91.5t34.5 -133q0 -75 -34.5 -133.5t-95.5 -91.5t-138 -33t-138 33t-95.5 91.5t-34.5 133.5q0 74 34.5 133t95.5 91.5t138 32.5t138 -32.5zM410.5 219.5q51.5 28.5 80 79.5t28.5 117q0 65 -28.5 116t-80 79.5t-116.5 28.5t-116.5 -28.5
t-80 -79.5t-28.5 -116q0 -66 28.5 -117t80 -79.5t116.5 -28.5t116.5 28.5zM388 431.5q-18 -21.5 -48 -32.5l76 -108h-67l-66 100q-12 0 -30 2v-102h-58v268q33 6 79 6q132 0 132 -85q0 -27 -18 -48.5zM267 421q78 0 78 60q0 29 -16 43t-52 14q-15 0 -24 -2v-114q5 -1 14 -1z
" />
    <glyph glyph-name="macron" unicode="&#xaf;" horiz-adv-x="543" 
d="M135 612h230v-43h-230v43z" />
    <glyph glyph-name="degree" unicode="&#xb0;" horiz-adv-x="248" 
d="M56 523q-24 25 -24 62t24.5 62t67.5 25t67.5 -25t24.5 -61q0 -38 -25 -63t-68 -25t-67 25zM156.5 534.5q12.5 18.5 12.5 46.5q0 34 -11 53.5t-34 19.5q-21 0 -32.5 -19t-11.5 -50q0 -30 11.5 -49.5t31.5 -19.5q21 0 33.5 18.5z" />
    <glyph glyph-name="plusminus" unicode="&#xb1;" horiz-adv-x="524" 
d="M469 314v-40h-182v-179h-49v179h-183v40h183v179h49v-179h182zM55 40h414v-40h-414v40z" />
    <glyph glyph-name="uni00B2" unicode="&#xb2;" horiz-adv-x="349" 
d="M247.5 522q-50.5 -57 -148.5 -130h198v-52h-261v41q98 80 147 136t49 112q0 32 -20.5 52t-57.5 20q-48 0 -92 -36l-19 27q27 22 60.5 33.5t67.5 11.5q62 0 94.5 -29t32.5 -74q0 -55 -50.5 -112z" />
    <glyph glyph-name="uni00B3" unicode="&#xb3;" horiz-adv-x="356" 
d="M282.5 533.5q31.5 -29.5 31.5 -77.5q0 -55 -42.5 -89t-107.5 -34q-63 0 -117 28l19 37q44 -32 95 -32q40 0 64 22.5t24 61.5q0 36 -22.5 57.5t-65.5 21.5q-26 0 -49 -10v31q62 70 129 133h-179v47h233v-41q-61 -55 -135 -130q15 4 32 4q59 0 90.5 -29.5z" />
    <glyph glyph-name="acute" unicode="&#xb4;" horiz-adv-x="543" 
d="M178 534q41 44 119 116l54 -39q-83 -45 -159 -95z" />
    <glyph glyph-name="uni00B5" unicode="&#xb5;" horiz-adv-x="577" 
d="M569 15q-36 -29 -79 -29q-34 0 -54.5 20t-25.5 70q-26 -45 -66.5 -67.5t-89.5 -22.5q-55 0 -95 34v-209h-77v645h77v-242q0 -87 24 -136t88 -49q61 0 98.5 52t37.5 131v244h77v-359q0 -65 32 -65q19 0 37 14z" />
    <glyph glyph-name="paragraph" unicode="&#xb6;" horiz-adv-x="547" 
d="M524 574h-60v-491q0 -127 -49.5 -191t-168.5 -64q-48 0 -93.5 15.5t-77.5 43.5l28 36q73 -54 153 -54q84 0 122 50t38 160v495h-87v-417h-50q-75 0 -131 28.5t-86 80t-30 119.5t30 120t86 80.5t131 28.5h245v-40z" />
    <glyph glyph-name="periodcentered" unicode="&#xb7;" horiz-adv-x="177" 
d="M50 187.5q-15 14.5 -15 36.5q0 23 15 37.5t40 14.5q24 0 38 -14.5t14 -37.5q0 -22 -14 -36.5t-39 -14.5q-24 0 -39 14.5z" />
    <glyph glyph-name="cedilla" unicode="&#xb8;" horiz-adv-x="543" 
d="M304.5 -66.5q19.5 -17.5 19.5 -47.5q0 -34 -25 -54.5t-65 -20.5q-33 0 -59 13l10 32q19 -11 47 -11q16 0 28.5 8t12.5 25q0 16 -11 23.5t-28 8.5q-20 0 -33 -4l27 95h35l-16 -50h7q31 0 50.5 -17.5z" />
    <glyph glyph-name="uni00B9" unicode="&#xb9;" horiz-adv-x="283" 
d="M192 730v-390h-64v310q-43 -21 -82 -29l-10 23q34 15 67 38t58 48h31z" />
    <glyph glyph-name="ordmasculine" unicode="&#xba;" horiz-adv-x="368" 
d="M66.5 384.5q-41.5 43.5 -41.5 121.5q0 51 22.5 88.5t59.5 57.5t80 20q73 0 114 -42t41 -122q0 -49 -22 -87t-59 -59t-80 -21q-73 0 -114.5 43.5zM247.5 409q23.5 42 23.5 100q0 60 -20.5 98.5t-63.5 38.5q-44 0 -67.5 -40t-23.5 -100q0 -57 21 -98t64 -41t66.5 42z
M41 298h279v-35h-279v35z" />
    <glyph glyph-name="guillemotright" unicode="&#xbb;" horiz-adv-x="330" 
d="M172 226q-56 -53 -139 -143l-27 14q36 59 87 126q-6 8 -34 48t-53 85l27 17q66 -78 139 -145v-2zM321 228v-2q-56 -53 -139 -143l-27 14q36 59 87 126q-6 8 -34 48t-53 85l27 17q66 -78 139 -145z" />
    <glyph glyph-name="onequarter" unicode="&#xbc;" horiz-adv-x="774" 
d="M134 223v310q-37 -19 -82 -29l-10 23q73 34 125 87h31v-391h-64zM612 614l-400 -614h-55l400 614h55zM761 83h-43v-83h-61v83h-204v43q65 59 108 126.5t59 138.5h76q-20 -65 -76 -140t-122 -124h159v106h61v-106h43v-44z" />
    <glyph glyph-name="onehalf" unicode="&#xbd;" horiz-adv-x="830" 
d="M134 223v310q-37 -19 -82 -29l-10 23q73 34 125 87h31v-391h-64zM612 614l-400 -614h-55l400 614h55zM719.5 182q-50.5 -57 -148.5 -130h198v-52h-260v41q98 81 146.5 137t48.5 111q0 33 -20 53t-58 20q-46 0 -92 -37l-18 28q28 22 61 33.5t67 11.5q62 0 94 -29.5
t32 -74.5q0 -55 -50.5 -112z" />
    <glyph glyph-name="threequarters" unicode="&#xbe;" horiz-adv-x="832" 
d="M257 250.5q-42 -33.5 -108 -33.5q-65 0 -117 28l19 36q46 -32 95 -32q40 0 64 22.5t24 61.5q0 36 -22.5 58t-65.5 22q-22 0 -49 -10v31q64 71 129 132h-179v48h233v-42q-54 -47 -135 -130q15 4 32 4q59 0 90.5 -29.5t31.5 -76.5q0 -56 -42 -89.5zM670 614l-400 -614h-55
l400 614h55zM819 83h-43v-83h-60v83h-205v43q65 59 108 126.5t59 138.5h76q-20 -65 -76 -140t-122 -124h160v106h60v-106h43v-44z" />
    <glyph glyph-name="questiondown" unicode="&#xbf;" horiz-adv-x="387" 
d="M258.5 456.5q16.5 -14.5 16.5 -36.5q0 -23 -14.5 -37.5t-40.5 -14.5q-24 0 -38 14.5t-14 37.5q0 22 12.5 36.5t36.5 14.5q25 0 41.5 -14.5zM250 228q0 -70 -48 -118l-25 -24q-36 -34 -52 -58t-16 -61q0 -43 27.5 -70.5t75.5 -27.5q75 0 136 63l26 -32q-31 -30 -78 -50
t-100 -20q-82 0 -126 37.5t-44 94.5q0 47 29.5 82t81.5 77q34 28 49 57.5t15 70.5q0 17 -1 27h44q6 -30 6 -48z" />
    <glyph glyph-name="Agrave" unicode="&#xc0;" horiz-adv-x="584" 
d="M399 191h-234l-70 -191h-60l249 614h42l229 -614h-88zM387 226l-103 291l-106 -291h209zM169 747l43 48q96 -63 148 -109l-15 -19q-54 27 -176 80z" />
    <glyph glyph-name="Aacute" unicode="&#xc1;" horiz-adv-x="584" 
d="M399 191h-234l-70 -191h-60l249 614h42l229 -614h-88zM387 226l-103 291l-106 -291h209zM251 682q47 44 134 108l54 -41q-69 -31 -176 -84z" />
    <glyph glyph-name="Acircumflex" unicode="&#xc2;" horiz-adv-x="584" 
d="M399 191h-234l-70 -191h-60l249 614h42l229 -614h-88zM387 226l-103 291l-106 -291h209zM404 674l-29 18q-52 32 -77 49l-53 -33q-46 -30 -52 -34l-17 19l24 21q70 63 88 81h23q18 -18 88 -81l24 -21z" />
    <glyph glyph-name="Atilde" unicode="&#xc3;" horiz-adv-x="584" 
d="M399 191h-234l-70 -191h-60l249 614h42l229 -614h-88zM387 226l-103 291l-106 -291h209zM165 699q36 84 83 84q13 0 21.5 -3.5t15.5 -7.5t10 -6l35 -22q20 -13 32 -13t22 10.5t24 35.5l25 -14q-15 -39 -36 -61.5t-45 -22.5q-15 0 -25 4.5t-23 13.5l-35 25q-17 12 -31 12
q-12 0 -22.5 -12.5t-24.5 -38.5z" />
    <glyph glyph-name="Adieresis" unicode="&#xc4;" horiz-adv-x="584" 
d="M399 191h-234l-70 -191h-60l249 614h42l229 -614h-88zM387 226l-103 291l-106 -291h209zM182 696q-12 13 -12 32q0 21 12 34t33 13q20 0 33 -13t13 -33q0 -18 -13.5 -32t-33.5 -14t-32 13zM351.5 696q-12.5 13 -12.5 32q0 21 13 34t34 13q20 0 32 -13t12 -33
q0 -19 -12.5 -32.5t-32.5 -13.5q-21 0 -33.5 13z" />
    <glyph glyph-name="Aring" unicode="&#xc5;" horiz-adv-x="584" 
d="M399 191h-234l-70 -191h-60l249 614h42l229 -614h-88zM387 226l-103 291l-106 -291h209zM234.5 686q-23.5 18 -23.5 52t26 55t62 21q42 0 66 -19t24 -54q0 -33 -26.5 -53t-62.5 -20q-42 0 -65.5 18zM330.5 705.5q11.5 15.5 11.5 36.5t-9.5 36t-32.5 15q-20 0 -31 -15.5
t-11 -36.5q0 -51 42 -51q19 0 30.5 15.5z" />
    <glyph glyph-name="AE" unicode="&#xc6;" horiz-adv-x="807" 
d="M765 46v-46h-347v192h-222l-111 -192h-70l376 614h373v-47q-84 8 -183 8h-85v-246h37q61 0 177 4v-46q-97 5 -177 5h-37v-253h92q94 0 177 7zM418 226v349h-1l-202 -349h203z" />
    <glyph glyph-name="Ccedilla" unicode="&#xc7;" horiz-adv-x="563" 
d="M417.5 -66.5q19.5 -17.5 19.5 -47.5q0 -34 -24.5 -54.5t-65.5 -20.5q-33 0 -59 13l10 32q19 -11 47 -11q16 0 28.5 8t12.5 25q0 16 -11 23.5t-28 8.5q-20 0 -33 -4l23 81q-128 10 -202 92t-74 220q0 99 42.5 173.5t115.5 114.5t162 40q98 0 167 -39l-24 -42
q-64 41 -143 41q-72 0 -124.5 -37t-80 -100t-27.5 -141q0 -125 59 -203t167 -78q94 0 155 49l21 -34q-74 -57 -180 -57l-11 -35h7q31 0 50.5 -17.5z" />
    <glyph glyph-name="Egrave" unicode="&#xc8;" horiz-adv-x="499" 
d="M456 46v-46h-355v614h350v-47q-84 8 -183 8h-89v-246h45q98 0 177 4v-46q-74 5 -177 5h-45v-253h99q95 0 178 7zM150 747l43 48q96 -63 148 -109l-15 -19q-54 27 -176 80z" />
    <glyph glyph-name="Eacute" unicode="&#xc9;" horiz-adv-x="499" 
d="M456 46v-46h-355v614h350v-47q-84 8 -183 8h-89v-246h45q98 0 177 4v-46q-74 5 -177 5h-45v-253h99q95 0 178 7zM232 682q47 44 134 108l54 -41q-69 -31 -176 -84z" />
    <glyph glyph-name="Ecircumflex" unicode="&#xca;" horiz-adv-x="499" 
d="M456 46v-46h-355v614h350v-47q-84 8 -183 8h-89v-246h45q98 0 177 4v-46q-74 5 -177 5h-45v-253h99q95 0 178 7zM385 674l-29 18q-52 32 -77 49l-53 -33q-46 -30 -52 -34l-17 19l24 21q70 63 88 81h23q18 -18 88 -81l24 -21z" />
    <glyph glyph-name="Edieresis" unicode="&#xcb;" horiz-adv-x="499" 
d="M456 46v-46h-355v614h350v-47q-84 8 -183 8h-89v-246h45q98 0 177 4v-46q-74 5 -177 5h-45v-253h99q95 0 178 7zM163 696q-12 13 -12 32q0 21 12 34t33 13q20 0 33 -13t13 -33q0 -18 -13.5 -32t-33.5 -14t-32 13zM332.5 696q-12.5 13 -12.5 32q0 21 13 34t34 13
q20 0 32 -13t12 -33q0 -19 -12.5 -32.5t-32.5 -13.5q-21 0 -33.5 13z" />
    <glyph glyph-name="Igrave" unicode="&#xcc;" horiz-adv-x="272" 
d="M101 614h80v-614h-80v614zM10 747l43 48q96 -63 148 -109l-15 -19q-54 27 -176 80z" />
    <glyph glyph-name="Iacute" unicode="&#xcd;" horiz-adv-x="272" 
d="M101 614h80v-614h-80v614zM92 682q47 44 134 108l54 -41q-69 -31 -176 -84z" />
    <glyph glyph-name="Icircumflex" unicode="&#xce;" horiz-adv-x="272" 
d="M101 614h80v-614h-80v614zM245 674l-29 18q-52 32 -77 49l-53 -33q-46 -30 -52 -34l-17 19l24 21q70 63 88 81h23q18 -18 88 -81l24 -21z" />
    <glyph glyph-name="Idieresis" unicode="&#xcf;" horiz-adv-x="272" 
d="M101 614h80v-614h-80v614zM23 696q-12 13 -12 32q0 21 12 34t33 13q20 0 33 -13t13 -33q0 -18 -13.5 -32t-33.5 -14t-32 13zM192.5 696q-12.5 13 -12.5 32q0 21 13 34t34 13q20 0 32 -13t12 -33q0 -19 -12.5 -32.5t-32.5 -13.5q-21 0 -33.5 13z" />
    <glyph glyph-name="Eth" unicode="&#xd0;" horiz-adv-x="689" 
d="M552 537.5q87 -83.5 87 -219.5q0 -92 -38 -165.5t-121.5 -117.5t-212.5 -44q-80 0 -153 11v300h-79v35h79v274q60 10 156 10q195 0 282 -83.5zM489 109.5q64 81.5 64 206.5q0 118 -66.5 194t-226.5 76q-40 0 -66 -5v-244h156v-35h-156v-267q38 -7 79 -7q152 0 216 81.5z
" />
    <glyph glyph-name="Ntilde" unicode="&#xd1;" horiz-adv-x="669" 
d="M583 614v-614h-42l-400 487v-487h-45v614h43l399 -487v487h45zM211 699q36 84 83 84q13 0 21.5 -3.5t15.5 -7.5t10 -6l35 -22q20 -13 32 -13t22 10.5t24 35.5l25 -14q-15 -39 -36 -61.5t-45 -22.5q-15 0 -25 4.5t-23 13.5l-35 25q-17 12 -31 12q-12 0 -22.5 -12.5
t-24.5 -38.5z" />
    <glyph glyph-name="Ograve" unicode="&#xd2;" horiz-adv-x="734" 
d="M204 25.5q-70 39.5 -106.5 111t-36.5 166.5q0 94 43 168t115 115t155 41q97 0 166.5 -39t106 -110.5t36.5 -166.5q0 -94 -43 -168.5t-114.5 -115.5t-154.5 -41q-97 0 -167 39.5zM491 63q52 40 79 105.5t27 138.5q0 75 -24 139.5t-74 104t-124 39.5q-70 0 -122 -40
t-79 -105t-27 -138q0 -75 24 -140t74.5 -104.5t123.5 -39.5q70 0 122 40zM244 747l43 48q96 -63 148 -109l-15 -19q-54 27 -176 80z" />
    <glyph glyph-name="Oacute" unicode="&#xd3;" horiz-adv-x="734" 
d="M204 25.5q-70 39.5 -106.5 111t-36.5 166.5q0 94 43 168t115 115t155 41q97 0 166.5 -39t106 -110.5t36.5 -166.5q0 -94 -43 -168.5t-114.5 -115.5t-154.5 -41q-97 0 -167 39.5zM491 63q52 40 79 105.5t27 138.5q0 75 -24 139.5t-74 104t-124 39.5q-70 0 -122 -40
t-79 -105t-27 -138q0 -75 24 -140t74.5 -104.5t123.5 -39.5q70 0 122 40zM326 682q47 44 134 108l54 -41q-69 -31 -176 -84z" />
    <glyph glyph-name="Ocircumflex" unicode="&#xd4;" horiz-adv-x="734" 
d="M204 25.5q-70 39.5 -106.5 111t-36.5 166.5q0 94 43 168t115 115t155 41q97 0 166.5 -39t106 -110.5t36.5 -166.5q0 -94 -43 -168.5t-114.5 -115.5t-154.5 -41q-97 0 -167 39.5zM491 63q52 40 79 105.5t27 138.5q0 75 -24 139.5t-74 104t-124 39.5q-70 0 -122 -40
t-79 -105t-27 -138q0 -75 24 -140t74.5 -104.5t123.5 -39.5q70 0 122 40zM479 674l-29 18q-52 32 -77 49l-53 -33q-46 -30 -52 -34l-17 19l24 21q70 63 88 81h23q18 -18 88 -81l24 -21z" />
    <glyph glyph-name="Otilde" unicode="&#xd5;" horiz-adv-x="734" 
d="M204 25.5q-70 39.5 -106.5 111t-36.5 166.5q0 94 43 168t115 115t155 41q97 0 166.5 -39t106 -110.5t36.5 -166.5q0 -94 -43 -168.5t-114.5 -115.5t-154.5 -41q-97 0 -167 39.5zM491 63q52 40 79 105.5t27 138.5q0 75 -24 139.5t-74 104t-124 39.5q-70 0 -122 -40
t-79 -105t-27 -138q0 -75 24 -140t74.5 -104.5t123.5 -39.5q70 0 122 40zM240 699q36 84 83 84q13 0 21.5 -3.5t15.5 -7.5t10 -6l35 -22q20 -13 32 -13t22 10.5t24 35.5l25 -14q-15 -39 -36 -61.5t-45 -22.5q-15 0 -25 4.5t-23 13.5l-35 25q-17 12 -31 12q-12 0 -22.5 -12.5
t-24.5 -38.5z" />
    <glyph glyph-name="Odieresis" unicode="&#xd6;" horiz-adv-x="734" 
d="M204 25.5q-70 39.5 -106.5 111t-36.5 166.5q0 94 43 168t115 115t155 41q97 0 166.5 -39t106 -110.5t36.5 -166.5q0 -94 -43 -168.5t-114.5 -115.5t-154.5 -41q-97 0 -167 39.5zM491 63q52 40 79 105.5t27 138.5q0 75 -24 139.5t-74 104t-124 39.5q-70 0 -122 -40
t-79 -105t-27 -138q0 -75 24 -140t74.5 -104.5t123.5 -39.5q70 0 122 40zM257 696q-12 13 -12 32q0 21 12 34t33 13q20 0 33 -13t13 -33q0 -18 -13.5 -32t-33.5 -14t-32 13zM426.5 696q-12.5 13 -12.5 32q0 21 13 34t34 13q20 0 32 -13t12 -33q0 -19 -12.5 -32.5
t-32.5 -13.5q-21 0 -33.5 13z" />
    <glyph glyph-name="multiply" unicode="&#xd7;" horiz-adv-x="524" 
d="M421 29l-160 165l-159 -164l-30 31l159 164l-159 165l31 31l159 -164l159 164l31 -31l-160 -164l161 -166z" />
    <glyph glyph-name="Oslash" unicode="&#xd8;" horiz-adv-x="735" 
d="M605 538q38 -41 58 -99t20 -128q0 -94 -43 -168.5t-114.5 -115.5t-154.5 -41q-119 0 -200 62l-54 -62h-56l79 90q-38 41 -58 99t-20 128q0 94 43 168t114.5 115t154.5 41q121 0 199 -61l55 61h55zM189 130l343 389q-58 71 -156 71q-71 0 -123 -40t-79 -105t-27 -138
q0 -105 42 -177zM556 484l-344 -389q61 -72 157 -72q71 0 123 40t79 105.5t27 138.5q0 105 -42 177z" />
    <glyph glyph-name="Ugrave" unicode="&#xd9;" horiz-adv-x="640" 
d="M152.5 55q-60.5 69 -60.5 191v368h80v-340q0 -110 40.5 -177.5t128.5 -67.5q99 0 139 58t40 164v363h47v-376q0 -117 -58.5 -184.5t-171.5 -67.5q-124 0 -184.5 69zM217 747l43 48q96 -63 148 -109l-15 -19q-54 27 -176 80z" />
    <glyph glyph-name="Uacute" unicode="&#xda;" horiz-adv-x="640" 
d="M152.5 55q-60.5 69 -60.5 191v368h80v-340q0 -110 40.5 -177.5t128.5 -67.5q99 0 139 58t40 164v363h47v-376q0 -117 -58.5 -184.5t-171.5 -67.5q-124 0 -184.5 69zM299 682q47 44 134 108l54 -41q-69 -31 -176 -84z" />
    <glyph glyph-name="Ucircumflex" unicode="&#xdb;" horiz-adv-x="640" 
d="M152.5 55q-60.5 69 -60.5 191v368h80v-340q0 -110 40.5 -177.5t128.5 -67.5q99 0 139 58t40 164v363h47v-376q0 -117 -58.5 -184.5t-171.5 -67.5q-124 0 -184.5 69zM452 674l-29 18q-52 32 -77 49l-53 -33q-46 -30 -52 -34l-17 19l24 21q70 63 88 81h23q18 -18 88 -81
l24 -21z" />
    <glyph glyph-name="Udieresis" unicode="&#xdc;" horiz-adv-x="640" 
d="M152.5 55q-60.5 69 -60.5 191v368h80v-340q0 -110 40.5 -177.5t128.5 -67.5q99 0 139 58t40 164v363h47v-376q0 -117 -58.5 -184.5t-171.5 -67.5q-124 0 -184.5 69zM230 696q-12 13 -12 32q0 21 12 34t33 13q20 0 33 -13t13 -33q0 -18 -13.5 -32t-33.5 -14t-32 13z
M399.5 696q-12.5 13 -12.5 32q0 21 13 34t34 13q20 0 32 -13t12 -33q0 -19 -12.5 -32.5t-32.5 -13.5q-21 0 -33.5 13z" />
    <glyph glyph-name="Yacute" unicode="&#xdd;" horiz-adv-x="532" 
d="M320 269v-269h-80v267l-221 347h89l192 -304q99 181 156 304h70q-100 -178 -206 -345zM236 682q47 44 134 108l54 -41q-69 -31 -176 -84z" />
    <glyph glyph-name="Thorn" unicode="&#xde;" horiz-adv-x="497" 
d="M486 320q0 -94 -71.5 -147t-190.5 -53q-26 0 -43 2v-122h-80v614h80v-112q19 2 48 2q257 0 257 -184zM355 198q45 45 45 125q0 71 -42.5 110.5t-131.5 39.5q-18 0 -45 -3v-315q24 -2 36 -2q93 0 138 45z" />
    <glyph glyph-name="germandbls" unicode="&#xdf;" horiz-adv-x="549" 
d="M505.5 200q22.5 -31 22.5 -78q0 -61 -45.5 -98.5t-113.5 -37.5q-79 0 -135 40l22 40q56 -42 112 -42q44 0 69 22.5t25 57.5q0 27 -12.5 47t-31.5 34.5t-54 35.5q-50 30 -68.5 50t-18.5 46q0 20 12 38.5t37 46.5q33 37 51.5 68.5t18.5 71.5q0 43 -24 71t-70 28
q-64 0 -91 -47t-27 -132v-462h-76v423h-93v33h93q1 102 51 159t152 57q66 0 110 -27.5t44 -90.5q0 -40 -22 -72t-60 -69q-26 -27 -36.5 -40.5t-10.5 -26.5q0 -14 11.5 -24t39.5 -27l40 -26q56 -38 78.5 -69z" />
    <glyph glyph-name="agrave" unicode="&#xe0;" horiz-adv-x="490" 
d="M380.5 422.5q43.5 -46.5 43.5 -143.5v-279h-49l-22 79q-22 -47 -63.5 -70t-95.5 -23q-65 0 -111 34.5t-46 101.5q0 76 58 115t158 39q52 0 97 -8v19q0 69 -25 105.5t-90 36.5q-77 0 -143 -54l-20 37q33 27 81 42t95 15q89 0 132.5 -46.5zM311 73.5q39 42.5 39 123.5v39
q-47 7 -73 7q-77 0 -118.5 -29t-41.5 -85q0 -45 27 -71.5t71 -26.5q57 0 96 42.5zM107 603l49 50q57 -44 138 -117l-16 -20q-88 49 -171 87z" />
    <glyph glyph-name="aacute" unicode="&#xe1;" horiz-adv-x="490" 
d="M380.5 422.5q43.5 -46.5 43.5 -143.5v-279h-49l-22 79q-22 -47 -63.5 -70t-95.5 -23q-65 0 -111 34.5t-46 101.5q0 76 58 115t158 39q52 0 97 -8v19q0 69 -25 105.5t-90 36.5q-77 0 -143 -54l-20 37q33 27 81 42t95 15q89 0 132.5 -46.5zM311 73.5q39 42.5 39 123.5v39
q-47 7 -73 7q-77 0 -118.5 -29t-41.5 -85q0 -45 27 -71.5t71 -26.5q57 0 96 42.5zM197 534q41 44 119 116l54 -39q-83 -45 -159 -95z" />
    <glyph glyph-name="acircumflex" unicode="&#xe2;" horiz-adv-x="490" 
d="M380.5 422.5q43.5 -46.5 43.5 -143.5v-279h-49l-22 79q-22 -47 -63.5 -70t-95.5 -23q-65 0 -111 34.5t-46 101.5q0 76 58 115t158 39q52 0 97 -8v19q0 69 -25 105.5t-90 36.5q-77 0 -143 -54l-20 37q33 27 81 42t95 15q89 0 132.5 -46.5zM311 73.5q39 42.5 39 123.5v39
q-47 7 -73 7q-77 0 -118.5 -29t-41.5 -85q0 -45 27 -71.5t71 -26.5q57 0 96 42.5zM348 532q-52 32 -106 73q-56 -41 -106 -73l-17 19q60 54 112 110h23q52 -56 112 -110z" />
    <glyph glyph-name="atilde" unicode="&#xe3;" horiz-adv-x="490" 
d="M380.5 422.5q43.5 -46.5 43.5 -143.5v-279h-49l-22 79q-22 -47 -63.5 -70t-95.5 -23q-65 0 -111 34.5t-46 101.5q0 76 58 115t158 39q52 0 97 -8v19q0 69 -25 105.5t-90 36.5q-77 0 -143 -54l-20 37q33 27 81 42t95 15q89 0 132.5 -46.5zM311 73.5q39 42.5 39 123.5v39
q-47 7 -73 7q-77 0 -118.5 -29t-41.5 -85q0 -45 27 -71.5t71 -26.5q57 0 96 42.5zM263.5 536.5q-10.5 4.5 -22.5 13.5l-35 27q-16 13 -31 13q-13 0 -23.5 -13t-23.5 -41l-26 16q38 87 83 87q15 0 24.5 -4t22.5 -14l36 -23q20 -14 31 -14q12 0 22 11.5t24 37.5l26 -14
q-16 -40 -37 -63.5t-45 -23.5q-15 0 -25.5 4.5z" />
    <glyph glyph-name="adieresis" unicode="&#xe4;" horiz-adv-x="490" 
d="M380.5 422.5q43.5 -46.5 43.5 -143.5v-279h-49l-22 79q-22 -47 -63.5 -70t-95.5 -23q-65 0 -111 34.5t-46 101.5q0 76 58 115t158 39q52 0 97 -8v19q0 69 -25 105.5t-90 36.5q-77 0 -143 -54l-20 37q33 27 81 42t95 15q89 0 132.5 -46.5zM311 73.5q39 42.5 39 123.5v39
q-47 7 -73 7q-77 0 -118.5 -29t-41.5 -85q0 -45 27 -71.5t71 -26.5q57 0 96 42.5zM125 554q-12 13 -12 32q0 21 12 34t33 13q20 0 33 -13t13 -33q0 -18 -13.5 -32t-33.5 -14t-32 13zM294.5 554q-12.5 13 -12.5 32q0 21 13 34t34 13q20 0 32 -13t12 -33q0 -19 -12.5 -32.5
t-32.5 -13.5q-21 0 -33.5 13z" />
    <glyph glyph-name="aring" unicode="&#xe5;" horiz-adv-x="490" 
d="M380.5 422.5q43.5 -46.5 43.5 -143.5v-279h-49l-22 79q-22 -47 -63.5 -70t-95.5 -23q-65 0 -111 34.5t-46 101.5q0 76 58 115t158 39q52 0 97 -8v19q0 69 -25 105.5t-90 36.5q-77 0 -143 -54l-20 37q33 27 81 42t95 15q89 0 132.5 -46.5zM311 73.5q39 42.5 39 123.5v39
q-47 7 -73 7q-77 0 -118.5 -29t-41.5 -85q0 -45 27 -71.5t71 -26.5q57 0 96 42.5zM177.5 534q-23.5 18 -23.5 52t26 55t62 21q42 0 66 -19t24 -54q0 -33 -26.5 -53t-62.5 -20q-42 0 -65.5 18zM273.5 553.5q11.5 15.5 11.5 36.5t-9.5 36t-32.5 15q-20 0 -31 -15.5t-11 -36.5
q0 -51 42 -51q19 0 30.5 15.5z" />
    <glyph glyph-name="ae" unicode="&#xe6;" horiz-adv-x="786" 
d="M741 234h-314q2 -90 42 -148t119 -58q35 0 62 9.5t56 30.5l19 -30q-63 -52 -153 -52q-72 0 -121.5 29.5t-75.5 80.5q-22 -55 -70.5 -82.5t-110.5 -27.5q-65 0 -111 34.5t-46 101.5q0 71 58 108t158 37h98v18q0 71 -24.5 107.5t-89.5 36.5q-38 0 -75.5 -14t-69.5 -40
l-20 37q34 27 82 42t95 15q113 0 153 -74q29 35 70.5 54.5t90.5 19.5q91 0 136 -57t45 -146q0 -17 -3 -32zM466.5 389.5q-35.5 -48.5 -39.5 -123.5h233q2 10 2 26q0 58 -24.5 102t-77.5 44q-58 0 -93.5 -48.5zM311.5 73.5q39.5 42.5 39.5 123.5v36h-74q-77 0 -118.5 -27
t-41.5 -81q0 -43 27 -68.5t71 -25.5q57 0 96.5 42.5z" />
    <glyph glyph-name="ccedilla" unicode="&#xe7;" horiz-adv-x="443" 
d="M326.5 -66.5q19.5 -17.5 19.5 -47.5q0 -34 -24.5 -54.5t-65.5 -20.5q-33 0 -59 13l10 32q19 -11 47 -11q16 0 28.5 8t12.5 25q0 16 -11 23.5t-28 8.5q-20 0 -33 -4l23 81q-96 9 -147.5 72t-51.5 163q0 69 30.5 125.5t85.5 89t125 32.5q78 0 130 -35l-20 -37
q-45 36 -100 36q-58 0 -95.5 -30.5t-55 -77.5t-17.5 -96q0 -91 41.5 -146t123.5 -55q63 0 107 39l19 -30q-24 -22 -61.5 -36t-79.5 -15l-11 -35h7q31 0 50.5 -17.5z" />
    <glyph glyph-name="egrave" unicode="&#xe8;" horiz-adv-x="494" 
d="M449 234h-321q2 -90 42.5 -148t120.5 -58q37 0 65.5 9.5t57.5 30.5l19 -30q-63 -52 -158 -52q-77 0 -128 33t-75.5 87.5t-24.5 121.5q0 65 27 120t77 88t115 33q94 0 140 -57t46 -146q0 -17 -3 -32zM168 389q-36 -49 -40 -123h240q2 10 2 26q0 59 -25 102.5t-83 43.5
t-94 -49zM124 603l49 50q57 -44 138 -117l-16 -20q-88 49 -171 87z" />
    <glyph glyph-name="eacute" unicode="&#xe9;" horiz-adv-x="494" 
d="M449 234h-321q2 -90 42.5 -148t120.5 -58q37 0 65.5 9.5t57.5 30.5l19 -30q-63 -52 -158 -52q-77 0 -128 33t-75.5 87.5t-24.5 121.5q0 65 27 120t77 88t115 33q94 0 140 -57t46 -146q0 -17 -3 -32zM168 389q-36 -49 -40 -123h240q2 10 2 26q0 59 -25 102.5t-83 43.5
t-94 -49zM214 534q41 44 119 116l54 -39q-83 -45 -159 -95z" />
    <glyph glyph-name="ecircumflex" unicode="&#xea;" horiz-adv-x="494" 
d="M449 234h-321q2 -90 42.5 -148t120.5 -58q37 0 65.5 9.5t57.5 30.5l19 -30q-63 -52 -158 -52q-77 0 -128 33t-75.5 87.5t-24.5 121.5q0 65 27 120t77 88t115 33q94 0 140 -57t46 -146q0 -17 -3 -32zM168 389q-36 -49 -40 -123h240q2 10 2 26q0 59 -25 102.5t-83 43.5
t-94 -49zM365 532q-52 32 -106 73q-56 -41 -106 -73l-17 19q60 54 112 110h23q52 -56 112 -110z" />
    <glyph glyph-name="edieresis" unicode="&#xeb;" horiz-adv-x="494" 
d="M449 234h-321q2 -90 42.5 -148t120.5 -58q37 0 65.5 9.5t57.5 30.5l19 -30q-63 -52 -158 -52q-77 0 -128 33t-75.5 87.5t-24.5 121.5q0 65 27 120t77 88t115 33q94 0 140 -57t46 -146q0 -17 -3 -32zM168 389q-36 -49 -40 -123h240q2 10 2 26q0 59 -25 102.5t-83 43.5
t-94 -49zM142 554q-12 13 -12 32q0 21 12 34t33 13q20 0 33 -13t13 -33q0 -18 -13.5 -32t-33.5 -14t-32 13zM311.5 554q-12.5 13 -12.5 32q0 21 13 34t34 13q20 0 32 -13t12 -33q0 -19 -12.5 -32.5t-32.5 -13.5q-21 0 -33.5 13z" />
    <glyph glyph-name="igrave" unicode="&#xec;" horiz-adv-x="250" 
d="M87 456h76v-456h-76v456zM-10 603l49 50q57 -44 138 -117l-16 -20q-88 49 -171 87z" />
    <glyph glyph-name="iacute" unicode="&#xed;" horiz-adv-x="250" 
d="M87 456h76v-456h-76v456zM80 534q41 44 119 116l54 -39q-83 -45 -159 -95z" />
    <glyph glyph-name="icircumflex" unicode="&#xee;" horiz-adv-x="250" 
d="M87 456h76v-456h-76v456zM231 532q-52 32 -106 73q-56 -41 -106 -73l-17 19q60 54 112 110h23q52 -56 112 -110z" />
    <glyph glyph-name="idieresis" unicode="&#xef;" horiz-adv-x="250" 
d="M87 456h76v-456h-76v456zM8 554q-12 13 -12 32q0 21 12 34t33 13q20 0 33 -13t13 -33q0 -18 -13.5 -32t-33.5 -14t-32 13zM177.5 554q-12.5 13 -12.5 32q0 21 13 34t34 13q20 0 32 -13t12 -33q0 -19 -12.5 -32.5t-32.5 -13.5q-21 0 -33.5 13z" />
    <glyph glyph-name="eth" unicode="&#xf0;" horiz-adv-x="534" 
d="M451 462q36 -82 36 -182q0 -93 -28.5 -159.5t-80.5 -100.5t-121 -34q-93 0 -151.5 60.5t-58.5 176.5q0 71 31.5 125.5t82.5 83.5t109 29q35 0 67 -11.5t54 -33.5q-25 103 -93 160l-150 -68l-13 30l133 60q-54 35 -137 50l11 25q96 -12 169 -55l120 55l15 -30l-102 -46
q71 -53 107 -135zM369.5 89.5q36.5 65.5 36.5 186.5q0 43 -4 75q-25 38 -57.5 54.5t-66.5 16.5q-52 0 -85.5 -29.5t-49 -75t-15.5 -93.5q0 -55 16 -101t45.5 -72.5t67.5 -26.5q76 0 112.5 65.5z" />
    <glyph glyph-name="ntilde" unicode="&#xf1;" horiz-adv-x="553" 
d="M440 416q40 -53 40 -143v-273h-77v247q0 79 -20 129t-84 50t-101.5 -53.5t-37.5 -148.5v-224h-77v456h50l23 -85q24 49 67 73.5t94 24.5q83 0 123 -53zM315.5 536.5q-10.5 4.5 -22.5 13.5l-35 27q-16 13 -31 13q-13 0 -23.5 -13t-23.5 -41l-26 16q38 87 83 87
q15 0 24.5 -4t22.5 -14l36 -23q20 -14 31 -14q12 0 22 11.5t24 37.5l26 -14q-16 -40 -37 -63.5t-45 -23.5q-15 0 -25.5 4.5z" />
    <glyph glyph-name="ograve" unicode="&#xf2;" horiz-adv-x="541" 
d="M107.5 49q-60.5 63 -60.5 178q0 71 31 126t82.5 85.5t110.5 30.5q102 0 162.5 -63t60.5 -177q0 -71 -31 -126.5t-82.5 -86t-110.5 -30.5q-102 0 -162.5 63zM375 80q37 61 37 149q0 89 -34.5 148t-106.5 59q-68 0 -105.5 -60.5t-37.5 -147.5q0 -90 35 -149.5t107 -59.5
q68 0 105 61zM134 603l49 50q57 -44 138 -117l-16 -20q-88 49 -171 87z" />
    <glyph glyph-name="oacute" unicode="&#xf3;" horiz-adv-x="541" 
d="M107.5 49q-60.5 63 -60.5 178q0 71 31 126t82.5 85.5t110.5 30.5q102 0 162.5 -63t60.5 -177q0 -71 -31 -126.5t-82.5 -86t-110.5 -30.5q-102 0 -162.5 63zM375 80q37 61 37 149q0 89 -34.5 148t-106.5 59q-68 0 -105.5 -60.5t-37.5 -147.5q0 -90 35 -149.5t107 -59.5
q68 0 105 61zM224 534q41 44 119 116l54 -39q-83 -45 -159 -95z" />
    <glyph glyph-name="ocircumflex" unicode="&#xf4;" horiz-adv-x="541" 
d="M107.5 49q-60.5 63 -60.5 178q0 71 31 126t82.5 85.5t110.5 30.5q102 0 162.5 -63t60.5 -177q0 -71 -31 -126.5t-82.5 -86t-110.5 -30.5q-102 0 -162.5 63zM375 80q37 61 37 149q0 89 -34.5 148t-106.5 59q-68 0 -105.5 -60.5t-37.5 -147.5q0 -90 35 -149.5t107 -59.5
q68 0 105 61zM375 532q-52 32 -106 73q-56 -41 -106 -73l-17 19q60 54 112 110h23q52 -56 112 -110z" />
    <glyph glyph-name="otilde" unicode="&#xf5;" horiz-adv-x="541" 
d="M107.5 49q-60.5 63 -60.5 178q0 71 31 126t82.5 85.5t110.5 30.5q102 0 162.5 -63t60.5 -177q0 -71 -31 -126.5t-82.5 -86t-110.5 -30.5q-102 0 -162.5 63zM375 80q37 61 37 149q0 89 -34.5 148t-106.5 59q-68 0 -105.5 -60.5t-37.5 -147.5q0 -90 35 -149.5t107 -59.5
q68 0 105 61zM290.5 536.5q-10.5 4.5 -22.5 13.5l-35 27q-16 13 -31 13q-13 0 -23.5 -13t-23.5 -41l-26 16q38 87 83 87q15 0 24.5 -4t22.5 -14l36 -23q20 -14 31 -14q12 0 22 11.5t24 37.5l26 -14q-16 -40 -37 -63.5t-45 -23.5q-15 0 -25.5 4.5z" />
    <glyph glyph-name="odieresis" unicode="&#xf6;" horiz-adv-x="541" 
d="M107.5 49q-60.5 63 -60.5 178q0 71 31 126t82.5 85.5t110.5 30.5q102 0 162.5 -63t60.5 -177q0 -71 -31 -126.5t-82.5 -86t-110.5 -30.5q-102 0 -162.5 63zM375 80q37 61 37 149q0 89 -34.5 148t-106.5 59q-68 0 -105.5 -60.5t-37.5 -147.5q0 -90 35 -149.5t107 -59.5
q68 0 105 61zM152 554q-12 13 -12 32q0 21 12 34t33 13q20 0 33 -13t13 -33q0 -18 -13.5 -32t-33.5 -14t-32 13zM321.5 554q-12.5 13 -12.5 32q0 21 13 34t34 13q20 0 32 -13t12 -33q0 -19 -12.5 -32.5t-32.5 -13.5q-21 0 -33.5 13z" />
    <glyph glyph-name="divide" unicode="&#xf7;" horiz-adv-x="524" 
d="M227.5 356q-14.5 15 -14.5 36t14 35.5t35 14.5t35.5 -14.5t14.5 -35.5t-14.5 -36t-35.5 -15q-20 0 -34.5 15zM55 250h414v-42h-414v42zM227.5 29.5q-14.5 14.5 -14.5 35.5t14 36t35 15t35.5 -15t14.5 -36t-14.5 -35.5t-35.5 -14.5q-20 0 -34.5 14.5z" />
    <glyph glyph-name="oslash" unicode="&#xf8;" horiz-adv-x="541" 
d="M441 399q54 -62 54 -170q0 -71 -31 -126.5t-82.5 -86t-110.5 -30.5q-84 0 -143 45l-38 -45h-48l59 70q-54 65 -54 171q0 71 31 126t83 85.5t111 30.5q86 0 142 -44l38 44h48zM148 111l228 270q-37 55 -104 55q-68 0 -106 -60.5t-38 -147.5q0 -68 20 -117zM394 344
l-228 -269q38 -56 105 -56q68 0 105.5 61.5t37.5 148.5q0 68 -20 115z" />
    <glyph glyph-name="ugrave" unicode="&#xf9;" horiz-adv-x="551" 
d="M470 456v-456h-50l-23 84q-24 -48 -67 -73t-90 -25q-84 0 -124 53t-40 144v273h76v-247q0 -79 20 -129t85 -50q63 0 99.5 54.5t36.5 149.5v222h77zM138 603l49 50q57 -44 138 -117l-16 -20q-88 49 -171 87z" />
    <glyph glyph-name="uacute" unicode="&#xfa;" horiz-adv-x="551" 
d="M470 456v-456h-50l-23 84q-24 -48 -67 -73t-90 -25q-84 0 -124 53t-40 144v273h76v-247q0 -79 20 -129t85 -50q63 0 99.5 54.5t36.5 149.5v222h77zM228 534q41 44 119 116l54 -39q-83 -45 -159 -95z" />
    <glyph glyph-name="ucircumflex" unicode="&#xfb;" horiz-adv-x="551" 
d="M470 456v-456h-50l-23 84q-24 -48 -67 -73t-90 -25q-84 0 -124 53t-40 144v273h76v-247q0 -79 20 -129t85 -50q63 0 99.5 54.5t36.5 149.5v222h77zM379 532q-52 32 -106 73q-56 -41 -106 -73l-17 19q60 54 112 110h23q52 -56 112 -110z" />
    <glyph glyph-name="udieresis" unicode="&#xfc;" horiz-adv-x="551" 
d="M470 456v-456h-50l-23 84q-24 -48 -67 -73t-90 -25q-84 0 -124 53t-40 144v273h76v-247q0 -79 20 -129t85 -50q63 0 99.5 54.5t36.5 149.5v222h77zM156 554q-12 13 -12 32q0 21 12 34t33 13q20 0 33 -13t13 -33q0 -18 -13.5 -32t-33.5 -14t-32 13zM325.5 554
q-12.5 13 -12.5 32q0 21 13 34t34 13q20 0 32 -13t12 -33q0 -19 -12.5 -32.5t-32.5 -13.5q-21 0 -33.5 13z" />
    <glyph glyph-name="yacute" unicode="&#xfd;" horiz-adv-x="535" 
d="M470 456v-406q0 -252 -226 -252q-76 0 -136 35l21 39q29 -17 61 -25.5t60 -8.5q79 0 111.5 48t32.5 138v68q-18 -46 -60 -72.5t-91 -26.5q-167 0 -167 198v265h76v-242q0 -77 21.5 -127t86.5 -50q60 0 96.5 54t36.5 147v218h77zM221 534q41 44 119 116l54 -39
q-83 -45 -159 -95z" />
    <glyph glyph-name="thorn" unicode="&#xfe;" horiz-adv-x="554" 
d="M454.5 410q53.5 -59 53.5 -169q0 -79 -28 -136.5t-75 -88t-105 -30.5q-46 0 -83.5 18.5t-58.5 55.5v-249h-76v848h76v-265q31 38 71.5 56.5t84.5 18.5q87 0 140.5 -59zM393 89.5q33 60.5 33 147.5q0 83 -29 137t-101 54q-41 0 -78.5 -23t-59.5 -66v-133q0 -87 35.5 -132
t94.5 -45q72 0 105 60.5z" />
    <glyph glyph-name="ydieresis" unicode="&#xff;" horiz-adv-x="535" 
d="M470 456v-406q0 -252 -226 -252q-76 0 -136 35l21 39q29 -17 61 -25.5t60 -8.5q79 0 111.5 48t32.5 138v68q-18 -46 -60 -72.5t-91 -26.5q-167 0 -167 198v265h76v-242q0 -77 21.5 -127t86.5 -50q60 0 96.5 54t36.5 147v218h77zM149 554q-12 13 -12 32q0 21 12 34t33 13
q20 0 33 -13t13 -33q0 -18 -13.5 -32t-33.5 -14t-32 13zM318.5 554q-12.5 13 -12.5 32q0 21 13 34t34 13q20 0 32 -13t12 -33q0 -19 -12.5 -32.5t-32.5 -13.5q-21 0 -33.5 13z" />
    <glyph glyph-name="Amacron" unicode="&#x100;" horiz-adv-x="584" 
d="M399 191h-234l-70 -191h-60l249 614h42l229 -614h-88zM387 226l-103 291l-106 -291h209zM185 746h230v-43h-230v43z" />
    <glyph glyph-name="amacron" unicode="&#x101;" horiz-adv-x="490" 
d="M380.5 422.5q43.5 -46.5 43.5 -143.5v-279h-49l-22 79q-22 -47 -63.5 -70t-95.5 -23q-65 0 -111 34.5t-46 101.5q0 76 58 115t158 39q52 0 97 -8v19q0 69 -25 105.5t-90 36.5q-77 0 -143 -54l-20 37q33 27 81 42t95 15q89 0 132.5 -46.5zM311 73.5q39 42.5 39 123.5v39
q-47 7 -73 7q-77 0 -118.5 -29t-41.5 -85q0 -45 27 -71.5t71 -26.5q57 0 96 42.5zM128 612h230v-43h-230v43z" />
    <glyph glyph-name="Abreve" unicode="&#x102;" horiz-adv-x="584" 
d="M399 191h-234l-70 -191h-60l249 614h42l229 -614h-88zM387 226l-103 291l-106 -291h209zM226.5 695.5q-34.5 22.5 -51.5 62.5l23 12q42 -47 104 -47q31 0 54.5 12t46.5 37l21 -13q-17 -41 -50.5 -63.5t-73.5 -22.5q-39 0 -73.5 22.5z" />
    <glyph glyph-name="abreve" unicode="&#x103;" horiz-adv-x="490" 
d="M380.5 422.5q43.5 -46.5 43.5 -143.5v-279h-49l-22 79q-22 -47 -63.5 -70t-95.5 -23q-65 0 -111 34.5t-46 101.5q0 76 58 115t158 39q52 0 97 -8v19q0 69 -25 105.5t-90 36.5q-77 0 -143 -54l-20 37q33 27 81 42t95 15q89 0 132.5 -46.5zM311 73.5q39 42.5 39 123.5v39
q-47 7 -73 7q-77 0 -118.5 -29t-41.5 -85q0 -45 27 -71.5t71 -26.5q57 0 96 42.5zM171.5 552.5q-32.5 24.5 -49.5 75.5l23 11q20 -34 45 -47.5t56 -13.5q30 0 52.5 14t44.5 48l21 -11q-17 -52 -48.5 -76.5t-71.5 -24.5t-72.5 24.5z" />
    <glyph glyph-name="Aogonek" unicode="&#x104;" horiz-adv-x="584" 
d="M543 -140l11 -26q-31 -23 -70 -23q-29 0 -47 15.5t-18 43.5q0 57 98 130h-50l-67 191h-235l-70 -191h-60l249 614h42l229 -614q-36 -27 -55.5 -57.5t-19.5 -57.5q0 -16 8.5 -24.5t22.5 -8.5q16 0 32 8zM387 226l-102 290l-107 -290h209z" />
    <glyph glyph-name="aogonek" unicode="&#x105;" horiz-adv-x="490" 
d="M367.5 -57.5q-19.5 -30.5 -19.5 -57.5q0 -16 8.5 -24.5t23.5 -8.5q16 0 32 8l11 -26q-31 -23 -70 -23q-29 0 -47 15.5t-18 43.5q0 57 98 130h-11l-22 79q-22 -47 -63.5 -70t-95.5 -23q-65 0 -111 34.5t-46 101.5q0 76 58 115t158 39q52 0 97 -8v19q0 69 -25 105.5
t-90 36.5q-77 0 -143 -54l-20 37q33 27 81 42t95 15q89 0 132.5 -46.5t43.5 -143.5v-279q-37 -27 -56.5 -57.5zM311 73.5q39 42.5 39 123.5v39q-47 7 -73 7q-77 0 -118.5 -29t-41.5 -85q0 -45 27 -71.5t71 -26.5q57 0 96 42.5z" />
    <glyph glyph-name="Cacute" unicode="&#x106;" horiz-adv-x="563" 
d="M206.5 23q-69.5 37 -107.5 107.5t-38 168.5q0 99 42.5 173.5t115.5 114.5t162 40q98 0 167 -39l-24 -42q-64 41 -143 41q-72 0 -124.5 -37t-80 -100t-27.5 -141q0 -125 59 -203t167 -78q94 0 155 49l21 -34q-76 -57 -182 -57q-93 0 -162.5 37zM311 682q47 44 134 108
l54 -41q-69 -31 -176 -84z" />
    <glyph glyph-name="cacute" unicode="&#x107;" horiz-adv-x="443" 
d="M106.5 50.5q-59.5 64.5 -59.5 171.5q0 69 30.5 125.5t85.5 89t125 32.5q78 0 130 -35l-20 -37q-45 36 -100 36q-58 0 -95.5 -30.5t-55 -77.5t-17.5 -96q0 -91 41.5 -146t123.5 -55q63 0 107 39l19 -30q-24 -23 -64 -37t-83 -14q-108 0 -167.5 64.5zM230 534
q41 44 119 116l54 -39q-83 -45 -159 -95z" />
    <glyph glyph-name="Ccircumflex" unicode="&#x108;" horiz-adv-x="563" 
d="M206.5 23q-69.5 37 -107.5 107.5t-38 168.5q0 99 42.5 173.5t115.5 114.5t162 40q98 0 167 -39l-24 -42q-64 41 -143 41q-72 0 -124.5 -37t-80 -100t-27.5 -141q0 -125 59 -203t167 -78q94 0 155 49l21 -34q-76 -57 -182 -57q-93 0 -162.5 37zM464 674l-29 18
q-52 32 -77 49l-53 -33q-46 -30 -52 -34l-17 19l24 21q70 63 88 81h23q18 -18 88 -81l24 -21z" />
    <glyph glyph-name="ccircumflex" unicode="&#x109;" horiz-adv-x="443" 
d="M106.5 50.5q-59.5 64.5 -59.5 171.5q0 69 30.5 125.5t85.5 89t125 32.5q78 0 130 -35l-20 -37q-45 36 -100 36q-58 0 -95.5 -30.5t-55 -77.5t-17.5 -96q0 -91 41.5 -146t123.5 -55q63 0 107 39l19 -30q-24 -23 -64 -37t-83 -14q-108 0 -167.5 64.5zM381 532
q-52 32 -106 73q-56 -41 -106 -73l-17 19q60 54 112 110h23q52 -56 112 -110z" />
    <glyph glyph-name="Cdotaccent" unicode="&#x10a;" horiz-adv-x="563" 
d="M206.5 23q-69.5 37 -107.5 107.5t-38 168.5q0 99 42.5 173.5t115.5 114.5t162 40q98 0 167 -39l-24 -42q-64 41 -143 41q-72 0 -124.5 -37t-80 -100t-27.5 -141q0 -125 59 -203t167 -78q94 0 155 49l21 -34q-76 -57 -182 -57q-93 0 -162.5 37zM320.5 695
q-13.5 13 -13.5 34t13.5 35t38.5 14t39 -13.5t14 -34.5t-14.5 -34.5t-38.5 -13.5q-25 0 -38.5 13z" />
    <glyph glyph-name="cdotaccent" unicode="&#x10b;" horiz-adv-x="443" 
d="M106.5 50.5q-59.5 64.5 -59.5 171.5q0 69 30.5 125.5t85.5 89t125 32.5q78 0 130 -35l-20 -37q-45 36 -100 36q-58 0 -95.5 -30.5t-55 -77.5t-17.5 -96q0 -91 41.5 -146t123.5 -55q63 0 107 39l19 -30q-24 -23 -64 -37t-83 -14q-108 0 -167.5 64.5zM236.5 555
q-13.5 13 -13.5 34t13.5 35t38.5 14t39 -13.5t14 -34.5t-14.5 -34.5t-38.5 -13.5q-25 0 -38.5 13z" />
    <glyph glyph-name="Ccaron" unicode="&#x10c;" horiz-adv-x="563" 
d="M206.5 23q-69.5 37 -107.5 107.5t-38 168.5q0 99 42.5 173.5t115.5 114.5t162 40q98 0 167 -39l-24 -42q-64 41 -143 41q-72 0 -124.5 -37t-80 -100t-27.5 -141q0 -125 59 -203t167 -78q94 0 155 49l21 -34q-76 -57 -182 -57q-93 0 -162.5 37zM483 771q-77 -69 -112 -102
h-23q-18 18 -88 81l-24 21l19 19q72 -44 106 -67l62 40l44 27z" />
    <glyph glyph-name="ccaron" unicode="&#x10d;" horiz-adv-x="443" 
d="M106.5 50.5q-59.5 64.5 -59.5 171.5q0 69 30.5 125.5t85.5 89t125 32.5q78 0 130 -35l-20 -37q-45 36 -100 36q-58 0 -95.5 -30.5t-55 -77.5t-17.5 -96q0 -91 41.5 -146t123.5 -55q63 0 107 39l19 -30q-24 -23 -64 -37t-83 -14q-108 0 -167.5 64.5zM399 641
q-70 -64 -112 -110h-23q-51 54 -112 110l18 19q56 -36 106 -74q60 45 106 74z" />
    <glyph glyph-name="Dcaron" unicode="&#x10e;" horiz-adv-x="676" 
d="M539 537.5q87 -83.5 87 -219.5q0 -92 -38 -165.5t-121.5 -117.5t-212.5 -44q-80 0 -153 11v609q60 10 156 10q195 0 282 -83.5zM476 109.5q64 81.5 64 206.5q0 118 -66.5 194t-226.5 76q-40 0 -66 -5v-546q38 -7 79 -7q152 0 216 81.5zM433 771q-77 -69 -112 -102h-23
q-18 18 -88 81l-24 21l19 19q72 -44 106 -67l62 40l44 27z" />
    <glyph glyph-name="dcaron" unicode="&#x10f;" horiz-adv-x="564" 
d="M472 659v-659h-48l-24 85q-17 -45 -59.5 -72t-96.5 -27q-90 0 -143.5 63t-53.5 174q0 76 30 132t80 85t108 29q84 0 131 -57v247h76zM359.5 81q36.5 53 36.5 143v133q-23 38 -55 55.5t-67 17.5q-71 0 -108.5 -59t-37.5 -145q0 -50 14.5 -95.5t44 -74t71.5 -28.5
q65 0 101.5 53zM527 509q1 60 10 150h67q-32 -95 -46 -150h-31z" />
    <glyph glyph-name="Dcroat" unicode="&#x110;" horiz-adv-x="689" 
d="M552 537.5q87 -83.5 87 -219.5q0 -92 -38 -165.5t-121.5 -117.5t-212.5 -44q-80 0 -153 11v300h-79v35h79v274q60 10 156 10q195 0 282 -83.5zM489 109.5q64 81.5 64 206.5q0 118 -66.5 194t-226.5 76q-40 0 -66 -5v-244h156v-35h-156v-267q38 -7 79 -7q152 0 216 81.5z
" />
    <glyph glyph-name="dcroat" unicode="&#x111;" horiz-adv-x="555" 
d="M554 541h-82v-541h-48l-24 85q-17 -45 -59.5 -72t-96.5 -27q-90 0 -143.5 63t-53.5 174q0 76 30 132t80 85t108 29q84 0 131 -57v129h-137v32h137v86h76v-86h82v-32zM359.5 81q36.5 53 36.5 143v133q-23 38 -55 55.5t-67 17.5q-71 0 -108.5 -59t-37.5 -145
q0 -50 14.5 -95.5t44 -74t71.5 -28.5q65 0 101.5 53z" />
    <glyph glyph-name="Emacron" unicode="&#x112;" horiz-adv-x="499" 
d="M456 46v-46h-355v614h350v-47q-84 8 -183 8h-89v-246h45q98 0 177 4v-46q-74 5 -177 5h-45v-253h99q95 0 178 7zM166 746h230v-43h-230v43z" />
    <glyph glyph-name="emacron" unicode="&#x113;" horiz-adv-x="494" 
d="M449 234h-321q2 -90 42.5 -148t120.5 -58q37 0 65.5 9.5t57.5 30.5l19 -30q-63 -52 -158 -52q-77 0 -128 33t-75.5 87.5t-24.5 121.5q0 65 27 120t77 88t115 33q94 0 140 -57t46 -146q0 -17 -3 -32zM168 389q-36 -49 -40 -123h240q2 10 2 26q0 59 -25 102.5t-83 43.5
t-94 -49zM145 612h230v-43h-230v43z" />
    <glyph glyph-name="Ebreve" unicode="&#x114;" horiz-adv-x="499" 
d="M456 46v-46h-355v614h350v-47q-84 8 -183 8h-89v-246h45q98 0 177 4v-46q-74 5 -177 5h-45v-253h99q95 0 178 7zM207.5 695.5q-34.5 22.5 -51.5 62.5l23 12q42 -47 104 -47q31 0 54.5 12t46.5 37l21 -13q-17 -41 -50.5 -63.5t-73.5 -22.5q-39 0 -73.5 22.5z" />
    <glyph glyph-name="ebreve" unicode="&#x115;" horiz-adv-x="494" 
d="M449 234h-321q2 -90 42.5 -148t120.5 -58q37 0 65.5 9.5t57.5 30.5l19 -30q-63 -52 -158 -52q-77 0 -128 33t-75.5 87.5t-24.5 121.5q0 65 27 120t77 88t115 33q94 0 140 -57t46 -146q0 -17 -3 -32zM168 389q-36 -49 -40 -123h240q2 10 2 26q0 59 -25 102.5t-83 43.5
t-94 -49zM188.5 552.5q-32.5 24.5 -49.5 75.5l23 11q20 -34 45 -47.5t56 -13.5q30 0 52.5 14t44.5 48l21 -11q-17 -52 -48.5 -76.5t-71.5 -24.5t-72.5 24.5z" />
    <glyph glyph-name="Edotaccent" unicode="&#x116;" horiz-adv-x="499" 
d="M456 46v-46h-355v614h350v-47q-84 8 -183 8h-89v-246h45q98 0 177 4v-46q-74 5 -177 5h-45v-253h99q95 0 178 7zM241.5 695q-13.5 13 -13.5 34t13.5 35t38.5 14t39 -13.5t14 -34.5t-14.5 -34.5t-38.5 -13.5q-25 0 -38.5 13z" />
    <glyph glyph-name="edotaccent" unicode="&#x117;" horiz-adv-x="494" 
d="M449 234h-321q2 -90 42.5 -148t120.5 -58q37 0 65.5 9.5t57.5 30.5l19 -30q-63 -52 -158 -52q-77 0 -128 33t-75.5 87.5t-24.5 121.5q0 65 27 120t77 88t115 33q94 0 140 -57t46 -146q0 -17 -3 -32zM168 389q-36 -49 -40 -123h240q2 10 2 26q0 59 -25 102.5t-83 43.5
t-94 -49zM220.5 555q-13.5 13 -13.5 34t13.5 35t38.5 14t39 -13.5t14 -34.5t-14.5 -34.5t-38.5 -13.5q-25 0 -38.5 13z" />
    <glyph glyph-name="Eogonek" unicode="&#x118;" horiz-adv-x="499" 
d="M399.5 -57.5q-19.5 -30.5 -19.5 -57.5q0 -16 8.5 -24.5t23.5 -8.5q16 0 32 8l11 -26q-31 -23 -70 -23q-29 0 -47 15.5t-18 43.5q0 57 98 130h-317v614h350v-47q-84 8 -183 8h-89v-246h45q98 0 177 4v-46q-74 5 -177 5h-45v-253h99q95 0 178 7v-46q-37 -27 -56.5 -57.5z
" />
    <glyph glyph-name="eogonek" unicode="&#x119;" horiz-adv-x="494" 
d="M449 234h-321q2 -90 42.5 -148t120.5 -58q37 0 65.5 9.5t57.5 30.5l19 -30q-41 -39 -65.5 -78.5t-24.5 -73.5q0 -16 8.5 -25t23.5 -9q16 0 32 8l12 -26q-31 -23 -66 -23q-33 0 -51.5 15t-18.5 44q0 54 71 126q-38 -10 -79 -10q-77 0 -128 33t-75.5 87.5t-24.5 121.5
q0 65 27 120t77 88t115 33q94 0 140 -57t46 -146q0 -17 -3 -32zM168 389q-36 -49 -40 -123h240q2 10 2 26q0 59 -25 102.5t-83 43.5t-94 -49z" />
    <glyph glyph-name="Ecaron" unicode="&#x11a;" horiz-adv-x="499" 
d="M456 46v-46h-355v614h350v-47q-84 8 -183 8h-89v-246h45q98 0 177 4v-46q-74 5 -177 5h-45v-253h99q95 0 178 7zM404 771q-77 -69 -112 -102h-23q-18 18 -88 81l-24 21l19 19q72 -44 106 -67l62 40l44 27z" />
    <glyph glyph-name="ecaron" unicode="&#x11b;" horiz-adv-x="494" 
d="M449 234h-321q2 -90 42.5 -148t120.5 -58q37 0 65.5 9.5t57.5 30.5l19 -30q-63 -52 -158 -52q-77 0 -128 33t-75.5 87.5t-24.5 121.5q0 65 27 120t77 88t115 33q94 0 140 -57t46 -146q0 -17 -3 -32zM168 389q-36 -49 -40 -123h240q2 10 2 26q0 59 -25 102.5t-83 43.5
t-94 -49zM383 641q-70 -64 -112 -110h-23q-51 54 -112 110l18 19q56 -36 106 -74q60 45 106 74z" />
    <glyph glyph-name="Gcircumflex" unicode="&#x11c;" horiz-adv-x="648" 
d="M588 312v-260q-37 -31 -97 -48.5t-120 -17.5q-89 0 -159.5 37t-110.5 108t-40 169q0 96 42 170.5t116 115.5t167 41q117 0 191 -49l-26 -41q-71 50 -164 50q-76 0 -130 -35t-82 -97.5t-28 -144.5q0 -76 27.5 -140t81.5 -102.5t129 -38.5q70 0 126 33v213h-146v37h223z
M465 674l-29 18q-52 32 -77 49l-53 -33q-46 -30 -52 -34l-17 19l24 21q70 63 88 81h23q18 -18 88 -81l24 -21z" />
    <glyph glyph-name="gcircumflex" unicode="&#x11d;" horiz-adv-x="533" 
d="M472 456v-414q0 -115 -56 -179.5t-167 -64.5q-80 0 -140 35l21 39q29 -17 60.5 -25.5t60.5 -8.5q79 0 112 47t33 137v62q-17 -41 -60 -66t-96 -25q-91 0 -142 63t-51 171q0 76 29.5 130.5t79 83t108.5 28.5q95 0 143 -73l17 60h48zM358.5 85q37.5 50 37.5 139v129
q-23 40 -55.5 58.5t-67.5 18.5q-72 0 -108.5 -58.5t-36.5 -145.5q0 -49 15 -92.5t44.5 -71t71.5 -27.5q62 0 99.5 50zM379 532q-52 32 -106 73q-56 -41 -106 -73l-17 19q60 54 112 110h23q52 -56 112 -110z" />
    <glyph glyph-name="Gbreve" unicode="&#x11e;" horiz-adv-x="648" 
d="M588 312v-260q-37 -31 -97 -48.5t-120 -17.5q-89 0 -159.5 37t-110.5 108t-40 169q0 96 42 170.5t116 115.5t167 41q117 0 191 -49l-26 -41q-71 50 -164 50q-76 0 -130 -35t-82 -97.5t-28 -144.5q0 -76 27.5 -140t81.5 -102.5t129 -38.5q70 0 126 33v213h-146v37h223z
M287.5 695.5q-34.5 22.5 -51.5 62.5l23 12q42 -47 104 -47q31 0 54.5 12t46.5 37l21 -13q-17 -41 -50.5 -63.5t-73.5 -22.5q-39 0 -73.5 22.5z" />
    <glyph glyph-name="gbreve" unicode="&#x11f;" horiz-adv-x="533" 
d="M472 456v-414q0 -115 -56 -179.5t-167 -64.5q-80 0 -140 35l21 39q29 -17 60.5 -25.5t60.5 -8.5q79 0 112 47t33 137v62q-17 -41 -60 -66t-96 -25q-91 0 -142 63t-51 171q0 76 29.5 130.5t79 83t108.5 28.5q95 0 143 -73l17 60h48zM358.5 85q37.5 50 37.5 139v129
q-23 40 -55.5 58.5t-67.5 18.5q-72 0 -108.5 -58.5t-36.5 -145.5q0 -49 15 -92.5t44.5 -71t71.5 -27.5q62 0 99.5 50zM202.5 552.5q-32.5 24.5 -49.5 75.5l23 11q20 -34 45 -47.5t56 -13.5q30 0 52.5 14t44.5 48l21 -11q-17 -52 -48.5 -76.5t-71.5 -24.5t-72.5 24.5z" />
    <glyph glyph-name="Gdotaccent" unicode="&#x120;" horiz-adv-x="648" 
d="M588 312v-260q-37 -31 -97 -48.5t-120 -17.5q-89 0 -159.5 37t-110.5 108t-40 169q0 96 42 170.5t116 115.5t167 41q117 0 191 -49l-26 -41q-71 50 -164 50q-76 0 -130 -35t-82 -97.5t-28 -144.5q0 -76 27.5 -140t81.5 -102.5t129 -38.5q70 0 126 33v213h-146v37h223z
M321.5 695q-13.5 13 -13.5 34t13.5 35t38.5 14t39 -13.5t14 -34.5t-14.5 -34.5t-38.5 -13.5q-25 0 -38.5 13z" />
    <glyph glyph-name="gdotaccent" unicode="&#x121;" horiz-adv-x="533" 
d="M472 456v-414q0 -115 -56 -179.5t-167 -64.5q-80 0 -140 35l21 39q29 -17 60.5 -25.5t60.5 -8.5q79 0 112 47t33 137v62q-17 -41 -60 -66t-96 -25q-91 0 -142 63t-51 171q0 76 29.5 130.5t79 83t108.5 28.5q95 0 143 -73l17 60h48zM358.5 85q37.5 50 37.5 139v129
q-23 40 -55.5 58.5t-67.5 18.5q-72 0 -108.5 -58.5t-36.5 -145.5q0 -49 15 -92.5t44.5 -71t71.5 -27.5q62 0 99.5 50zM234.5 555q-13.5 13 -13.5 34t13.5 35t38.5 14t39 -13.5t14 -34.5t-14.5 -34.5t-38.5 -13.5q-25 0 -38.5 13z" />
    <glyph glyph-name="Gcommaaccent" unicode="&#x122;" horiz-adv-x="648" 
d="M588 312v-260q-37 -31 -97 -48.5t-120 -17.5q-89 0 -159.5 37t-110.5 108t-40 169q0 96 42 170.5t116 115.5t167 41q117 0 191 -49l-26 -41q-71 50 -164 50q-76 0 -130 -35t-82 -97.5t-28 -144.5q0 -76 27.5 -140t81.5 -102.5t129 -38.5q70 0 126 33v213h-146v37h223z
M340 -189q1 51 10 136h70q-26 -67 -46 -136h-34z" />
    <glyph glyph-name="gcommaaccent" unicode="&#x123;" horiz-adv-x="533" 
d="M303 518h-70q27 68 47 141h33q-1 -52 -10 -141zM472 456v-414q0 -115 -56 -179.5t-167 -64.5q-80 0 -140 35l21 39q29 -17 60.5 -25.5t60.5 -8.5q79 0 112 47t33 137v62q-17 -41 -60 -66t-96 -25q-91 0 -142 63t-51 171q0 76 29.5 130.5t79 83t108.5 28.5q95 0 143 -73
l17 60h48zM358.5 85q37.5 50 37.5 139v129q-23 40 -55.5 58.5t-67.5 18.5q-72 0 -108.5 -58.5t-36.5 -145.5q0 -49 15 -92.5t44.5 -71t71.5 -27.5q62 0 99.5 50z" />
    <glyph glyph-name="Hcircumflex" unicode="&#x124;" horiz-adv-x="699" 
d="M608 614v-614h-80v300h-347v-300h-80v614h80v-276h347v276h80zM455 674l-29 18q-52 32 -77 49l-53 -33q-46 -30 -52 -34l-17 19l24 21q70 63 88 81h23q18 -18 88 -81l24 -21z" />
    <glyph glyph-name="hcircumflex" unicode="&#x125;" horiz-adv-x="544" 
d="M438 416.5q40 -52.5 40 -143.5v-273h-76v247q0 78 -20.5 128.5t-84.5 50.5t-101.5 -54.5t-37.5 -150.5v-221h-76v659h76v-286q21 47 64 71.5t92 24.5q84 0 124 -52.5zM225 719l-29 18q-52 32 -77 49l-53 -33q-46 -30 -52 -34l-17 19l24 21q70 63 88 81h23q18 -18 88 -81
l24 -21z" />
    <glyph glyph-name="Hbar" unicode="&#x126;" horiz-adv-x="699" 
d="M654 496h-46v-496h-80v300h-347v-300h-80v496h-46v33h46v85h80v-85h347v85h80v-85h46v-33zM528 496h-347v-158h347v158z" />
    <glyph glyph-name="hbar" unicode="&#x127;" horiz-adv-x="559" 
d="M453 416.5q40 -52.5 40 -143.5v-273h-76v247q0 78 -20.5 128.5t-84.5 50.5t-101.5 -54.5t-37.5 -150.5v-221h-76v536h-82v33h82v90h76v-90h137v-33h-137v-163q21 47 64 71.5t92 24.5q84 0 124 -52.5z" />
    <glyph glyph-name="Itilde" unicode="&#x128;" horiz-adv-x="272" 
d="M101 614h80v-614h-80v614zM6 699q36 84 83 84q13 0 21.5 -3.5t15.5 -7.5t10 -6l35 -22q20 -13 32 -13t22 10.5t24 35.5l25 -14q-15 -39 -36 -61.5t-45 -22.5q-15 0 -25 4.5t-23 13.5l-35 25q-17 12 -31 12q-12 0 -22.5 -12.5t-24.5 -38.5z" />
    <glyph glyph-name="itilde" unicode="&#x129;" horiz-adv-x="250" 
d="M87 456h76v-456h-76v456zM146.5 536.5q-10.5 4.5 -22.5 13.5l-35 27q-16 13 -31 13q-13 0 -23.5 -13t-23.5 -41l-26 16q38 87 83 87q15 0 24.5 -4t22.5 -14l36 -23q20 -14 31 -14q12 0 22 11.5t24 37.5l26 -14q-16 -40 -37 -63.5t-45 -23.5q-15 0 -25.5 4.5z" />
    <glyph glyph-name="Imacron" unicode="&#x12a;" horiz-adv-x="272" 
d="M101 614h80v-614h-80v614zM26 746h230v-43h-230v43z" />
    <glyph glyph-name="imacron" unicode="&#x12b;" horiz-adv-x="250" 
d="M87 456h76v-456h-76v456zM11 612h230v-43h-230v43z" />
    <glyph glyph-name="Ibreve" unicode="&#x12c;" horiz-adv-x="272" 
d="M101 614h80v-614h-80v614zM67.5 695.5q-34.5 22.5 -51.5 62.5l23 12q42 -47 104 -47q31 0 54.5 12t46.5 37l21 -13q-17 -41 -50.5 -63.5t-73.5 -22.5q-39 0 -73.5 22.5z" />
    <glyph glyph-name="ibreve" unicode="&#x12d;" horiz-adv-x="250" 
d="M87 456h76v-456h-76v456zM54.5 552.5q-32.5 24.5 -49.5 75.5l23 11q20 -34 45 -47.5t56 -13.5q30 0 52.5 14t44.5 48l21 -11q-17 -52 -48.5 -76.5t-71.5 -24.5t-72.5 24.5z" />
    <glyph glyph-name="Iogonek" unicode="&#x12e;" horiz-adv-x="272" 
d="M124.5 -57.5q-19.5 -30.5 -19.5 -57.5q0 -16 8.5 -24.5t23.5 -8.5t31 8l12 -26q-32 -23 -70 -23q-29 0 -47 15.5t-18 43.5q0 58 97 130h-41v614h80v-614q-37 -27 -56.5 -57.5z" />
    <glyph glyph-name="iogonek" unicode="&#x12f;" horiz-adv-x="250" 
d="M86.5 556q-13.5 13 -13.5 34t13.5 35t38.5 14t38.5 -13.5t13.5 -34.5t-14 -34.5t-38 -13.5q-25 0 -38.5 13zM45 -173.5q-18 15.5 -18 43.5q0 57 98 130h-38v456h76v-456q-37 -27 -56.5 -57.5t-19.5 -57.5q0 -16 8.5 -24.5t23.5 -8.5q16 0 32 8l11 -26q-31 -23 -70 -23
q-29 0 -47 15.5z" />
    <glyph glyph-name="Idotaccent" unicode="&#x130;" horiz-adv-x="272" 
d="M101 614h80v-614h-80v614zM101.5 695q-13.5 13 -13.5 34t13.5 35t38.5 14t39 -13.5t14 -34.5t-14.5 -34.5t-38.5 -13.5q-25 0 -38.5 13z" />
    <glyph glyph-name="dotlessi" unicode="&#x131;" horiz-adv-x="250" 
d="M87 456h76v-456h-76v456z" />
    <glyph glyph-name="IJ" unicode="&#x132;" horiz-adv-x="550" 
d="M101 614h80v-614h-80v614zM304 -90q45 29 64 75t19 127v502h80v-461q0 -107 -34.5 -170t-113.5 -99z" />
    <glyph glyph-name="ij" unicode="&#x133;" horiz-adv-x="492" 
d="M86.5 556q-13.5 13 -13.5 34t13.5 35t38.5 14t38.5 -13.5t13.5 -34.5t-14 -34.5t-38 -13.5q-25 0 -38.5 13zM87 456h76v-456h-76v456zM338.5 556q-13.5 13 -13.5 34t13.5 35t38.5 14t39 -13.5t14 -34.5t-14.5 -34.5t-38.5 -13.5q-25 0 -38.5 13zM262 -150q44 29 61 70.5
t17 123.5v412h76v-355q0 -109 -29 -176t-106 -103z" />
    <glyph glyph-name="Jcircumflex" unicode="&#x134;" horiz-adv-x="278" 
d="M32 -90q45 29 64 75t19 127v502h80v-461q0 -107 -34.5 -170t-113.5 -99zM260 674l-29 18q-52 32 -77 49l-53 -33q-46 -30 -52 -34l-17 19l24 21q70 63 88 81h23q18 -18 88 -81l24 -21z" />
    <glyph glyph-name="jcircumflex" unicode="&#x135;" horiz-adv-x="242" 
d="M12 -150q44 29 61 70.5t17 123.5v412h76v-355q0 -108 -30 -175.5t-108 -103.5zM233 532q-52 32 -106 73q-56 -41 -106 -73l-17 19q60 54 112 110h23q52 -56 112 -110z" />
    <glyph glyph-name="Kcommaaccent" unicode="&#x136;" horiz-adv-x="568" 
d="M228 303h-47v-303h-80v614h80v-273h53q56 56 114.5 131.5t101.5 141.5h84q-41 -55 -114 -137.5t-128 -134.5l255 -342h-95zM257 -189q1 51 10 136h70q-26 -67 -46 -136h-34z" />
    <glyph glyph-name="kcommaaccent" unicode="&#x137;" horiz-adv-x="479" 
d="M210 227h-52v-227h-76v659h76v-394h56q70 73 151 191h77q-91 -115 -181 -195l206 -261h-86zM215 -189q1 51 10 136h70q-26 -67 -46 -136h-34z" />
    <glyph glyph-name="kgreenlandic" unicode="&#x138;" horiz-adv-x="483" 
d="M208 217h-49v-217h-76v456h76v-202h53q49 52 151 202h77q-110 -142 -181 -207l211 -249h-87z" />
    <glyph glyph-name="Lacute" unicode="&#x139;" horiz-adv-x="435" 
d="M424 50v-50h-323v614h80v-572h52q93 0 191 8zM95 682q47 44 134 108l54 -41q-69 -31 -176 -84z" />
    <glyph glyph-name="lacute" unicode="&#x13a;" horiz-adv-x="241" 
d="M82 659h76v-659h-76v659zM72 727q47 44 134 108l54 -41q-69 -31 -176 -84z" />
    <glyph glyph-name="Lcommaaccent" unicode="&#x13b;" horiz-adv-x="435" 
d="M424 50v-50h-323v614h80v-572h52q93 0 191 8zM231 -189q1 51 10 136h70q-26 -67 -46 -136h-34z" />
    <glyph glyph-name="lcommaaccent" unicode="&#x13c;" horiz-adv-x="241" 
d="M82 659h76v-659h-76v659zM76 -189q1 51 10 136h70q-26 -67 -46 -136h-34z" />
    <glyph glyph-name="Lcaron" unicode="&#x13d;" horiz-adv-x="435" 
d="M424 50v-50h-323v614h80v-572h52q93 0 191 8zM273 464q1 60 10 150h67q-32 -95 -46 -150h-31z" />
    <glyph glyph-name="lcaron" unicode="&#x13e;" horiz-adv-x="251" 
d="M82 659h76v-659h-76v659zM214 509q1 60 10 150h67q-32 -95 -46 -150h-31z" />
    <glyph glyph-name="Ldot" unicode="&#x13f;" horiz-adv-x="435" 
d="M424 50v-50h-323v614h80v-572h52q93 0 191 8zM278 282.5q-15 14.5 -15 36.5q0 23 15 37.5t40 14.5q24 0 38 -14.5t14 -37.5q0 -22 -14 -36.5t-39 -14.5q-24 0 -39 14.5z" />
    <glyph glyph-name="ldot" unicode="&#x140;" horiz-adv-x="326" 
d="M82 659h76v-659h-76v659zM234.5 291q-14.5 15 -14.5 40q0 24 14.5 38t38.5 14q21 0 35.5 -14t14.5 -39t-14 -39.5t-36 -14.5q-24 0 -38.5 15z" />
    <glyph glyph-name="Lslash" unicode="&#x141;" horiz-adv-x="437" 
d="M426 50v-50h-323v275l-83 -43v41l83 43v298h80v-256l114 60v-42l-114 -59v-275h52q93 0 191 8z" />
    <glyph glyph-name="lslash" unicode="&#x142;" horiz-adv-x="283" 
d="M271 415l-82 -48v-367h-76v323l-83 -49v41l83 48v296h76v-252l82 48v-40z" />
    <glyph glyph-name="Nacute" unicode="&#x143;" horiz-adv-x="669" 
d="M583 614v-614h-42l-400 487v-487h-45v614h43l399 -487v487h45zM297 682q47 44 134 108l54 -41q-69 -31 -176 -84z" />
    <glyph glyph-name="nacute" unicode="&#x144;" horiz-adv-x="553" 
d="M440 416q40 -53 40 -143v-273h-77v247q0 79 -20 129t-84 50t-101.5 -53.5t-37.5 -148.5v-224h-77v456h50l23 -85q24 49 67 73.5t94 24.5q83 0 123 -53zM249 534q41 44 119 116l54 -39q-83 -45 -159 -95z" />
    <glyph glyph-name="Ncommaaccent" unicode="&#x145;" horiz-adv-x="669" 
d="M583 614v-614h-42l-400 487v-487h-45v614h43l399 -487v487h45zM302 -189q1 51 10 136h70q-26 -67 -46 -136h-34z" />
    <glyph glyph-name="ncommaaccent" unicode="&#x146;" horiz-adv-x="553" 
d="M440 416q40 -53 40 -143v-273h-77v247q0 79 -20 129t-84 50t-101.5 -53.5t-37.5 -148.5v-224h-77v456h50l23 -85q24 49 67 73.5t94 24.5q83 0 123 -53zM242 -189q1 51 10 136h70q-26 -67 -46 -136h-34z" />
    <glyph glyph-name="Ncaron" unicode="&#x147;" horiz-adv-x="669" 
d="M583 614v-614h-42l-400 487v-487h-45v614h43l399 -487v487h45zM469 771q-77 -69 -112 -102h-23q-18 18 -88 81l-24 21l19 19q72 -44 106 -67l62 40l44 27z" />
    <glyph glyph-name="ncaron" unicode="&#x148;" horiz-adv-x="553" 
d="M440 416q40 -53 40 -143v-273h-77v247q0 79 -20 129t-84 50t-101.5 -53.5t-37.5 -148.5v-224h-77v456h50l23 -85q24 49 67 73.5t94 24.5q83 0 123 -53zM418 641q-70 -64 -112 -110h-23q-51 54 -112 110l18 19q56 -36 106 -74q60 45 106 74z" />
    <glyph glyph-name="Eng" unicode="&#x14a;" horiz-adv-x="669" 
d="M583 614v-518q0 -108 -39.5 -177.5t-130.5 -97.5l-15 28q113 44 130 166l-387 470v-485h-45v614h43l399 -485v485h45z" />
    <glyph glyph-name="eng" unicode="&#x14b;" horiz-adv-x="553" 
d="M440 416q40 -53 40 -142v-168q0 -113 -40 -183.5t-140 -101.5l-16 29q56 23 87.5 72.5t31.5 133.5v188q0 81 -19.5 131.5t-84.5 50.5q-64 0 -101.5 -53.5t-37.5 -146.5v-226h-77v456h50l23 -85q24 49 67.5 73.5t94.5 24.5q82 0 122 -53z" />
    <glyph glyph-name="Omacron" unicode="&#x14c;" horiz-adv-x="734" 
d="M204 25.5q-70 39.5 -106.5 111t-36.5 166.5q0 94 43 168t115 115t155 41q97 0 166.5 -39t106 -110.5t36.5 -166.5q0 -94 -43 -168.5t-114.5 -115.5t-154.5 -41q-97 0 -167 39.5zM491 63q52 40 79 105.5t27 138.5q0 75 -24 139.5t-74 104t-124 39.5q-70 0 -122 -40
t-79 -105t-27 -138q0 -75 24 -140t74.5 -104.5t123.5 -39.5q70 0 122 40zM260 746h230v-43h-230v43z" />
    <glyph glyph-name="omacron" unicode="&#x14d;" horiz-adv-x="541" 
d="M107.5 49q-60.5 63 -60.5 178q0 71 31 126t82.5 85.5t110.5 30.5q102 0 162.5 -63t60.5 -177q0 -71 -31 -126.5t-82.5 -86t-110.5 -30.5q-102 0 -162.5 63zM375 80q37 61 37 149q0 89 -34.5 148t-106.5 59q-68 0 -105.5 -60.5t-37.5 -147.5q0 -90 35 -149.5t107 -59.5
q68 0 105 61zM155 612h230v-43h-230v43z" />
    <glyph glyph-name="Obreve" unicode="&#x14e;" horiz-adv-x="734" 
d="M204 25.5q-70 39.5 -106.5 111t-36.5 166.5q0 94 43 168t115 115t155 41q97 0 166.5 -39t106 -110.5t36.5 -166.5q0 -94 -43 -168.5t-114.5 -115.5t-154.5 -41q-97 0 -167 39.5zM491 63q52 40 79 105.5t27 138.5q0 75 -24 139.5t-74 104t-124 39.5q-70 0 -122 -40
t-79 -105t-27 -138q0 -75 24 -140t74.5 -104.5t123.5 -39.5q70 0 122 40zM301.5 695.5q-34.5 22.5 -51.5 62.5l23 12q42 -47 104 -47q31 0 54.5 12t46.5 37l21 -13q-17 -41 -50.5 -63.5t-73.5 -22.5q-39 0 -73.5 22.5z" />
    <glyph glyph-name="obreve" unicode="&#x14f;" horiz-adv-x="541" 
d="M107.5 49q-60.5 63 -60.5 178q0 71 31 126t82.5 85.5t110.5 30.5q102 0 162.5 -63t60.5 -177q0 -71 -31 -126.5t-82.5 -86t-110.5 -30.5q-102 0 -162.5 63zM375 80q37 61 37 149q0 89 -34.5 148t-106.5 59q-68 0 -105.5 -60.5t-37.5 -147.5q0 -90 35 -149.5t107 -59.5
q68 0 105 61zM198.5 552.5q-32.5 24.5 -49.5 75.5l23 11q20 -34 45 -47.5t56 -13.5q30 0 52.5 14t44.5 48l21 -11q-17 -52 -48.5 -76.5t-71.5 -24.5t-72.5 24.5z" />
    <glyph glyph-name="Ohungarumlaut" unicode="&#x150;" horiz-adv-x="734" 
d="M204 25.5q-70 39.5 -106.5 111t-36.5 166.5q0 94 43 168t115 115t155 41q97 0 166.5 -39t106 -110.5t36.5 -166.5q0 -94 -43 -168.5t-114.5 -115.5t-154.5 -41q-97 0 -167 39.5zM491 63q52 40 79 105.5t27 138.5q0 75 -24 139.5t-74 104t-124 39.5q-70 0 -122 -40
t-79 -105t-27 -138q0 -75 24 -140t74.5 -104.5t123.5 -39.5q70 0 122 40zM264 678q26 30 96 91l25 22l52 -31q-116 -69 -159 -96zM405 679q43 39 128 97l54 -34l-29 -13q-111 -49 -141 -64z" />
    <glyph glyph-name="ohungarumlaut" unicode="&#x151;" horiz-adv-x="541" 
d="M107.5 49q-60.5 63 -60.5 178q0 71 31 126t82.5 85.5t110.5 30.5q102 0 162.5 -63t60.5 -177q0 -71 -31 -126.5t-82.5 -86t-110.5 -30.5q-102 0 -162.5 63zM375 80q37 61 37 149q0 89 -34.5 148t-106.5 59q-68 0 -105.5 -60.5t-37.5 -147.5q0 -90 35 -149.5t107 -59.5
q68 0 105 61zM181 526q45 67 96 126l56 -25q-60 -46 -135 -112zM319 529q36 43 111 112l56 -30q-66 -39 -121 -76l-31 -20z" />
    <glyph glyph-name="OE" unicode="&#x152;" horiz-adv-x="893" 
d="M850 0h-360q-58 -14 -123 -14q-95 0 -164 39t-105.5 111t-36.5 167q0 102 44.5 175.5t120.5 111t168 37.5q59 0 107 -13h348v-48q-83 8 -182 8h-86v-245h44q53 0 171 4v-46q-98 5 -171 5h-44v-253h92q96 0 177 7v-46zM207 105q58 -81 181 -81q30 0 60 7t54 20v511
q-22 15 -47.5 21.5t-61.5 6.5q-79 0 -134 -40t-82.5 -105t-27.5 -140q0 -119 58 -200z" />
    <glyph glyph-name="oe" unicode="&#x153;" horiz-adv-x="858" 
d="M813 234h-318q2 -90 42 -148t119 -58q37 0 65 9.5t57 30.5l19 -30q-63 -52 -157 -52q-67 0 -115 25.5t-75 71.5q-31 -46 -79 -71.5t-101 -25.5q-102 0 -162.5 63t-60.5 178q0 71 31 126t82.5 85.5t110.5 30.5q62 0 110 -24t76 -69q29 43 74 68t100 25q93 0 139 -57
t46 -146q0 -17 -3 -32zM534.5 389q-35.5 -49 -39.5 -123h237q1 10 1 26q0 58 -25 102t-81 44q-57 0 -92.5 -49zM375 80q37 61 37 149q0 89 -34.5 148t-106.5 59q-68 0 -105.5 -60.5t-37.5 -147.5q0 -90 35 -149.5t107 -59.5q68 0 105 61z" />
    <glyph glyph-name="Racute" unicode="&#x154;" horiz-adv-x="561" 
d="M421 0l-159 267q-8 -1 -23 -1q-39 0 -59 2v-268h-79v613q55 8 129 8q117 0 183.5 -43.5t66.5 -133.5q0 -60 -38 -102t-102 -62l178 -280h-97zM352.5 337q42.5 39 42.5 107q0 71 -37 108.5t-120 37.5q-27 0 -58 -4v-286q14 -2 40 -2q90 0 132.5 39zM212 682q47 44 134 108
l54 -41q-69 -31 -176 -84z" />
    <glyph glyph-name="racute" unicode="&#x155;" horiz-adv-x="330" 
d="M325 461v-59q-16 3 -35 3q-62 0 -96 -39.5t-34 -117.5v-248h-77v456h49l25 -88q17 42 55.5 69t84.5 27q14 0 28 -3zM156 534q41 44 119 116l54 -39q-83 -45 -159 -95z" />
    <glyph glyph-name="Rcommaaccent" unicode="&#x156;" horiz-adv-x="561" 
d="M421 0l-159 267q-8 -1 -23 -1q-39 0 -59 2v-268h-79v613q55 8 129 8q117 0 183.5 -43.5t66.5 -133.5q0 -60 -38 -102t-102 -62l178 -280h-97zM352.5 337q42.5 39 42.5 107q0 71 -37 108.5t-120 37.5q-27 0 -58 -4v-286q14 -2 40 -2q90 0 132.5 39zM249 -189q1 51 10 136
h70q-26 -67 -46 -136h-34z" />
    <glyph glyph-name="rcommaaccent" unicode="&#x157;" horiz-adv-x="330" 
d="M325 461v-59q-16 3 -35 3q-62 0 -96 -39.5t-34 -117.5v-248h-77v456h49l25 -88q17 42 55.5 69t84.5 27q14 0 28 -3zM80 -189q1 51 10 136h70q-26 -67 -46 -136h-34z" />
    <glyph glyph-name="Rcaron" unicode="&#x158;" horiz-adv-x="561" 
d="M421 0l-159 267q-8 -1 -23 -1q-39 0 -59 2v-268h-79v613q55 8 129 8q117 0 183.5 -43.5t66.5 -133.5q0 -60 -38 -102t-102 -62l178 -280h-97zM352.5 337q42.5 39 42.5 107q0 71 -37 108.5t-120 37.5q-27 0 -58 -4v-286q14 -2 40 -2q90 0 132.5 39zM384 771
q-77 -69 -112 -102h-23q-18 18 -88 81l-24 21l19 19q72 -44 106 -67l62 40l44 27z" />
    <glyph glyph-name="rcaron" unicode="&#x159;" horiz-adv-x="330" 
d="M325 461v-59q-16 3 -35 3q-62 0 -96 -39.5t-34 -117.5v-248h-77v456h49l25 -88q17 42 55.5 69t84.5 27q14 0 28 -3zM325 641q-70 -64 -112 -110h-23q-51 54 -112 110l18 19q56 -36 106 -74q60 45 106 74z" />
    <glyph glyph-name="Sacute" unicode="&#x15a;" horiz-adv-x="480" 
d="M130.5 1.5q-46.5 15.5 -80.5 43.5l27 41q35 -30 76 -45t83 -15q60 0 95.5 32t35.5 84q0 43 -28.5 73.5t-88.5 60.5l-71 36q-60 31 -86 70.5t-26 88.5q0 70 53 113t143 43q51 0 93.5 -12t71.5 -32l-21 -40q-60 46 -137 46q-59 0 -95.5 -25.5t-36.5 -71.5q0 -40 23 -65
t84 -57l73 -38q63 -33 92 -72t29 -96q0 -80 -56 -129t-152 -49q-54 0 -100.5 15.5zM214 682q47 44 134 108l54 -41q-69 -31 -176 -84z" />
    <glyph glyph-name="sacute" unicode="&#x15b;" horiz-adv-x="412" 
d="M124.5 -3q-41.5 11 -77.5 37l22 38q65 -46 136 -46q46 0 73.5 19.5t27.5 56.5q0 33 -20.5 51t-69.5 41l-58 26q-96 44 -96 122q0 59 45.5 93t117.5 34q39 0 71 -7.5t61 -25.5l-17 -38q-30 19 -57.5 27t-57.5 8q-44 0 -71.5 -18.5t-27.5 -49.5q0 -27 17 -45t56 -36l74 -35
q52 -24 74 -54.5t22 -70.5q0 -66 -47.5 -102t-116.5 -36q-39 0 -80.5 11zM172 534q41 44 119 116l54 -39q-83 -45 -159 -95z" />
    <glyph glyph-name="Scircumflex" unicode="&#x15c;" horiz-adv-x="480" 
d="M130.5 1.5q-46.5 15.5 -80.5 43.5l27 41q35 -30 76 -45t83 -15q60 0 95.5 32t35.5 84q0 43 -28.5 73.5t-88.5 60.5l-71 36q-60 31 -86 70.5t-26 88.5q0 70 53 113t143 43q51 0 93.5 -12t71.5 -32l-21 -40q-60 46 -137 46q-59 0 -95.5 -25.5t-36.5 -71.5q0 -40 23 -65
t84 -57l73 -38q63 -33 92 -72t29 -96q0 -80 -56 -129t-152 -49q-54 0 -100.5 15.5zM367 674l-29 18q-52 32 -77 49l-53 -33q-46 -30 -52 -34l-17 19l24 21q70 63 88 81h23q18 -18 88 -81l24 -21z" />
    <glyph glyph-name="scircumflex" unicode="&#x15d;" horiz-adv-x="412" 
d="M124.5 -3q-41.5 11 -77.5 37l22 38q65 -46 136 -46q46 0 73.5 19.5t27.5 56.5q0 33 -20.5 51t-69.5 41l-58 26q-96 44 -96 122q0 59 45.5 93t117.5 34q39 0 71 -7.5t61 -25.5l-17 -38q-30 19 -57.5 27t-57.5 8q-44 0 -71.5 -18.5t-27.5 -49.5q0 -27 17 -45t56 -36l74 -35
q52 -24 74 -54.5t22 -70.5q0 -66 -47.5 -102t-116.5 -36q-39 0 -80.5 11zM323 532q-52 32 -106 73q-56 -41 -106 -73l-17 19q60 54 112 110h23q52 -56 112 -110z" />
    <glyph glyph-name="Scedilla" unicode="&#x15e;" horiz-adv-x="480" 
d="M391.5 43q-47.5 -48 -129.5 -56l-12 -36h7q31 0 50.5 -17.5t19.5 -47.5q0 -34 -24.5 -54.5t-65.5 -20.5q-33 0 -59 13l10 32q19 -11 47 -11q16 0 28.5 8t12.5 25q0 16 -11 23.5t-28 8.5q-20 0 -33 -4l23 80q-53 1 -98.5 16.5t-78.5 42.5l27 41q35 -30 76 -45t83 -15
q60 0 95.5 32t35.5 84q0 43 -28.5 73.5t-88.5 60.5l-71 36q-60 31 -86 70.5t-26 88.5q0 70 53 113t143 43q51 0 93.5 -12t71.5 -32l-21 -40q-60 46 -137 46q-59 0 -95.5 -25.5t-36.5 -71.5q0 -40 23 -65t84 -57l73 -38q63 -33 92 -72t29 -96q0 -73 -47.5 -121z" />
    <glyph glyph-name="scedilla" unicode="&#x15f;" horiz-adv-x="412" 
d="M328.5 28.5q-40.5 -35.5 -101.5 -41.5l-12 -36h7q31 0 50.5 -17.5t19.5 -47.5q0 -34 -24.5 -54.5t-65.5 -20.5q-33 0 -59 13l10 32q19 -11 47 -11q16 0 28.5 8t12.5 25q0 16 -11 23.5t-28 8.5q-20 0 -33 -4l23 80q-85 4 -145 48l22 38q65 -46 136 -46q46 0 73.5 19.5
t27.5 56.5q0 33 -20.5 51t-69.5 41l-58 26q-96 44 -96 122q0 59 45.5 93t117.5 34q39 0 71 -7.5t61 -25.5l-17 -38q-30 19 -57.5 27t-57.5 8q-44 0 -71.5 -18.5t-27.5 -49.5q0 -27 17 -45t56 -36l74 -35q52 -24 74 -54.5t22 -70.5q0 -60 -40.5 -95.5z" />
    <glyph glyph-name="Scaron" unicode="&#x160;" horiz-adv-x="480" 
d="M130.5 1.5q-46.5 15.5 -80.5 43.5l27 41q35 -30 76 -45t83 -15q60 0 95.5 32t35.5 84q0 43 -28.5 73.5t-88.5 60.5l-71 36q-60 31 -86 70.5t-26 88.5q0 70 53 113t143 43q51 0 93.5 -12t71.5 -32l-21 -40q-60 46 -137 46q-59 0 -95.5 -25.5t-36.5 -71.5q0 -40 23 -65
t84 -57l73 -38q63 -33 92 -72t29 -96q0 -80 -56 -129t-152 -49q-54 0 -100.5 15.5zM386 771q-77 -69 -112 -102h-23q-18 18 -88 81l-24 21l19 19q72 -44 106 -67l62 40l44 27z" />
    <glyph glyph-name="scaron" unicode="&#x161;" horiz-adv-x="412" 
d="M124.5 -3q-41.5 11 -77.5 37l22 38q65 -46 136 -46q46 0 73.5 19.5t27.5 56.5q0 33 -20.5 51t-69.5 41l-58 26q-96 44 -96 122q0 59 45.5 93t117.5 34q39 0 71 -7.5t61 -25.5l-17 -38q-30 19 -57.5 27t-57.5 8q-44 0 -71.5 -18.5t-27.5 -49.5q0 -27 17 -45t56 -36l74 -35
q52 -24 74 -54.5t22 -70.5q0 -66 -47.5 -102t-116.5 -36q-39 0 -80.5 11zM341 641q-70 -64 -112 -110h-23q-51 54 -112 110l18 19q56 -36 106 -74q60 45 106 74z" />
    <glyph glyph-name="uni0162" unicode="&#x162;" horiz-adv-x="487" 
d="M486 614v-47q-41 4 -70 5.5t-70 1.5h-57v-574h-80v574h-60q-40 0 -68.5 -1.5t-69.5 -5.5v47h475zM206 -189q1 51 10 136h70q-26 -67 -46 -136h-34z" />
    <glyph glyph-name="uni0163" unicode="&#x163;" horiz-adv-x="357" 
d="M339 25q-47 -39 -106 -39q-71 0 -98.5 50t-27.5 139v248h-91v33h91v123h75v-123h138v-33h-138v-235q0 -80 14 -121.5t58 -41.5q16 0 34 7.5t33 20.5zM185 -189q1 51 10 136h70q-26 -67 -46 -136h-34z" />
    <glyph glyph-name="Tcaron" unicode="&#x164;" horiz-adv-x="487" 
d="M486 614v-47q-41 4 -70 5.5t-70 1.5h-57v-574h-80v574h-60q-40 0 -68.5 -1.5t-69.5 -5.5v47h475zM372 771q-77 -69 -112 -102h-23q-18 18 -88 81l-24 21l19 19q72 -44 106 -67l62 40l44 27z" />
    <glyph glyph-name="tcaron" unicode="&#x165;" horiz-adv-x="357" 
d="M293 519h-31q2 41 10 140h68q-33 -94 -47 -140zM288 32.5q18 7.5 33 20.5l18 -28q-47 -39 -106 -39q-71 0 -98.5 50t-27.5 139v248h-91v33h91v123h75v-123h138v-33h-138v-235q0 -80 14 -121.5t58 -41.5q16 0 34 7.5z" />
    <glyph glyph-name="Tbar" unicode="&#x166;" horiz-adv-x="487" 
d="M289 574v-236h142v-38h-142v-300h-80v300h-141v38h141v236h-60q-40 0 -68.5 -1.5t-69.5 -5.5v47h475v-47q-41 4 -70 5.5t-70 1.5h-57z" />
    <glyph glyph-name="tbar" unicode="&#x167;" horiz-adv-x="357" 
d="M339 25q-47 -39 -106 -39q-71 0 -98.5 50t-27.5 139v68h-91v33h91v147h-91v33h91v123h75v-123h138v-33h-138v-147h138v-33h-138v-55q0 -80 14 -121.5t58 -41.5q16 0 34 7.5t33 20.5z" />
    <glyph glyph-name="Utilde" unicode="&#x168;" horiz-adv-x="640" 
d="M152.5 55q-60.5 69 -60.5 191v368h80v-340q0 -110 40.5 -177.5t128.5 -67.5q99 0 139 58t40 164v363h47v-376q0 -117 -58.5 -184.5t-171.5 -67.5q-124 0 -184.5 69zM213 699q36 84 83 84q13 0 21.5 -3.5t15.5 -7.5t10 -6l35 -22q20 -13 32 -13t22 10.5t24 35.5l25 -14
q-15 -39 -36 -61.5t-45 -22.5q-15 0 -25 4.5t-23 13.5l-35 25q-17 12 -31 12q-12 0 -22.5 -12.5t-24.5 -38.5z" />
    <glyph glyph-name="utilde" unicode="&#x169;" horiz-adv-x="551" 
d="M470 456v-456h-50l-23 84q-24 -48 -67 -73t-90 -25q-84 0 -124 53t-40 144v273h76v-247q0 -79 20 -129t85 -50q63 0 99.5 54.5t36.5 149.5v222h77zM294.5 536.5q-10.5 4.5 -22.5 13.5l-35 27q-16 13 -31 13q-13 0 -23.5 -13t-23.5 -41l-26 16q38 87 83 87q15 0 24.5 -4
t22.5 -14l36 -23q20 -14 31 -14q12 0 22 11.5t24 37.5l26 -14q-16 -40 -37 -63.5t-45 -23.5q-15 0 -25.5 4.5z" />
    <glyph glyph-name="Umacron" unicode="&#x16a;" horiz-adv-x="640" 
d="M152.5 55q-60.5 69 -60.5 191v368h80v-340q0 -110 40.5 -177.5t128.5 -67.5q99 0 139 58t40 164v363h47v-376q0 -117 -58.5 -184.5t-171.5 -67.5q-124 0 -184.5 69zM233 746h230v-43h-230v43z" />
    <glyph glyph-name="umacron" unicode="&#x16b;" horiz-adv-x="551" 
d="M470 456v-456h-50l-23 84q-24 -48 -67 -73t-90 -25q-84 0 -124 53t-40 144v273h76v-247q0 -79 20 -129t85 -50q63 0 99.5 54.5t36.5 149.5v222h77zM159 612h230v-43h-230v43z" />
    <glyph glyph-name="Ubreve" unicode="&#x16c;" horiz-adv-x="640" 
d="M152.5 55q-60.5 69 -60.5 191v368h80v-340q0 -110 40.5 -177.5t128.5 -67.5q99 0 139 58t40 164v363h47v-376q0 -117 -58.5 -184.5t-171.5 -67.5q-124 0 -184.5 69zM274.5 695.5q-34.5 22.5 -51.5 62.5l23 12q42 -47 104 -47q31 0 54.5 12t46.5 37l21 -13
q-17 -41 -50.5 -63.5t-73.5 -22.5q-39 0 -73.5 22.5z" />
    <glyph glyph-name="ubreve" unicode="&#x16d;" horiz-adv-x="551" 
d="M470 456v-456h-50l-23 84q-24 -48 -67 -73t-90 -25q-84 0 -124 53t-40 144v273h76v-247q0 -79 20 -129t85 -50q63 0 99.5 54.5t36.5 149.5v222h77zM202.5 552.5q-32.5 24.5 -49.5 75.5l23 11q20 -34 45 -47.5t56 -13.5q30 0 52.5 14t44.5 48l21 -11q-17 -52 -48.5 -76.5
t-71.5 -24.5t-72.5 24.5z" />
    <glyph glyph-name="Uring" unicode="&#x16e;" horiz-adv-x="640" 
d="M152.5 55q-60.5 69 -60.5 191v368h80v-340q0 -110 40.5 -177.5t128.5 -67.5q99 0 139 58t40 164v363h47v-376q0 -117 -58.5 -184.5t-171.5 -67.5q-124 0 -184.5 69zM282.5 686q-23.5 18 -23.5 52t26 55t62 21q42 0 66 -19t24 -54q0 -33 -26.5 -53t-62.5 -20
q-42 0 -65.5 18zM378.5 705.5q11.5 15.5 11.5 36.5t-9.5 36t-32.5 15q-20 0 -31 -15.5t-11 -36.5q0 -51 42 -51q19 0 30.5 15.5z" />
    <glyph glyph-name="uring" unicode="&#x16f;" horiz-adv-x="551" 
d="M470 456v-456h-50l-23 84q-24 -48 -67 -73t-90 -25q-84 0 -124 53t-40 144v273h76v-247q0 -79 20 -129t85 -50q63 0 99.5 54.5t36.5 149.5v222h77zM208.5 534q-23.5 18 -23.5 52t26 55t62 21q42 0 66 -19t24 -54q0 -33 -26.5 -53t-62.5 -20q-42 0 -65.5 18zM304.5 553.5
q11.5 15.5 11.5 36.5t-9.5 36t-32.5 15q-20 0 -31 -15.5t-11 -36.5q0 -51 42 -51q19 0 30.5 15.5z" />
    <glyph glyph-name="Uhungarumlaut" unicode="&#x170;" horiz-adv-x="640" 
d="M152.5 55q-60.5 69 -60.5 191v368h80v-340q0 -110 40.5 -177.5t128.5 -67.5q99 0 139 58t40 164v363h47v-376q0 -117 -58.5 -184.5t-171.5 -67.5q-124 0 -184.5 69zM237 678q26 30 96 91l25 22l52 -31q-116 -69 -159 -96zM378 679q43 39 128 97l54 -34l-29 -13
q-111 -49 -141 -64z" />
    <glyph glyph-name="uhungarumlaut" unicode="&#x171;" horiz-adv-x="551" 
d="M470 456v-456h-50l-23 84q-24 -48 -67 -73t-90 -25q-84 0 -124 53t-40 144v273h76v-247q0 -79 20 -129t85 -50q63 0 99.5 54.5t36.5 149.5v222h77zM185 526q45 67 96 126l56 -25q-60 -46 -135 -112zM323 529q36 43 111 112l56 -30q-66 -39 -121 -76l-31 -20z" />
    <glyph glyph-name="Uogonek" unicode="&#x172;" horiz-adv-x="640" 
d="M567 614v-376q0 -86 -30.5 -141.5t-83.5 -84.5q-58 -35 -81.5 -62.5t-23.5 -58.5q0 -18 9 -28t25 -10q15 0 30 7l11 -26q-31 -23 -70 -23q-29 0 -47 15.5t-18 43.5q0 31 18 59t61 59q-18 -2 -30 -2q-124 0 -184.5 69t-60.5 191v368h80v-340q0 -110 40.5 -177.5
t128.5 -67.5q99 0 139 58t40 164v363h47z" />
    <glyph glyph-name="uogonek" unicode="&#x173;" horiz-adv-x="551" 
d="M413.5 -57.5q-19.5 -30.5 -19.5 -57.5q0 -16 8.5 -24.5t22.5 -8.5q16 0 32 8l12 -26q-32 -23 -71 -23q-29 0 -47 15.5t-18 43.5q0 57 98 130h-11l-24 85q-22 -48 -65 -73.5t-91 -25.5q-84 0 -124 53t-40 144v273h76v-247q0 -79 20 -129t85 -50q63 0 99.5 54.5t36.5 149.5
v222h77v-456q-37 -27 -56.5 -57.5z" />
    <glyph glyph-name="Wcircumflex" unicode="&#x174;" horiz-adv-x="870" 
d="M850 614q-108 -378 -199 -614h-39l-158 478q-35 -121 -78.5 -249t-87.5 -229h-39l-217 614h87l168 -501q64 170 157 501h43l165 -494q77 238 127 494h71zM570 674l-29 18q-52 32 -77 49l-53 -33q-46 -30 -52 -34l-17 19l24 21q70 63 88 81h23q18 -18 88 -81l24 -21z" />
    <glyph glyph-name="wcircumflex" unicode="&#x175;" horiz-adv-x="679" 
d="M668 456q-79 -275 -160 -456h-50l-111 332q-60 -189 -127 -332h-49l-156 456h80l121 -370q62 160 123 370h39l124 -370q28 77 54 176t44 194h68zM467 532q-52 32 -106 73q-56 -41 -106 -73l-17 19q60 54 112 110h23q52 -56 112 -110z" />
    <glyph glyph-name="Ycircumflex" unicode="&#x176;" horiz-adv-x="532" 
d="M320 269v-269h-80v267l-221 347h89l192 -304q99 181 156 304h70q-100 -178 -206 -345zM389 674l-29 18q-52 32 -77 49l-53 -33q-46 -30 -52 -34l-17 19l24 21q70 63 88 81h23q18 -18 88 -81l24 -21z" />
    <glyph glyph-name="ycircumflex" unicode="&#x177;" horiz-adv-x="535" 
d="M470 456v-406q0 -252 -226 -252q-76 0 -136 35l21 39q29 -17 61 -25.5t60 -8.5q79 0 111.5 48t32.5 138v68q-18 -46 -60 -72.5t-91 -26.5q-167 0 -167 198v265h76v-242q0 -77 21.5 -127t86.5 -50q60 0 96.5 54t36.5 147v218h77zM372 532q-52 32 -106 73q-56 -41 -106 -73
l-17 19q60 54 112 110h23q52 -56 112 -110z" />
    <glyph glyph-name="Ydieresis" unicode="&#x178;" horiz-adv-x="532" 
d="M320 269v-269h-80v267l-221 347h89l192 -304q99 181 156 304h70q-100 -178 -206 -345zM167 696q-12 13 -12 32q0 21 12 34t33 13q20 0 33 -13t13 -33q0 -18 -13.5 -32t-33.5 -14t-32 13zM336.5 696q-12.5 13 -12.5 32q0 21 13 34t34 13q20 0 32 -13t12 -33
q0 -19 -12.5 -32.5t-32.5 -13.5q-21 0 -33.5 13z" />
    <glyph glyph-name="Zacute" unicode="&#x179;" horiz-adv-x="544" 
d="M498 579l-350 -541h163q50 0 97 1t87 5v-44h-438v33l344 543h-156q-114 0 -184 -6v44h437v-35zM225 682q47 44 134 108l54 -41q-69 -31 -176 -84z" />
    <glyph glyph-name="zacute" unicode="&#x17a;" horiz-adv-x="424" 
d="M383 424l-245 -387l244 2v-39h-334v32l246 386l-248 -2v40h337v-32zM167 534q41 44 119 116l54 -39q-83 -45 -159 -95z" />
    <glyph glyph-name="Zdotaccent" unicode="&#x17b;" horiz-adv-x="544" 
d="M498 579l-350 -541h163q50 0 97 1t87 5v-44h-438v33l344 543h-156q-114 0 -184 -6v44h437v-35zM234.5 695q-13.5 13 -13.5 34t13.5 35t38.5 14t39 -13.5t14 -34.5t-14.5 -34.5t-38.5 -13.5q-25 0 -38.5 13z" />
    <glyph glyph-name="zdotaccent" unicode="&#x17c;" horiz-adv-x="424" 
d="M383 424l-245 -387l244 2v-39h-334v32l246 386l-248 -2v40h337v-32zM173.5 555q-13.5 13 -13.5 34t13.5 35t38.5 14t39 -13.5t14 -34.5t-14.5 -34.5t-38.5 -13.5q-25 0 -38.5 13z" />
    <glyph glyph-name="Zcaron" unicode="&#x17d;" horiz-adv-x="544" 
d="M498 579l-350 -541h163q50 0 97 1t87 5v-44h-438v33l344 543h-156q-114 0 -184 -6v44h437v-35zM397 771q-77 -69 -112 -102h-23q-18 18 -88 81l-24 21l19 19q72 -44 106 -67l62 40l44 27z" />
    <glyph glyph-name="zcaron" unicode="&#x17e;" horiz-adv-x="424" 
d="M383 424l-245 -387l244 2v-39h-334v32l246 386l-248 -2v40h337v-32zM336 641q-70 -64 -112 -110h-23q-51 54 -112 110l18 19q56 -36 106 -74q60 45 106 74z" />
    <glyph glyph-name="longs" unicode="&#x17f;" horiz-adv-x="305" 
d="M329.5 667q19.5 -5 39.5 -18l-17 -31q-31 20 -66 20q-56 0 -80 -41.5t-24 -122.5v-474h-76v423h-91v33h91v6q0 101 45 155.5t133 54.5q26 0 45.5 -5z" />
    <glyph glyph-name="florin" unicode="&#x192;" horiz-adv-x="403" 
d="M427 619.5q25 -7.5 43 -21.5l-23 -31q-16 14 -32.5 20.5t-36.5 6.5q-35 0 -55.5 -21t-31 -58.5t-19.5 -102.5l-10 -71h110v-33h-115l-29 -202q-16 -112 -57.5 -168t-125.5 -56q-24 0 -48 7.5t-41 22.5l22 31q16 -15 32 -21.5t37 -6.5q35 0 55 21t30.5 58.5t20.5 103.5
l30 210h-95v33h99l9 63q16 112 57.5 167.5t125.5 55.5q23 0 48 -7.5z" />
    <glyph glyph-name="uni01CD" unicode="&#x1cd;" horiz-adv-x="584" 
d="M399 191h-234l-70 -191h-60l249 614h42l229 -614h-88zM387 226l-103 291l-106 -291h209zM423 771q-77 -69 -112 -102h-23q-18 18 -88 81l-24 21l19 19q72 -44 106 -67l62 40l44 27z" />
    <glyph glyph-name="uni01CE" unicode="&#x1ce;" horiz-adv-x="490" 
d="M380.5 422.5q43.5 -46.5 43.5 -143.5v-279h-49l-22 79q-22 -47 -63.5 -70t-95.5 -23q-65 0 -111 34.5t-46 101.5q0 76 58 115t158 39q52 0 97 -8v19q0 69 -25 105.5t-90 36.5q-77 0 -143 -54l-20 37q33 27 81 42t95 15q89 0 132.5 -46.5zM311 73.5q39 42.5 39 123.5v39
q-47 7 -73 7q-77 0 -118.5 -29t-41.5 -85q0 -45 27 -71.5t71 -26.5q57 0 96 42.5zM366 641q-70 -64 -112 -110h-23q-51 54 -112 110l18 19q56 -36 106 -74q60 45 106 74z" />
    <glyph glyph-name="AEacute" unicode="&#x1fc;" horiz-adv-x="807" 
d="M765 46v-46h-347v192h-222l-111 -192h-70l376 614h373v-47q-84 8 -183 8h-85v-246h37q61 0 177 4v-46q-97 5 -177 5h-37v-253h92q94 0 177 7zM418 226v349h-1l-202 -349h203zM448 682q47 44 134 108l54 -41q-69 -31 -176 -84z" />
    <glyph glyph-name="aeacute" unicode="&#x1fd;" horiz-adv-x="786" 
d="M741 234h-314q2 -90 42 -148t119 -58q35 0 62 9.5t56 30.5l19 -30q-63 -52 -153 -52q-72 0 -121.5 29.5t-75.5 80.5q-22 -55 -70.5 -82.5t-110.5 -27.5q-65 0 -111 34.5t-46 101.5q0 71 58 108t158 37h98v18q0 71 -24.5 107.5t-89.5 36.5q-38 0 -75.5 -14t-69.5 -40
l-20 37q34 27 82 42t95 15q113 0 153 -74q29 35 70.5 54.5t90.5 19.5q91 0 136 -57t45 -146q0 -17 -3 -32zM466.5 389.5q-35.5 -48.5 -39.5 -123.5h233q2 10 2 26q0 58 -24.5 102t-77.5 44q-58 0 -93.5 -48.5zM311.5 73.5q39.5 42.5 39.5 123.5v36h-74q-77 0 -118.5 -27
t-41.5 -81q0 -43 27 -68.5t71 -25.5q57 0 96.5 42.5zM378 534q41 44 119 116l54 -39q-83 -45 -159 -95z" />
    <glyph glyph-name="Oslashacute" unicode="&#x1fe;" horiz-adv-x="735" 
d="M605 538q38 -41 58 -99t20 -128q0 -94 -43 -168.5t-114.5 -115.5t-154.5 -41q-119 0 -200 62l-54 -62h-56l79 90q-38 41 -58 99t-20 128q0 94 43 168t114.5 115t154.5 41q121 0 199 -61l55 61h55zM189 130l343 389q-58 71 -156 71q-71 0 -123 -40t-79 -105t-27 -138
q0 -105 42 -177zM556 484l-344 -389q61 -72 157 -72q71 0 123 40t79 105.5t27 138.5q0 105 -42 177zM318 682q47 44 134 108l54 -41q-69 -31 -176 -84z" />
    <glyph glyph-name="oslashacute" unicode="&#x1ff;" horiz-adv-x="541" 
d="M441 399q54 -62 54 -170q0 -71 -31 -126.5t-82.5 -86t-110.5 -30.5q-84 0 -143 45l-38 -45h-48l59 70q-54 65 -54 171q0 71 31 126t83 85.5t111 30.5q86 0 142 -44l38 44h48zM148 111l228 270q-37 55 -104 55q-68 0 -106 -60.5t-38 -147.5q0 -68 20 -117zM394 344
l-228 -269q38 -56 105 -56q68 0 105.5 61.5t37.5 148.5q0 68 -20 115zM224 534q41 44 119 116l54 -39q-83 -45 -159 -95z" />
    <glyph glyph-name="Scommaaccent" unicode="&#x218;" horiz-adv-x="480" 
d="M130.5 1.5q-46.5 15.5 -80.5 43.5l27 41q35 -30 76 -45t83 -15q60 0 95.5 32t35.5 84q0 43 -28.5 73.5t-88.5 60.5l-71 36q-60 31 -86 70.5t-26 88.5q0 70 53 113t143 43q51 0 93.5 -12t71.5 -32l-21 -40q-60 46 -137 46q-59 0 -95.5 -25.5t-36.5 -71.5q0 -40 23 -65
t84 -57l73 -38q63 -33 92 -72t29 -96q0 -80 -56 -129t-152 -49q-54 0 -100.5 15.5zM207 -189q1 51 10 136h70q-26 -67 -46 -136h-34z" />
    <glyph glyph-name="scommaaccent" unicode="&#x219;" horiz-adv-x="412" 
d="M124.5 -3q-41.5 11 -77.5 37l22 38q65 -46 136 -46q46 0 73.5 19.5t27.5 56.5q0 33 -20.5 51t-69.5 41l-58 26q-96 44 -96 122q0 59 45.5 93t117.5 34q39 0 71 -7.5t61 -25.5l-17 -38q-30 19 -57.5 27t-57.5 8q-44 0 -71.5 -18.5t-27.5 -49.5q0 -27 17 -45t56 -36l74 -35
q52 -24 74 -54.5t22 -70.5q0 -66 -47.5 -102t-116.5 -36q-39 0 -80.5 11zM172 -189q1 51 10 136h70q-26 -67 -46 -136h-34z" />
    <glyph glyph-name="uni021A" unicode="&#x21a;" horiz-adv-x="487" 
d="M486 614v-47q-41 4 -70 5.5t-70 1.5h-57v-574h-80v574h-60q-40 0 -68.5 -1.5t-69.5 -5.5v47h475zM206 -189q1 51 10 136h70q-26 -67 -46 -136h-34z" />
    <glyph glyph-name="uni021B" unicode="&#x21b;" horiz-adv-x="357" 
d="M339 25q-47 -39 -106 -39q-71 0 -98.5 50t-27.5 139v248h-91v33h91v123h75v-123h138v-33h-138v-235q0 -80 14 -121.5t58 -41.5q16 0 34 7.5t33 20.5zM185 -189q1 51 10 136h70q-26 -67 -46 -136h-34z" />
    <glyph glyph-name="uni0237" unicode="&#x237;" horiz-adv-x="242" 
d="M12 -150q44 29 61 70.5t17 123.5v412h76v-355q0 -108 -30 -175.5t-108 -103.5z" />
    <glyph glyph-name="circumflex" unicode="&#x2c6;" horiz-adv-x="543" 
d="M355 532q-52 32 -106 73q-56 -41 -106 -73l-17 19q60 54 112 110h23q52 -56 112 -110z" />
    <glyph glyph-name="caron" unicode="&#x2c7;" horiz-adv-x="543" 
d="M373 641q-70 -64 -112 -110h-23q-51 54 -112 110l18 19q56 -36 106 -74q60 45 106 74z" />
    <glyph glyph-name="breve" unicode="&#x2d8;" horiz-adv-x="543" 
d="M178.5 552.5q-32.5 24.5 -49.5 75.5l23 11q20 -34 45 -47.5t56 -13.5q30 0 52.5 14t44.5 48l21 -11q-17 -52 -48.5 -76.5t-71.5 -24.5t-72.5 24.5z" />
    <glyph glyph-name="dotaccent" unicode="&#x2d9;" horiz-adv-x="543" 
d="M211.5 555q-13.5 13 -13.5 34t13.5 35t38.5 14t39 -13.5t14 -34.5t-14.5 -34.5t-38.5 -13.5q-25 0 -38.5 13z" />
    <glyph glyph-name="ring" unicode="&#x2da;" horiz-adv-x="543" 
d="M184.5 534q-23.5 18 -23.5 52t26 55t62 21q42 0 66 -19t24 -54q0 -33 -26.5 -53t-62.5 -20q-42 0 -65.5 18zM280.5 553.5q11.5 15.5 11.5 36.5t-9.5 36t-32.5 15q-20 0 -31 -15.5t-11 -36.5q0 -51 42 -51q19 0 30.5 15.5z" />
    <glyph glyph-name="ogonek" unicode="&#x2db;" horiz-adv-x="543" 
d="M176 -173.5q-18 15.5 -18 43.5q0 57 97 130h39q-37 -27 -56.5 -57.5t-19.5 -57.5q0 -16 8.5 -24.5t23.5 -8.5t31 8l12 -26q-32 -23 -70 -23q-29 0 -47 15.5z" />
    <glyph glyph-name="tilde" unicode="&#x2dc;" horiz-adv-x="543" 
d="M277.5 536.5q-10.5 4.5 -22.5 13.5l-35 27q-16 13 -31 13q-13 0 -23.5 -13t-23.5 -41l-26 16q38 87 83 87q15 0 24.5 -4t22.5 -14l36 -23q20 -14 31 -14q12 0 22 11.5t24 37.5l26 -14q-16 -40 -37 -63.5t-45 -23.5q-15 0 -25.5 4.5z" />
    <glyph glyph-name="hungarumlaut" unicode="&#x2dd;" horiz-adv-x="543" 
d="M95 526q45 67 96 126l56 -25q-60 -46 -135 -112zM233 529q36 43 111 112l56 -30q-66 -39 -121 -76l-31 -20z" />
    <glyph glyph-name="gravecomb" unicode="&#x300;" 
d="M-340 603l49 50q57 -44 138 -117l-16 -20q-88 49 -171 87z" />
    <glyph glyph-name="acutecomb" unicode="&#x301;" 
d="M-322 534q41 44 119 116l54 -39q-83 -45 -159 -95z" />
    <glyph glyph-name="uni0302" unicode="&#x302;" 
d="M-145 532q-52 32 -106 73q-56 -41 -106 -73l-17 19q60 54 112 110h23q52 -56 112 -110z" />
    <glyph glyph-name="tildecomb" unicode="&#x303;" 
d="M-222.5 536.5q-10.5 4.5 -22.5 13.5l-35 27q-16 13 -31 13q-13 0 -23.5 -13t-23.5 -41l-26 16q38 87 83 87q15 0 24.5 -4t22.5 -14l36 -23q20 -14 31 -14q12 0 22 11.5t24 37.5l26 -14q-16 -40 -37 -63.5t-45 -23.5q-15 0 -25.5 4.5z" />
    <glyph glyph-name="uni0304" unicode="&#x304;" 
d="M-365 612h230v-43h-230v43z" />
    <glyph glyph-name="uni0306" unicode="&#x306;" 
d="M-321.5 552.5q-32.5 24.5 -49.5 75.5l23 11q20 -34 45 -47.5t56 -13.5q30 0 52.5 14t44.5 48l21 -11q-17 -52 -48.5 -76.5t-71.5 -24.5t-72.5 24.5z" />
    <glyph glyph-name="uni0307" unicode="&#x307;" 
d="M-288.5 555q-13.5 13 -13.5 34t13.5 35t38.5 14t39 -13.5t14 -34.5t-14.5 -34.5t-38.5 -13.5q-25 0 -38.5 13z" />
    <glyph glyph-name="uni0308" unicode="&#x308;" 
d="M-368 554q-12 13 -12 32q0 21 12 34t33 13q20 0 33 -13t13 -33q0 -18 -13.5 -32t-33.5 -14t-32 13zM-198.5 554q-12.5 13 -12.5 32q0 21 13 34t34 13q20 0 32 -13t12 -33q0 -19 -12.5 -32.5t-32.5 -13.5q-21 0 -33.5 13z" />
    <glyph glyph-name="uni030A" unicode="&#x30a;" 
d="M-315.5 534q-23.5 18 -23.5 52t26 55t62 21q42 0 66 -19t24 -54q0 -33 -26.5 -53t-62.5 -20q-42 0 -65.5 18zM-219.5 553.5q11.5 15.5 11.5 36.5t-9.5 36t-32.5 15q-20 0 -31 -15.5t-11 -36.5q0 -51 42 -51q19 0 30.5 15.5z" />
    <glyph glyph-name="uni030B" unicode="&#x30b;" 
d="M-405 526q45 67 96 126l56 -25q-60 -46 -135 -112zM-267 529q36 43 111 112l56 -30q-66 -39 -121 -76l-31 -20z" />
    <glyph glyph-name="uni030C" unicode="&#x30c;" 
d="M-127 641q-70 -64 -112 -110h-23q-51 54 -112 110l18 19q56 -36 106 -74q60 45 106 74z" />
    <glyph glyph-name="uni0315" unicode="&#x315;" 
d="M-162 509q1 60 10 150h67q-32 -95 -46 -150h-31z" />
    <glyph glyph-name="uni0326" unicode="&#x326;" 
d="M-293 -189q1 51 10 136h70q-26 -67 -46 -136h-34z" />
    <glyph glyph-name="uni0327" unicode="&#x327;" 
d="M-195.5 -66.5q19.5 -17.5 19.5 -47.5q0 -34 -25 -54.5t-65 -20.5q-33 0 -59 13l10 32q19 -11 47 -11q16 0 28.5 8t12.5 25q0 16 -11 23.5t-28 8.5q-20 0 -33 -4l27 95h35l-16 -50h7q31 0 50.5 -17.5z" />
    <glyph glyph-name="uni0328" unicode="&#x328;" 
d="M-324 -173.5q-18 15.5 -18 43.5q0 57 97 130h39q-37 -27 -56.5 -57.5t-19.5 -57.5q0 -16 8.5 -24.5t23.5 -8.5t31 8l12 -26q-32 -23 -70 -23q-29 0 -47 15.5z" />
    <glyph glyph-name="uni0394" unicode="&#x394;" horiz-adv-x="594" 
d="M572 44v-44h-550v44l263 570h42zM286 518l-201 -466h392z" />
    <glyph glyph-name="uni03A9" unicode="&#x3a9;" horiz-adv-x="687" 
d="M654 64v-64h-228v120q55 35 89 105.5t34 146.5q0 95 -50.5 156.5t-145.5 61.5q-67 0 -113 -30.5t-69 -81.5t-23 -112q0 -78 34 -144t91 -102v-120h-228v64h194v34q-79 36 -129.5 103.5t-50.5 162.5q0 79 39.5 138.5t107 92t147.5 32.5q78 0 143.5 -30.5t104 -89
t38.5 -137.5q0 -93 -51.5 -163t-128.5 -104v-39h195z" />
    <glyph glyph-name="uni03BC" unicode="&#x3bc;" horiz-adv-x="577" 
d="M569 15q-36 -29 -79 -29q-34 0 -54.5 20t-25.5 70q-26 -45 -66.5 -67.5t-89.5 -22.5q-55 0 -95 34v-209h-77v645h77v-242q0 -87 24 -136t88 -49q61 0 98.5 52t37.5 131v244h77v-359q0 -65 32 -65q19 0 37 14z" />
    <glyph glyph-name="pi" unicode="&#x3c0;" horiz-adv-x="624" 
d="M568 15q-19 -14 -36.5 -21.5t-41.5 -7.5q-40 0 -62 26.5t-22 96.5v308h-194v-417h-76v417h-66v39h483v-39h-70v-321q0 -33 7.5 -49t24.5 -16q18 0 37 13z" />
    <glyph glyph-name="Wgrave" unicode="&#x1e80;" horiz-adv-x="870" 
d="M850 614q-108 -378 -199 -614h-39l-158 478q-35 -121 -78.5 -249t-87.5 -229h-39l-217 614h87l168 -501q64 170 157 501h43l165 -494q77 238 127 494h71zM335 747l43 48q96 -63 148 -109l-15 -19q-54 27 -176 80z" />
    <glyph glyph-name="wgrave" unicode="&#x1e81;" horiz-adv-x="679" 
d="M668 456q-79 -275 -160 -456h-50l-111 332q-60 -189 -127 -332h-49l-156 456h80l121 -370q62 160 123 370h39l124 -370q28 77 54 176t44 194h68zM226 603l49 50q57 -44 138 -117l-16 -20q-88 49 -171 87z" />
    <glyph glyph-name="Wacute" unicode="&#x1e82;" horiz-adv-x="870" 
d="M850 614q-108 -378 -199 -614h-39l-158 478q-35 -121 -78.5 -249t-87.5 -229h-39l-217 614h87l168 -501q64 170 157 501h43l165 -494q77 238 127 494h71zM417 682q47 44 134 108l54 -41q-69 -31 -176 -84z" />
    <glyph glyph-name="wacute" unicode="&#x1e83;" horiz-adv-x="679" 
d="M668 456q-79 -275 -160 -456h-50l-111 332q-60 -189 -127 -332h-49l-156 456h80l121 -370q62 160 123 370h39l124 -370q28 77 54 176t44 194h68zM316 534q41 44 119 116l54 -39q-83 -45 -159 -95z" />
    <glyph glyph-name="Wdieresis" unicode="&#x1e84;" horiz-adv-x="870" 
d="M850 614q-108 -378 -199 -614h-39l-158 478q-35 -121 -78.5 -249t-87.5 -229h-39l-217 614h87l168 -501q64 170 157 501h43l165 -494q77 238 127 494h71zM348 696q-12 13 -12 32q0 21 12 34t33 13q20 0 33 -13t13 -33q0 -18 -13.5 -32t-33.5 -14t-32 13zM517.5 696
q-12.5 13 -12.5 32q0 21 13 34t34 13q20 0 32 -13t12 -33q0 -19 -12.5 -32.5t-32.5 -13.5q-21 0 -33.5 13z" />
    <glyph glyph-name="wdieresis" unicode="&#x1e85;" horiz-adv-x="679" 
d="M668 456q-79 -275 -160 -456h-50l-111 332q-60 -189 -127 -332h-49l-156 456h80l121 -370q62 160 123 370h39l124 -370q28 77 54 176t44 194h68zM244 554q-12 13 -12 32q0 21 12 34t33 13q20 0 33 -13t13 -33q0 -18 -13.5 -32t-33.5 -14t-32 13zM413.5 554
q-12.5 13 -12.5 32q0 21 13 34t34 13q20 0 32 -13t12 -33q0 -19 -12.5 -32.5t-32.5 -13.5q-21 0 -33.5 13z" />
    <glyph glyph-name="uni1E9E" unicode="&#x1e9e;" horiz-adv-x="616" 
d="M530.5 303q45.5 -48 45.5 -124q0 -57 -26 -101t-71 -68t-99 -24q-38 0 -72 11.5t-68 37.5l25 35q28 -24 55.5 -35t61.5 -11q49 0 79.5 41.5t30.5 103.5q0 61 -31.5 101.5t-94.5 40.5q-21 0 -38 -3.5t-37 -11.5v37q77 103 187 241h-298v-574h-79v614h435v-46l-110 -138
q-19 -22 -67 -83q17 4 38 4q88 0 133.5 -48z" />
    <glyph glyph-name="Ygrave" unicode="&#x1ef2;" horiz-adv-x="532" 
d="M320 269v-269h-80v267l-221 347h89l192 -304q99 181 156 304h70q-100 -178 -206 -345zM154 747l43 48q96 -63 148 -109l-15 -19q-54 27 -176 80z" />
    <glyph glyph-name="ygrave" unicode="&#x1ef3;" horiz-adv-x="535" 
d="M470 456v-406q0 -252 -226 -252q-76 0 -136 35l21 39q29 -17 61 -25.5t60 -8.5q79 0 111.5 48t32.5 138v68q-18 -46 -60 -72.5t-91 -26.5q-167 0 -167 198v265h76v-242q0 -77 21.5 -127t86.5 -50q60 0 96.5 54t36.5 147v218h77zM131 603l49 50q57 -44 138 -117l-16 -20
q-88 49 -171 87z" />
    <glyph glyph-name="uni2002" unicode="&#x2002;" horiz-adv-x="514" 
 />
    <glyph glyph-name="uni2003" unicode="&#x2003;" horiz-adv-x="874" 
 />
    <glyph glyph-name="uni2009" unicode="&#x2009;" horiz-adv-x="175" 
 />
    <glyph glyph-name="uni200A" unicode="&#x200a;" horiz-adv-x="55" 
 />
    <glyph glyph-name="endash" unicode="&#x2013;" horiz-adv-x="514" 
d="M40 251h434v-45h-434v45z" />
    <glyph glyph-name="emdash" unicode="&#x2014;" horiz-adv-x="874" 
d="M40 251h794v-47h-794v47z" />
    <glyph glyph-name="quoteleft" unicode="&#x2018;" horiz-adv-x="143" 
d="M112 487q12 -13 12 -34q0 -23 -15.5 -37.5t-39.5 -14.5q-29 0 -44 20t-15 55q0 48 26.5 87t74.5 65l16 -22q-35 -24 -50.5 -48.5t-15.5 -52.5v-9q8 4 19 4q20 0 32 -13z" />
    <glyph glyph-name="quoteright" unicode="&#x2019;" horiz-adv-x="143" 
d="M118 607q15 -20 15 -55q0 -48 -26.5 -87t-74.5 -65l-16 22q35 24 50.5 48.5t15.5 52.5v9q-8 -4 -19 -4q-20 0 -32 13t-12 34q0 23 15.5 37.5t39.5 14.5q29 0 44 -20z" />
    <glyph glyph-name="quotesinglbase" unicode="&#x201a;" horiz-adv-x="143" 
d="M120 65q15 -20 15 -55q0 -48 -26.5 -87t-74.5 -65l-16 22q35 24 50.5 48.5t15.5 52.5v9q-8 -4 -19 -4q-20 0 -32 13t-12 34q0 23 15.5 37.5t39.5 14.5q29 0 44 -20z" />
    <glyph glyph-name="quotedblleft" unicode="&#x201c;" horiz-adv-x="290" 
d="M76.5 557.5q-15.5 -24.5 -15.5 -52.5v-9q8 4 19 4q20 0 32 -13t12 -34q0 -23 -15.5 -37.5t-39.5 -14.5q-29 0 -44 20t-15 55q0 48 26.5 87t74.5 65l16 -22q-35 -24 -50.5 -48.5zM259 487q12 -13 12 -34q0 -23 -15.5 -37.5t-39.5 -14.5q-29 0 -44 20t-15 55q0 48 26.5 87
t74.5 65l16 -22q-35 -24 -50.5 -48.5t-15.5 -52.5v-9q8 4 19 4q20 0 32 -13z" />
    <glyph glyph-name="quotedblright" unicode="&#x201d;" horiz-adv-x="290" 
d="M118 607q15 -20 15 -55q0 -48 -26.5 -87t-74.5 -65l-16 22q35 24 50.5 48.5t15.5 52.5v9q-8 -4 -19 -4q-20 0 -32 13t-12 34q0 23 15.5 37.5t39.5 14.5q29 0 44 -20zM265 607q15 -20 15 -55q0 -48 -26.5 -87t-74.5 -65l-16 22q35 24 50.5 48.5t15.5 52.5v9q-8 -4 -19 -4
q-20 0 -32 13t-12 34q0 23 15.5 37.5t39.5 14.5q29 0 44 -20z" />
    <glyph glyph-name="quotedblbase" unicode="&#x201e;" horiz-adv-x="290" 
d="M120 65q15 -20 15 -55q0 -48 -26.5 -87t-74.5 -65l-16 22q35 24 50.5 48.5t15.5 52.5v9q-8 -4 -19 -4q-20 0 -32 13t-12 34q0 23 15.5 37.5t39.5 14.5q29 0 44 -20zM267 65q15 -20 15 -55q0 -48 -26.5 -87t-74.5 -65l-16 22q35 24 50.5 48.5t15.5 52.5v9q-8 -4 -19 -4
q-20 0 -32 13t-12 34q0 23 15.5 37.5t39.5 14.5q29 0 44 -20z" />
    <glyph glyph-name="dagger" unicode="&#x2020;" horiz-adv-x="426" 
d="M406 354q-109 22 -177 29q12 -91 30 -161q-30 -172 -30 -373v-7h-33v7q0 201 -30 373q15 62 31 161q-68 -7 -177 -29v91q79 -17 177 -31q-14 128 -31 200h93q-19 -79 -30 -200q98 14 177 31v-91z" />
    <glyph glyph-name="daggerdbl" unicode="&#x2021;" horiz-adv-x="426" 
d="M406 354q-109 22 -177 29q11 -79 30 -149q-14 -63 -30 -162q88 11 177 30v-91q-102 22 -177 30q12 -125 30 -199h-93q16 66 31 199q-75 -8 -177 -30v91q89 -19 177 -30q-16 102 -31 162q17 60 30 149q-67 -7 -176 -29v91q79 -17 177 -31q-14 129 -31 200h93
q-19 -78 -30 -200q98 14 177 31v-91z" />
    <glyph glyph-name="bullet" unicode="&#x2022;" horiz-adv-x="466" 
d="M139.5 160q-37.5 39 -37.5 96q0 58 37.5 97t93.5 39t93.5 -39t37.5 -96q0 -58 -37.5 -97t-92.5 -39q-57 0 -94.5 39z" />
    <glyph glyph-name="ellipsis" unicode="&#x2026;" horiz-adv-x="672" 
d="M50 0.5q-15 14.5 -15 36.5q0 23 15 37.5t40 14.5q24 0 38 -14.5t14 -37.5q0 -22 -14 -36.5t-39 -14.5q-24 0 -39 14.5zM298 0.5q-15 14.5 -15 36.5q0 23 15 37.5t40 14.5q24 0 38 -14.5t14 -37.5q0 -22 -14 -36.5t-39 -14.5q-24 0 -39 14.5zM545 0.5q-15 14.5 -15 36.5
q0 23 15 37.5t40 14.5q24 0 38 -14.5t14 -37.5q0 -22 -14 -36.5t-39 -14.5q-24 0 -39 14.5z" />
    <glyph glyph-name="perthousand" unicode="&#x2030;" horiz-adv-x="917" 
d="M90 385q-29 19 -43.5 48.5t-14.5 61.5q0 33 15 63t44.5 49t69.5 19q60 0 92.5 -39t32.5 -91q0 -32 -14.5 -62t-43.5 -49t-68 -19q-41 0 -70 19zM474 614h55l-400 -614h-55zM207 421q16 30 16 75t-16 75t-47 30t-48 -31t-17 -75q0 -43 17.5 -73.5t48.5 -30.5q30 0 46 30z
M387 7q-29 19 -43.5 49t-14.5 62t15 62t44 49t69 19q41 0 69.5 -19t42.5 -48.5t14 -61.5q0 -33 -15 -63t-43.5 -49t-68.5 -19t-69 19zM698.5 7q-28.5 19 -43 48.5t-14.5 62.5q0 32 15 62t44 49t69 19q60 0 92.5 -39t32.5 -90q0 -33 -15 -63t-43.5 -49t-67.5 -19
q-41 0 -69.5 19zM504 43.5q16 30.5 16 75.5q0 44 -16.5 74.5t-47.5 30.5t-47.5 -31t-16.5 -75t17 -74.5t48 -30.5t47 30.5zM816 43.5q16 30.5 16 75.5q0 44 -16.5 74.5t-47.5 30.5t-48 -31t-17 -75q0 -43 17.5 -74t48.5 -31t47 30.5z" />
    <glyph glyph-name="guilsinglleft" unicode="&#x2039;" horiz-adv-x="181" 
d="M88 227q6 -8 34 -48t53 -85l-27 -17q-66 78 -139 145v2q56 53 139 143l27 -14q-36 -59 -87 -126z" />
    <glyph glyph-name="guilsinglright" unicode="&#x203a;" horiz-adv-x="181" 
d="M172 222v-2q-56 -53 -139 -143l-27 14q36 59 87 126q-6 8 -34 48t-53 85l27 17q66 -78 139 -145z" />
    <glyph glyph-name="fraction" unicode="&#x2044;" horiz-adv-x="477" 
d="M411 614h55l-400 -614h-55z" />
    <glyph glyph-name="Euro" unicode="&#x20ac;" horiz-adv-x="567" 
d="M555 43q-38 -29 -85 -43t-97 -14q-126 0 -206 66t-97 186h-65v32h62q-1 9 -1 29q0 14 2 40h-63v32h67q15 79 59.5 137t110.5 88.5t144 30.5q97 0 166 -39l-24 -42q-63 41 -142 41q-93 0 -152.5 -59.5t-75.5 -156.5h203v-32h-207q-1 -10 -1 -30q0 -13 2 -39h206v-32h-203
q16 -96 73 -153t148 -57q95 0 155 49z" />
    <glyph glyph-name="uni2113" unicode="&#x2113;" horiz-adv-x="405" 
d="M345 59l21 -27q-47 -46 -123 -46q-78 0 -116.5 43.5t-38.5 148.5v17q-57 2 -72 4v38q28 -3 72 -5v195q0 200 151 200q68 0 103 -41.5t35 -108.5q0 -69 -26 -130t-74.5 -101t-113.5 -49v-32q0 -70 23 -105.5t74 -35.5q48 0 85 35zM179 556q-16 -36 -16 -107v-214
q69 12 105 75.5t36 163.5q0 59 -18 88.5t-52 29.5q-39 0 -55 -36z" />
    <glyph glyph-name="uni2116" unicode="&#x2116;" horiz-adv-x="998" 
d="M583 614v-614h-42l-400 487v-487h-45v614h43l399 -487v487h45zM697.5 339.5q-41.5 43.5 -41.5 121.5q0 51 22.5 88.5t59.5 57.5t80 20q73 0 114 -42t41 -122q0 -49 -22 -87t-59 -59t-80 -21q-73 0 -114.5 43.5zM878.5 364q23.5 42 23.5 100q0 60 -20.5 98.5t-63.5 38.5
q-44 0 -67.5 -40t-23.5 -100q0 -57 21 -98t64 -41t66.5 42zM672 253h279v-35h-279v35z" />
    <glyph glyph-name="trademark" unicode="&#x2122;" horiz-adv-x="724" 
d="M10 672h268v-36q-44 5 -82 5h-22v-286h-60v286h-23q-39 0 -81 -5v36zM628 355l-13 243l-111 -220h-30l-112 219l-10 -242h-41l23 317h52l117 -227l115 227h51l18 -317h-59z" />
    <glyph glyph-name="uni2126" unicode="&#x2126;" horiz-adv-x="687" 
d="M654 64v-64h-228v120q55 35 89 105.5t34 146.5q0 95 -50.5 156.5t-145.5 61.5q-67 0 -113 -30.5t-69 -81.5t-23 -112q0 -78 34 -144t91 -102v-120h-228v64h194v34q-79 36 -129.5 103.5t-50.5 162.5q0 79 39.5 138.5t107 92t147.5 32.5q78 0 143.5 -30.5t104 -89
t38.5 -137.5q0 -93 -51.5 -163t-128.5 -104v-39h195z" />
    <glyph glyph-name="estimated" unicode="&#x212e;" horiz-adv-x="800" 
d="M219.5 30q-82.5 43 -131 117t-48.5 162t48.5 162t131 117t180.5 43q97 0 179.5 -43t131 -117t48.5 -162v-8h-581q-7 0 -7 -5v-176q0 -8 10 -20q42 -44 99 -68.5t121 -24.5q69 0 129 28t101 77h54q-52 -58 -126.5 -91.5t-158.5 -33.5q-98 0 -180.5 43zM621 319q7 0 7 5
v177q0 11 -11 22q-43 42 -98.5 65.5t-117.5 23.5q-64 0 -120.5 -24t-99.5 -68q-10 -12 -10 -23v-173q0 -5 7 -5h443z" />
    <glyph glyph-name="arrowleft" unicode="&#x2190;" horiz-adv-x="723" 
d="M680 195q-247 11 -475 11q55 -43 121 -144l-25 -21q-58 66 -129 111t-151 67v24q80 21 150.5 66.5t126.5 111.5l28 -21q-66 -101 -121 -144q298 0 475 9v-70z" />
    <glyph glyph-name="arrowup" unicode="&#x2191;" horiz-adv-x="510" 
d="M333.5 508.5q45.5 -70.5 111.5 -126.5l-21 -28q-101 66 -144 121q0 -298 9 -475h-70q11 247 11 475q-43 -55 -144 -121l-21 25q66 58 111 129t67 151h24q21 -80 66.5 -150.5z" />
    <glyph glyph-name="arrowright" unicode="&#x2192;" horiz-adv-x="723" 
d="M551 306q71 -45 151 -67v-24q-80 -21 -150.5 -66.5t-126.5 -111.5l-28 21q66 101 121 144q-298 0 -475 -9v70q247 -11 475 -11q-55 43 -121 144l25 21q58 -66 129 -111z" />
    <glyph glyph-name="arrowdown" unicode="&#x2193;" horiz-adv-x="507" 
d="M442 278q-66 -58 -111 -129t-67 -151h-24q-21 80 -66.5 150.5t-111.5 126.5l21 28q101 -66 144 -121q0 298 -9 475h70q-11 -247 -11 -475q43 55 144 121z" />
    <glyph glyph-name="partialdiff" unicode="&#x2202;" horiz-adv-x="534" 
d="M410 548q77 -103 77 -268q0 -93 -28.5 -159.5t-80.5 -100.5t-121 -34q-93 0 -151.5 60.5t-58.5 176.5q0 71 31.5 125.5t82.5 83.5t109 29q38 0 71 -13t56 -38q-17 100 -75 158t-180 80l11 25q180 -22 257 -125zM369.5 89.5q36.5 65.5 36.5 186.5q0 27 -2 73
q-25 38 -58.5 55.5t-67.5 17.5q-52 0 -85.5 -29.5t-49 -75t-15.5 -93.5q0 -55 16 -101t45.5 -72.5t67.5 -26.5q76 0 112.5 65.5z" />
    <glyph glyph-name="uni2206" unicode="&#x2206;" horiz-adv-x="594" 
d="M572 44v-44h-550v44l263 570h42zM286 518l-201 -466h392z" />
    <glyph glyph-name="product" unicode="&#x220f;" horiz-adv-x="695" 
d="M653 576h-71v-765h-77v765h-315v-765h-77v765h-71v38h611v-38z" />
    <glyph glyph-name="summation" unicode="&#x2211;" horiz-adv-x="496" 
d="M479 576h-346l192 -335l-204 -365h358v-65h-437v43l204 366l-203 353v41h436v-38z" />
    <glyph glyph-name="minus" unicode="&#x2212;" horiz-adv-x="524" 
d="M55 250h414v-42h-414v42z" />
    <glyph glyph-name="radical" unicode="&#x221a;" horiz-adv-x="548" 
d="M557 593l-278 -691h-37l-145 328h-87v41h122l130 -292l247 614h48z" />
    <glyph glyph-name="infinity" unicode="&#x221e;" horiz-adv-x="672" 
d="M602.5 330q37.5 -38 37.5 -99q0 -62 -38.5 -102t-96.5 -40q-49 0 -89 27t-84 79q-42 -53 -80.5 -79.5t-86.5 -26.5q-58 0 -95.5 38t-37.5 100t38.5 101.5t96.5 39.5q49 0 89 -27t84 -79q42 53 80.5 79.5t86.5 26.5q58 0 95.5 -38zM575 162.5q25 25.5 25 68.5t-27 71
t-68 28q-36 0 -70 -26t-71 -72q46 -51 77 -73t67 -22q42 0 67 25.5zM237.5 152.5q34.5 26.5 70.5 72.5q-49 54 -78.5 74.5t-65.5 20.5q-42 0 -67 -25.5t-25 -68.5t27 -71.5t68 -28.5q36 0 70.5 26.5z" />
    <glyph glyph-name="integral" unicode="&#x222b;" horiz-adv-x="326" 
d="M15 -195.5q-20 6.5 -34 19.5l20 31q21 -21 50 -21q31 0 46.5 20t20.5 59.5t5 110.5v418q0 115 34.5 172.5t111.5 57.5q47 0 75 -25l-20 -31q-10 10 -24 15.5t-27 5.5q-31 0 -46 -20t-20 -59.5t-5 -111.5v-417q0 -115 -35 -173t-111 -58q-21 0 -41 6.5z" />
    <glyph glyph-name="approxequal" unicode="&#x2248;" horiz-adv-x="524" 
d="M37 281q44 82 126 82q17 0 33.5 -3.5t42.5 -13.5l72 -30q22 -9 34 -12t25 -3q25 0 44.5 12.5t41.5 46.5l30 -20q-23 -41 -52.5 -62t-71.5 -21q-29 0 -66 16l-67 27q-5 2 -19.5 8t-26.5 9t-23 3q-30 0 -51 -13t-42 -46zM37 110q44 82 126 82q17 0 34 -3.5t42 -14.5l72 -29
q20 -8 32.5 -11.5t26.5 -3.5q25 0 44.5 12.5t41.5 46.5l30 -21q-23 -41 -52.5 -61.5t-71.5 -20.5q-28 0 -66 15l-67 27q-5 2 -19.5 8t-26.5 9t-23 3q-30 0 -51 -13t-42 -46z" />
    <glyph glyph-name="notequal" unicode="&#x2260;" horiz-adv-x="524" 
d="M381 346h88v-40h-120l-122 -152h242v-40h-274l-91 -114h-49l91 114h-91v40h123l122 152h-245v40h277l88 110h49z" />
    <glyph glyph-name="lessequal" unicode="&#x2264;" horiz-adv-x="524" 
d="M459 448l-348 -154l348 -155v-49l-414 184v40l414 183v-49zM45 41h414v-41h-414v41z" />
    <glyph glyph-name="greaterequal" unicode="&#x2265;" horiz-adv-x="524" 
d="M479 314v-40l-414 -184v49l348 155l-348 154v49zM65 41h414v-41h-414v41z" />
    <glyph glyph-name="dotmath" unicode="&#x22c5;" horiz-adv-x="524" 
d="M223 187.5q-15 14.5 -15 36.5q0 23 15 37.5t40 14.5q24 0 38 -14.5t14 -37.5q0 -22 -14 -36.5t-39 -14.5q-24 0 -39 14.5z" />
    <glyph glyph-name="lozenge" unicode="&#x25ca;" horiz-adv-x="524" 
d="M484 330l-214 -330h-41l-189 293l214 321h43zM264 60l161 248l-164 248l-162 -241z" />
    <glyph glyph-name="uniF8FF" unicode="&#xf8ff;" horiz-adv-x="541" 
d="M107.5 552q-7.5 8 -7.5 21q0 11 7.5 19t19.5 8q11 0 19.5 -8.5t8.5 -18.5q0 -12 -8.5 -20.5t-19.5 -8.5q-12 0 -19.5 8zM167 552.5q-8 8.5 -8 20.5q0 11 8.5 19t18.5 8q12 0 20 -8t8 -19q0 -13 -8 -21t-20 -8q-11 0 -19 8.5zM225.5 552.5q-8.5 8.5 -8.5 20.5q0 10 9 18.5
t20 8.5t19 -8t8 -19q0 -13 -8 -21t-19 -8q-12 0 -20.5 8.5zM286.5 552q-7.5 8 -7.5 21q0 11 7.5 19t18.5 8t20 -8.5t9 -18.5q0 -12 -8.5 -20.5t-20.5 -8.5q-11 0 -18.5 8zM345 552q-8 8 -8 21q0 11 8.5 19t20.5 8q10 0 18.5 -8.5t8.5 -18.5q0 -12 -8.5 -20.5t-18.5 -8.5
q-13 0 -21 8zM404.5 552.5q-8.5 8.5 -8.5 20.5q0 10 8.5 18.5t19.5 8.5q12 0 19.5 -8t7.5 -19q0 -13 -7.5 -21t-19.5 -8q-11 0 -19.5 8.5zM107.5 493q-7.5 8 -7.5 20q0 11 7.5 18.5t19.5 7.5q11 0 19.5 -7.5t8.5 -18.5t-8.5 -19.5t-19.5 -8.5q-12 0 -19.5 8zM107.5 433.5
q-7.5 8.5 -7.5 20.5q0 11 7.5 18.5t19.5 7.5q11 0 19.5 -8t8.5 -18q0 -12 -8.5 -20.5t-19.5 -8.5q-12 0 -19.5 8.5zM226 433.5q-9 8.5 -9 20.5q0 10 9 18t20 8t19 -7.5t8 -18.5q0 -12 -8 -20.5t-19 -8.5t-20 8.5zM286.5 433.5q-7.5 8.5 -7.5 20.5q0 11 7.5 18.5t18.5 7.5
t20 -8t9 -18q0 -12 -9 -20.5t-20 -8.5t-18.5 8.5zM345 433.5q-8 8.5 -8 20.5q0 11 8 18.5t21 7.5q10 0 18.5 -8t8.5 -18q0 -12 -8.5 -20.5t-18.5 -8.5q-13 0 -21 8.5zM404.5 433.5q-8.5 8.5 -8.5 20.5q0 10 8.5 18t19.5 8q12 0 19.5 -7.5t7.5 -18.5q0 -12 -7.5 -20.5
t-19.5 -8.5q-11 0 -19.5 8.5zM107.5 375q-7.5 8 -7.5 19t7.5 19t19.5 8q11 0 19.5 -8t8.5 -19t-8.5 -19t-19.5 -8q-12 0 -19.5 8zM226 375q-9 8 -9 19t9 19t20 8t19 -8t8 -19t-8 -19t-19 -8t-20 8zM107.5 314.5q-7.5 7.5 -7.5 19.5t7.5 20t19.5 8q11 0 19.5 -8.5t8.5 -19.5
q0 -12 -8.5 -19.5t-19.5 -7.5q-12 0 -19.5 7.5zM225.5 314.5q-8.5 7.5 -8.5 19.5q0 11 9 19.5t20 8.5t19 -8.5t8 -19.5q0 -12 -8 -19.5t-19 -7.5q-12 0 -20.5 7.5zM286.5 314.5q-7.5 7.5 -7.5 19.5q0 11 7.5 19.5t18.5 8.5t20 -8.5t9 -19.5q0 -12 -8.5 -19.5t-20.5 -7.5
q-11 0 -18.5 7.5zM345 314.5q-8 7.5 -8 19.5t8.5 20t20.5 8q10 0 18.5 -8.5t8.5 -19.5q0 -12 -8.5 -19.5t-18.5 -7.5q-13 0 -21 7.5zM404.5 314.5q-8.5 7.5 -8.5 19.5q0 11 8.5 19.5t19.5 8.5q12 0 19.5 -8t7.5 -20t-7.5 -19.5t-19.5 -7.5q-11 0 -19.5 7.5zM107.5 255
q-7.5 8 -7.5 20q0 11 7.5 19t19.5 8q11 0 19.5 -8t8.5 -19t-8.5 -19.5t-19.5 -8.5q-12 0 -19.5 8zM404.5 255.5q-8.5 8.5 -8.5 19.5t8.5 19t19.5 8q12 0 19.5 -8t7.5 -19q0 -12 -7.5 -20t-19.5 -8q-11 0 -19.5 8.5zM107.5 197q-7.5 8 -7.5 19t7.5 18.5t19.5 7.5
q11 0 19.5 -8t8.5 -18q0 -11 -8.5 -19t-19.5 -8q-12 0 -19.5 8zM226 197q-9 8 -9 19q0 10 9 18t20 8t19 -7.5t8 -18.5t-8 -19t-19 -8t-20 8zM286.5 197q-7.5 8 -7.5 19t7.5 18.5t18.5 7.5t20 -8t9 -18q0 -11 -9 -19t-20 -8t-18.5 8zM345 197q-8 8 -8 19t8 18.5t21 7.5
q10 0 18.5 -8t8.5 -18q0 -11 -8.5 -19t-18.5 -8q-13 0 -21 8zM404.5 197q-8.5 8 -8.5 19q0 10 8.5 18t19.5 8q12 0 19.5 -7.5t7.5 -18.5t-7.5 -19t-19.5 -8q-11 0 -19.5 8zM107.5 137q-7.5 8 -7.5 19t7.5 19t19.5 8q11 0 19.5 -8t8.5 -19t-8.5 -19t-19.5 -8q-12 0 -19.5 8z
M107.5 76.5q-7.5 7.5 -7.5 19.5t7.5 20t19.5 8q11 0 19.5 -8t8.5 -20t-8.5 -19.5t-19.5 -7.5q-12 0 -19.5 7.5zM225.5 76.5q-8.5 7.5 -8.5 19.5t8.5 20t20.5 8q11 0 19 -8t8 -20t-8 -19.5t-19 -7.5q-12 0 -20.5 7.5zM107.5 18q-7.5 8 -7.5 19q0 12 7.5 20t19.5 8
q11 0 19.5 -8.5t8.5 -19.5t-8.5 -19t-19.5 -8q-12 0 -19.5 8zM167 18q-8 8 -8 19t8 19.5t19 8.5q12 0 20 -8.5t8 -19.5t-8 -19t-20 -8q-11 0 -19 8zM226 18q-9 8 -9 19t9 19.5t20 8.5t19 -8.5t8 -19.5t-8 -19t-19 -8t-20 8z" />
    <glyph glyph-name="Iacute_J.loclNLD" horiz-adv-x="550" 
d="M101 614h80v-614h-80v614zM92 682q47 44 134 108l54 -41q-69 -31 -176 -84zM304 -90q45 29 64 75t19 127v502h80v-461q0 -107 -34.5 -170t-113.5 -99zM379 682q47 44 134 108l54 -41q-69 -31 -176 -84z" />
    <glyph glyph-name="Cacute.loclPLK" horiz-adv-x="563" 
d="M206.5 23q-69.5 37 -107.5 107.5t-38 168.5q0 99 42.5 173.5t115.5 114.5t162 40q98 0 167 -39l-24 -42q-64 41 -143 41q-72 0 -124.5 -37t-80 -100t-27.5 -141q0 -125 59 -203t167 -78q94 0 155 49l21 -34q-76 -57 -182 -57q-93 0 -162.5 37zM337 677q26 64 38 116
l74 -17q-43 -62 -86 -108z" />
    <glyph glyph-name="Nacute.loclPLK" horiz-adv-x="669" 
d="M583 614v-614h-42l-400 487v-487h-45v614h43l399 -487v487h45zM323 677q26 64 38 116l74 -17q-43 -62 -86 -108z" />
    <glyph glyph-name="Oacute.loclPLK" horiz-adv-x="734" 
d="M204 25.5q-70 39.5 -106.5 111t-36.5 166.5q0 94 43 168t115 115t155 41q97 0 166.5 -39t106 -110.5t36.5 -166.5q0 -94 -43 -168.5t-114.5 -115.5t-154.5 -41q-97 0 -167 39.5zM491 63q52 40 79 105.5t27 138.5q0 75 -24 139.5t-74 104t-124 39.5q-70 0 -122 -40
t-79 -105t-27 -138q0 -75 24 -140t74.5 -104.5t123.5 -39.5q70 0 122 40zM352 677q26 64 38 116l74 -17q-43 -62 -86 -108z" />
    <glyph glyph-name="Sacute.loclPLK" horiz-adv-x="480" 
d="M130.5 1.5q-46.5 15.5 -80.5 43.5l27 41q35 -30 76 -45t83 -15q60 0 95.5 32t35.5 84q0 43 -28.5 73.5t-88.5 60.5l-71 36q-60 31 -86 70.5t-26 88.5q0 70 53 113t143 43q51 0 93.5 -12t71.5 -32l-21 -40q-60 46 -137 46q-59 0 -95.5 -25.5t-36.5 -71.5q0 -40 23 -65
t84 -57l73 -38q63 -33 92 -72t29 -96q0 -80 -56 -129t-152 -49q-54 0 -100.5 15.5zM240 677q26 64 38 116l74 -17q-43 -62 -86 -108z" />
    <glyph glyph-name="Zacute.loclPLK" horiz-adv-x="544" 
d="M498 579l-350 -541h163q50 0 97 1t87 5v-44h-438v33l344 543h-156q-114 0 -184 -6v44h437v-35zM251 677q26 64 38 116l74 -17q-43 -62 -86 -108z" />
    <glyph glyph-name="i.loclTRK" horiz-adv-x="250" 
d="M86.5 556q-13.5 13 -13.5 34t13.5 35t38.5 14t38.5 -13.5t13.5 -34.5t-14 -34.5t-38 -13.5q-25 0 -38.5 13zM87 456h76v-456h-76v456z" />
    <glyph glyph-name="germandbls.calt" horiz-adv-x="616" 
d="M530.5 303q45.5 -48 45.5 -124q0 -57 -26 -101t-71 -68t-99 -24q-38 0 -72 11.5t-68 37.5l25 35q28 -24 55.5 -35t61.5 -11q49 0 79.5 41.5t30.5 103.5q0 61 -31.5 101.5t-94.5 40.5q-21 0 -38 -3.5t-37 -11.5v37q77 103 187 241h-298v-574h-79v614h435v-46l-110 -138
q-19 -22 -67 -83q17 4 38 4q88 0 133.5 -48z" />
    <glyph glyph-name="iacute_j.loclNLD" horiz-adv-x="492" 
d="M87 456h76v-456h-76v456zM80 534q41 44 119 116l54 -39q-83 -45 -159 -95zM262 -150q44 29 61 70.5t17 123.5v412h76v-355q0 -108 -30 -175.5t-108 -103.5zM332 534q41 44 119 116l54 -39q-83 -45 -159 -95z" />
    <glyph glyph-name="cacute.loclPLK" horiz-adv-x="443" 
d="M106.5 50.5q-59.5 64.5 -59.5 171.5q0 69 30.5 125.5t85.5 89t125 32.5q78 0 130 -35l-20 -37q-45 36 -100 36q-58 0 -95.5 -30.5t-55 -77.5t-17.5 -96q0 -91 41.5 -146t123.5 -55q63 0 107 39l19 -30q-24 -23 -64 -37t-83 -14q-108 0 -167.5 64.5zM235 524q15 32 29 70
t22 65l74 -20q-45 -68 -100 -127z" />
    <glyph glyph-name="nacute.loclPLK" horiz-adv-x="553" 
d="M440 416q40 -53 40 -143v-273h-77v247q0 79 -20 129t-84 50t-101.5 -53.5t-37.5 -148.5v-224h-77v456h50l23 -85q24 49 67 73.5t94 24.5q83 0 123 -53zM254 524q15 32 29 70t22 65l74 -20q-45 -68 -100 -127z" />
    <glyph glyph-name="oacute.loclPLK" horiz-adv-x="541" 
d="M107.5 49q-60.5 63 -60.5 178q0 71 31 126t82.5 85.5t110.5 30.5q102 0 162.5 -63t60.5 -177q0 -71 -31 -126.5t-82.5 -86t-110.5 -30.5q-102 0 -162.5 63zM375 80q37 61 37 149q0 89 -34.5 148t-106.5 59q-68 0 -105.5 -60.5t-37.5 -147.5q0 -90 35 -149.5t107 -59.5
q68 0 105 61zM229 524q15 32 29 70t22 65l74 -20q-45 -68 -100 -127z" />
    <glyph glyph-name="sacute.loclPLK" horiz-adv-x="412" 
d="M124.5 -3q-41.5 11 -77.5 37l22 38q65 -46 136 -46q46 0 73.5 19.5t27.5 56.5q0 33 -20.5 51t-69.5 41l-58 26q-96 44 -96 122q0 59 45.5 93t117.5 34q39 0 71 -7.5t61 -25.5l-17 -38q-30 19 -57.5 27t-57.5 8q-44 0 -71.5 -18.5t-27.5 -49.5q0 -27 17 -45t56 -36l74 -35
q52 -24 74 -54.5t22 -70.5q0 -66 -47.5 -102t-116.5 -36q-39 0 -80.5 11zM177 524q15 32 29 70t22 65l74 -20q-45 -68 -100 -127z" />
    <glyph glyph-name="zacute.loclPLK" horiz-adv-x="424" 
d="M383 424l-245 -387l244 2v-39h-334v32l246 386l-248 -2v40h337v-32zM172 524q15 32 29 70t22 65l74 -20q-45 -68 -100 -127z" />
    <glyph glyph-name="c_t.dlig" horiz-adv-x="800" 
d="M781 25q-46 -39 -105 -39q-71 0 -98.5 50t-27.5 139v248h-83v33h83v20q0 85 -23 122.5t-76 37.5q-40 0 -69 -24.5t-29 -69.5q0 -69 64 -108l-21 -35q-43 34 -98 34q-58 0 -95.5 -30.5t-55 -77.5t-17.5 -96q0 -91 41 -146t123 -55q64 0 108 39l19 -30q-25 -23 -64.5 -37
t-83.5 -14q-108 0 -167 64.5t-59 171.5q0 69 31 125.5t86 89t125 32.5q23 0 50 -5q-25 30 -25 77q0 64 45 97.5t106 33.5q81 0 120.5 -46.5t39.5 -135.5v-34h139v-33h-139v-235q0 -80 14 -121.5t57 -41.5q16 0 34.5 7.5t32.5 20.5z" />
    <glyph glyph-name="c_tcaron.dlig" horiz-adv-x="800" 
d="M730.5 32.5q18.5 7.5 32.5 20.5l18 -28q-46 -39 -105 -39q-71 0 -98.5 50t-27.5 139v248h-83v33h83v20q0 85 -23 122.5t-76 37.5q-40 0 -69 -24.5t-29 -69.5q0 -69 64 -108l-21 -35q-43 34 -98 34q-58 0 -95.5 -30.5t-55 -77.5t-17.5 -96q0 -91 41 -146t123 -55
q64 0 108 39l19 -30q-25 -23 -64.5 -37t-83.5 -14q-108 0 -167 64.5t-59 171.5q0 69 31 125.5t86 89t125 32.5q23 0 50 -5q-25 30 -25 77q0 64 45 97.5t106 33.5q81 0 120.5 -46.5t39.5 -135.5v-34h139v-33h-139v-235q0 -80 14 -121.5t57 -41.5q16 0 34.5 7.5zM736 519h-31
q2 41 10 140h67q-27 -76 -46 -140z" />
    <glyph glyph-name="uni0063021B.dlig" horiz-adv-x="800" 
d="M781 25q-46 -39 -105 -39q-71 0 -98.5 50t-27.5 139v248h-83v33h83v20q0 85 -23 122.5t-76 37.5q-40 0 -69 -24.5t-29 -69.5q0 -69 64 -108l-21 -35q-43 34 -98 34q-58 0 -95.5 -30.5t-55 -77.5t-17.5 -96q0 -91 41 -146t123 -55q64 0 108 39l19 -30q-25 -23 -64.5 -37
t-83.5 -14q-108 0 -167 64.5t-59 171.5q0 69 31 125.5t86 89t125 32.5q23 0 50 -5q-25 30 -25 77q0 64 45 97.5t106 33.5q81 0 120.5 -46.5t39.5 -135.5v-34h139v-33h-139v-235q0 -80 14 -121.5t57 -41.5q16 0 34.5 7.5t32.5 20.5zM628 -189q1 51 10 136h70
q-26 -67 -46 -136h-34z" />
    <glyph glyph-name="ccedilla_t.dlig" horiz-adv-x="800" 
d="M781 25q-46 -39 -105 -39q-71 0 -98.5 50t-27.5 139v248h-83v33h83v20q0 85 -23 122.5t-76 37.5q-40 0 -69 -24.5t-29 -69.5q0 -69 64 -108l-21 -35q-43 34 -98 34q-58 0 -95.5 -30.5t-55 -77.5t-17.5 -96q0 -91 41 -146t123 -55q64 0 108 39l19 -30q-24 -22 -61 -36
t-80 -15l-11 -35h7q31 0 50.5 -17.5t19.5 -47.5q0 -34 -24.5 -54.5t-65.5 -20.5q-33 0 -59 13l10 32q19 -11 47 -11q16 0 28.5 8t12.5 25q0 16 -11 23.5t-28 8.5q-20 0 -33 -4l23 81q-95 8 -147 71.5t-52 163.5q0 69 31 125.5t86 89t125 32.5q23 0 50 -5q-25 30 -25 77
q0 64 45 97.5t106 33.5q81 0 120.5 -46.5t39.5 -135.5v-34h139v-33h-139v-235q0 -80 14 -121.5t57 -41.5q16 0 34.5 7.5t32.5 20.5z" />
    <glyph glyph-name="s_t.dlig" horiz-adv-x="769" 
d="M750 25q-46 -39 -106 -39q-71 0 -98 49.5t-27 139.5v248h-83v33h83v23q0 84 -25 120.5t-82 36.5q-44 0 -76 -26.5t-32 -76.5q0 -29 12.5 -56t40.5 -41l-18 -38q-29 19 -56 27t-58 8q-44 0 -71.5 -18.5t-27.5 -49.5q0 -27 17 -45t56 -36l74 -35q52 -24 74 -54.5t22 -70.5
q0 -66 -47.5 -102t-116.5 -36q-39 0 -80.5 11t-77.5 37l22 38q65 -46 136 -46q46 0 73.5 19.5t27.5 56.5q0 33 -20.5 51t-69.5 41l-58 26q-96 44 -96 122q0 59 45.5 93t117.5 34q35 0 59 -5q-17 29 -17 69q0 48 24 79t60.5 45.5t75.5 14.5q85 0 126 -46t41 -141v-29h139v-33
h-139v-235q0 -80 13.5 -121.5t57.5 -41.5q16 0 34 7.5t33 20.5z" />
    <glyph glyph-name="s_tcaron.dlig" horiz-adv-x="769" 
d="M699 32.5q18 7.5 33 20.5l18 -28q-46 -39 -106 -39q-71 0 -98 49.5t-27 139.5v248h-83v33h83v23q0 84 -25 120.5t-82 36.5q-44 0 -76 -26.5t-32 -76.5q0 -29 12.5 -56t40.5 -41l-18 -38q-29 19 -56 27t-58 8q-44 0 -71.5 -18.5t-27.5 -49.5q0 -27 17 -45t56 -36l74 -35
q52 -24 74 -54.5t22 -70.5q0 -66 -47.5 -102t-116.5 -36q-39 0 -80.5 11t-77.5 37l22 38q65 -46 136 -46q46 0 73.5 19.5t27.5 56.5q0 33 -20.5 51t-69.5 41l-58 26q-96 44 -96 122q0 59 45.5 93t117.5 34q35 0 59 -5q-17 29 -17 69q0 48 24 79t60.5 45.5t75.5 14.5
q85 0 126 -46t41 -141v-29h139v-33h-139v-235q0 -80 13.5 -121.5t57.5 -41.5q16 0 34 7.5zM705 519h-31q1 55 10 140h67q-33 -94 -46 -140z" />
    <glyph glyph-name="uni0073021B.dlig" horiz-adv-x="769" 
d="M750 25q-46 -39 -106 -39q-71 0 -98 49.5t-27 139.5v248h-83v33h83v23q0 84 -25 120.5t-82 36.5q-44 0 -76 -26.5t-32 -76.5q0 -29 12.5 -56t40.5 -41l-18 -38q-29 19 -56 27t-58 8q-44 0 -71.5 -18.5t-27.5 -49.5q0 -27 17 -45t56 -36l74 -35q52 -24 74 -54.5t22 -70.5
q0 -66 -47.5 -102t-116.5 -36q-39 0 -80.5 11t-77.5 37l22 38q65 -46 136 -46q46 0 73.5 19.5t27.5 56.5q0 33 -20.5 51t-69.5 41l-58 26q-96 44 -96 122q0 59 45.5 93t117.5 34q35 0 59 -5q-17 29 -17 69q0 48 24 79t60.5 45.5t75.5 14.5q85 0 126 -46t41 -141v-29h139v-33
h-139v-235q0 -80 13.5 -121.5t57.5 -41.5q16 0 34 7.5t33 20.5zM597 -189q1 51 10 136h70q-26 -67 -46 -136h-34z" />
    <glyph glyph-name="scedilla_t.dlig" horiz-adv-x="769" 
d="M750 25q-46 -39 -106 -39q-71 0 -98 49.5t-27 139.5v248h-83v33h83v23q0 84 -25 120.5t-82 36.5q-44 0 -76 -26.5t-32 -76.5q0 -29 12.5 -56t40.5 -41l-18 -38q-29 19 -56 27t-58 8q-44 0 -71.5 -18.5t-27.5 -49.5q0 -27 17 -45t56 -36l74 -35q52 -24 74 -54.5t22 -70.5
q0 -60 -40.5 -95.5t-101.5 -41.5l-12 -36h7q31 0 50.5 -17.5t19.5 -47.5q0 -34 -24.5 -54.5t-65.5 -20.5q-33 0 -59 13l10 32q19 -11 47 -11q16 0 28.5 8t12.5 25q0 16 -11 23.5t-28 8.5q-20 0 -33 -4l23 80q-85 4 -145 48l22 38q65 -46 136 -46q46 0 73.5 19.5t27.5 56.5
q0 33 -20.5 51t-69.5 41l-58 26q-96 44 -96 122q0 59 45.5 93t117.5 34q35 0 59 -5q-17 29 -17 69q0 48 24 79t60.5 45.5t75.5 14.5q85 0 126 -46t41 -141v-29h139v-33h-139v-235q0 -80 13.5 -121.5t57.5 -41.5q16 0 34 7.5t33 20.5z" />
    <glyph glyph-name="scommaaccent_t.dlig" horiz-adv-x="769" 
d="M750 25q-46 -39 -106 -39q-71 0 -98 49.5t-27 139.5v248h-83v33h83v23q0 84 -25 120.5t-82 36.5q-44 0 -76 -26.5t-32 -76.5q0 -29 12.5 -56t40.5 -41l-18 -38q-29 19 -56 27t-58 8q-44 0 -71.5 -18.5t-27.5 -49.5q0 -27 17 -45t56 -36l74 -35q52 -24 74 -54.5t22 -70.5
q0 -66 -47.5 -102t-116.5 -36q-39 0 -80.5 11t-77.5 37l22 38q65 -46 136 -46q46 0 73.5 19.5t27.5 56.5q0 33 -20.5 51t-69.5 41l-58 26q-96 44 -96 122q0 59 45.5 93t117.5 34q35 0 59 -5q-17 29 -17 69q0 48 24 79t60.5 45.5t75.5 14.5q85 0 126 -46t41 -141v-29h139v-33
h-139v-235q0 -80 13.5 -121.5t57.5 -41.5q16 0 34 7.5t33 20.5zM172 -189q1 51 10 136h70q-26 -67 -46 -136h-34z" />
    <glyph glyph-name="zero.osf" horiz-adv-x="521" 
d="M139.5 20.5q-46.5 34.5 -70 93t-23.5 128.5q0 68 27.5 125.5t78.5 91t117 33.5q99 0 152 -69t53 -176q0 -70 -27.5 -130t-78 -95.5t-116.5 -35.5t-112.5 34.5zM360 89q33 66 33 157q0 87 -29.5 148.5t-97.5 61.5q-72 0 -105.5 -63.5t-33.5 -149.5q0 -90 30 -155t98 -65
q72 0 105 66z" />
    <glyph glyph-name="one.osf" horiz-adv-x="334" 
d="M238 479v-479h-76v384q-72 -32 -128 -43l-9 25q92 39 181 113h32z" />
    <glyph glyph-name="two.osf" horiz-adv-x="440" 
d="M316.5 219q-69.5 -70 -195.5 -154h263v-65h-349v41q125 86 198 163.5t73 147.5q0 45 -26.5 72.5t-75.5 27.5q-75 0 -142 -57l-23 33q38 30 84.5 47t94.5 17q84 0 126 -38.5t42 -95.5q0 -69 -69.5 -139z" />
    <glyph glyph-name="three.osf" horiz-adv-x="446" 
d="M356.5 153q48.5 -49 48.5 -127q0 -59 -29 -104t-79 -69.5t-112 -24.5q-104 0 -176 54l26 38q63 -54 148 -54q65 0 102 41.5t37 109.5q0 66 -34 106t-104 40q-41 0 -78 -17v40q45 51 190 206l27 28h-292v59h346v-59q-99 -99 -214 -225q25 7 51 7q94 0 142.5 -49z" />
    <glyph glyph-name="four.osf" horiz-adv-x="517" 
d="M488 0h-70v-158h-75v158h-322v50q97 86 160.5 198t77.5 231h93q-13 -65 -54 -145t-99.5 -154.5t-120.5 -124.5h265v180h75v-180h70v-55z" />
    <glyph glyph-name="five.osf" horiz-adv-x="476" 
d="M343.5 212.5q45.5 -26.5 68.5 -72t23 -100.5q0 -62 -28.5 -110.5t-78 -75t-110.5 -26.5q-107 0 -175 54l26 38q29 -27 66.5 -40.5t80.5 -13.5q64 0 99.5 44t35.5 123q0 76 -39 119.5t-107 43.5q-70 0 -120 -25v308h335v-59h-292v-197q48 16 105 16q65 0 110.5 -26.5z" />
    <glyph glyph-name="six.osf" horiz-adv-x="539" 
d="M439 342.5q51 -51.5 51 -140.5q0 -66 -29 -115t-77.5 -75t-105.5 -26q-118 0 -170.5 80t-52.5 211q0 101 34 180t99 124.5t156 45.5q74 0 121 -28l-25 -38q-40 26 -100 26q-94 0 -149.5 -68.5t-59.5 -197.5q32 32 77 52.5t95 20.5q85 0 136 -51.5zM354.5 46
q30.5 25 45 63.5t14.5 80.5q0 68 -32.5 114.5t-96.5 46.5q-41 0 -81.5 -19.5t-72.5 -56.5q2 -130 39 -192t110 -62q44 0 74.5 25z" />
    <glyph glyph-name="seven.osf" horiz-adv-x="405" 
d="M380 479v-66q-91 -98 -143 -233.5t-52 -294.5v-43h-78v39q0 129 58.5 271t173.5 264h-335v63h376z" />
    <glyph glyph-name="eight.osf" horiz-adv-x="529" 
d="M446 246.5q29 -37.5 29 -91.5q0 -45 -27.5 -84t-76 -62t-110.5 -23t-108.5 20t-72 55.5t-25.5 81.5q0 57 38.5 103.5t106.5 68.5q-54 29 -86 65t-32 89q0 44 24.5 80t68 57t99.5 21q83 0 132.5 -37.5t49.5 -103.5q0 -47 -37 -89t-97 -61l37 -20q58 -32 87 -69.5z
M183.5 422q28.5 -28 82.5 -57l25 -13q44 25 67.5 59t23.5 75q0 47 -29.5 78t-85.5 31q-50 0 -81 -28.5t-31 -74.5q0 -42 28.5 -70zM363 52q36 32 36 80q0 47 -28 76t-88 61l-52 29q-46 -20 -71 -58.5t-25 -86.5q0 -61 39 -97t97 -36q56 0 92 32z" />
    <glyph glyph-name="nine.osf" horiz-adv-x="522" 
d="M430.5 409q50.5 -83 50.5 -218q0 -104 -30.5 -186.5t-91 -129.5t-146.5 -47q-39 0 -76.5 7.5t-63.5 23.5l20 40q27 -15 60.5 -23t64.5 -8q86 0 135.5 76.5t51.5 215.5q-28 -39 -73 -60t-97 -21q-88 0 -140 52.5t-52 143.5q0 66 30 115.5t80 75.5t109 26q118 0 168.5 -83z
M405 209q-2 127 -37 187.5t-109 60.5q-46 0 -78 -25t-48 -64t-16 -81q0 -69 34.5 -117t100.5 -48q95 0 153 87z" />
    <glyph glyph-name="numbersign.osf" horiz-adv-x="610" 
d="M467 374l-49 -187h120l-9 -38h-121l-39 -149h-47l39 149h-170l-39 -149h-47l39 149h-113l10 38h113l49 187h-121l10 38h121l33 127h48l-33 -127h169l33 127h47l-33 -127h112l-9 -38h-113zM420 374h-169l-50 -187h170z" />
    <glyph glyph-name="cent.osf" horiz-adv-x="459" 
d="M374 66.5q-40 -14.5 -85 -15.5v-90h-34v91q-101 7 -154.5 67t-53.5 156q0 57 26.5 104.5t73.5 77t108 35.5v71h34v-70q90 -1 145 -37l-21 -36q-50 35 -124 37v-363h1q40 0 73.5 10t54.5 28l19 -30q-23 -21 -63 -35.5zM157 157.5q33 -49.5 98 -60.5v357q-64 -10 -97.5 -61
t-33.5 -111q0 -75 33 -124.5z" />
    <glyph glyph-name="dollar.osf" horiz-adv-x="455" 
d="M363.5 37.5q-39.5 -40.5 -113.5 -49.5v-71h-34v69h-2q-47 0 -97 15.5t-81 40.5l25 37q34 -27 75 -41t77 -14h3v215l-55 27q-105 51 -105 139q0 61 42 101t118 46v69h34v-68q42 -1 81 -14t65 -33l-21 -39q-24 21 -57 34.5t-68 15.5v-211l44 -23q55 -29 82 -65.5t27 -85.5
q0 -54 -39.5 -94.5zM145.5 374.5q20.5 -22.5 70.5 -50.5v193q-44 -4 -67.5 -27t-23.5 -58t20.5 -57.5zM312 58.5q21 23.5 21 55.5q0 35 -20.5 60t-62.5 48v-195q41 8 62 31.5z" />
    <glyph glyph-name="Euro.osf" horiz-adv-x="546" 
d="M536 42q-72 -56 -169 -56q-108 0 -175 54.5t-83 159.5h-74v32h70q-1 11 -1 34q0 26 3 48h-72v32h78q22 98 94.5 152.5t173.5 54.5q88 0 152 -39l-24 -42q-58 42 -129 42q-73 0 -121 -46t-64 -122h163v-32h-169q-2 -28 -2 -42t2 -40h169v-32h-165q15 -79 60.5 -126
t119.5 -47q42 0 76.5 11.5t65.5 37.5z" />
    <glyph glyph-name="florin.osf" horiz-adv-x="392" 
d="M288.5 500q-18.5 -20 -27.5 -56t-18 -100l-8 -53h108v-32h-112l-20 -138q-15 -112 -53.5 -165t-122.5 -53q-22 0 -46 8t-40 23l22 30q19 -15 34.5 -21.5t36.5 -6.5q33 0 50.5 20t25.5 54t18 103l20 146h-95v32h100l6 45q15 109 54 163t118 54q23 0 46.5 -7.5t41.5 -23.5
l-22 -31q-17 15 -32 22t-34 7q-32 0 -50.5 -20z" />
    <glyph glyph-name="sterling.osf" horiz-adv-x="453" 
d="M208 118.5q-23 -33.5 -66 -54.5h287v-64h-369v54q52 20 76 48.5t24 73.5q0 46 -15 83h-76v32h62q-12 27 -18 49t-6 53q0 43 20.5 79.5t62.5 58.5t101 22q85 0 142 -40l-22 -36q-27 21 -60 31.5t-65 10.5q-54 0 -82.5 -28.5t-28.5 -83.5q0 -26 7 -48t20 -49q2 -7 8 -19
h162v-32h-150q9 -32 9 -63q0 -44 -23 -77.5z" />
    <glyph glyph-name="yen.osf" horiz-adv-x="482" 
d="M289 263h108v-32h-113v-66h113v-32h-113v-133h-72v133h-113v32h113v66h-113v32h104l-177 276h86l153 -246q68 116 129 246h70q-80 -136 -175 -276z" />
    <glyph glyph-name="percent.osf" horiz-adv-x="586" 
d="M67.5 352.5q-30.5 35.5 -30.5 81.5q0 29 14 56t40.5 44.5t62.5 17.5q54 0 84 -36t30 -82q0 -29 -13.5 -56t-39.5 -44t-62 -17q-55 0 -85.5 35.5zM453 539h51l-378 -539h-51zM196 366q14 27 14 68t-14.5 68t-42.5 27t-43 -27.5t-15 -67.5t15.5 -67.5t43.5 -27.5t42 27z
M349 22.5q-30 35.5 -30 82.5t31 82.5t85 35.5q55 0 84.5 -35t29.5 -82q0 -30 -13.5 -57t-39.5 -44.5t-62 -17.5q-55 0 -85 35.5zM477 38.5q14 27.5 14 67.5q0 41 -14 68t-43 27q-28 0 -43 -27.5t-15 -68.5q0 -40 15.5 -67t43.5 -27t42 27.5z" />
    <glyph glyph-name="perthousand.osf" horiz-adv-x="855" 
d="M67.5 352.5q-30.5 35.5 -30.5 81.5q0 29 14 56t40.5 44.5t62.5 17.5q54 0 84 -36t30 -82q0 -29 -13.5 -56t-39.5 -44t-62 -17q-55 0 -85.5 35.5zM453 539h51l-378 -539h-51zM196 366q14 27 14 68t-14.5 68t-42.5 27t-43 -27.5t-15 -67.5t15.5 -67.5t43.5 -27.5t42 27z
M349 22.5q-30 35.5 -30 82.5t31 82.5t85 35.5q55 0 84.5 -35t29.5 -82q0 -30 -13.5 -57t-39.5 -44.5t-62 -17.5q-55 0 -85 35.5zM635.5 23q-30.5 36 -30.5 82q0 29 14 56.5t40 44.5t62 17q55 0 84.5 -35t29.5 -82q0 -30 -13.5 -57t-39.5 -44.5t-62 -17.5q-54 0 -84.5 36z
M477 38.5q14 27.5 14 67.5q0 41 -14 68t-43 27q-28 0 -43 -27.5t-15 -68.5q0 -40 15.5 -67t43.5 -27t42 27.5zM763.5 38.5q14.5 27.5 14.5 67.5t-14.5 67.5t-43.5 27.5q-28 0 -43 -28t-15 -68t15.5 -67t43.5 -27t42.5 27.5z" />
    <glyph glyph-name="uni0308.case" 
d="M-368 696q-12 13 -12 32q0 21 12 34t33 13q20 0 33 -13t13 -33q0 -18 -13.5 -32t-33.5 -14t-32 13zM-198.5 696q-12.5 13 -12.5 32q0 21 13 34t34 13q20 0 32 -13t12 -33q0 -19 -12.5 -32.5t-32.5 -13.5q-21 0 -33.5 13z" />
    <glyph glyph-name="uni0307.case" 
d="M-338.5 695q-13.5 13 -13.5 34t13.5 35t38.5 14t39 -13.5t14 -34.5t-14.5 -34.5t-38.5 -13.5q-25 0 -38.5 13z" />
    <glyph glyph-name="gravecomb.case" 
d="M-336 747l43 48q96 -63 148 -109l-15 -19q-54 27 -176 80z" />
    <glyph glyph-name="acutecomb.case" 
d="M-363 682q47 44 134 108l54 -41q-69 -31 -176 -84z" />
    <glyph glyph-name="uni030B.case" 
d="M-430 678q26 30 96 91l25 22l52 -31q-116 -69 -159 -96zM-289 679q43 39 128 97l54 -34l-29 -13q-111 -49 -141 -64z" />
    <glyph glyph-name="uni0302.case" 
d="M-149 674l-29 18q-52 32 -77 49l-53 -33q-46 -30 -52 -34l-17 19l24 21q70 63 88 81h23q18 -18 88 -81l24 -21z" />
    <glyph glyph-name="uni030C.case" 
d="M-128 771q-77 -69 -112 -102h-23q-18 18 -88 81l-24 21l19 19q72 -44 106 -67l62 40l44 27z" />
    <glyph glyph-name="uni0306.case" 
d="M-361.5 695.5q-34.5 22.5 -51.5 62.5l23 12q42 -47 104 -47q31 0 54.5 12t46.5 37l21 -13q-17 -41 -50.5 -63.5t-73.5 -22.5q-39 0 -73.5 22.5z" />
    <glyph glyph-name="uni030A.case" 
d="M-358.5 686q-23.5 18 -23.5 52t26 55t62 21q42 0 66 -19t24 -54q0 -33 -26.5 -53t-62.5 -20q-42 0 -65.5 18zM-262.5 705.5q11.5 15.5 11.5 36.5t-9.5 36t-32.5 15q-20 0 -31 -15.5t-11 -36.5q0 -51 42 -51q19 0 30.5 15.5z" />
    <glyph glyph-name="tildecomb.case" 
d="M-417 699q36 84 83 84q13 0 21.5 -3.5t15.5 -7.5t10 -6l35 -22q20 -13 32 -13t22 10.5t24 35.5l25 -14q-15 -39 -36 -61.5t-45 -22.5q-15 0 -25 4.5t-23 13.5l-35 25q-17 12 -31 12q-12 0 -22.5 -12.5t-24.5 -38.5z" />
    <glyph glyph-name="uni0304.case" 
d="M-365 746h230v-43h-230v43z" />
    <glyph glyph-name="acutecomb.loclPLK" 
d="M-302 524q15 32 29 70t22 65l74 -20q-45 -68 -100 -127z" />
    <glyph glyph-name="acutecomb.case.loclPLK" 
d="M-306 677q26 64 38 116l74 -17q-43 -62 -86 -108z" />
    <glyph glyph-name="acute.case" horiz-adv-x="543" 
d="M180 682q47 44 134 108l54 -41q-69 -31 -176 -84z" />
    <glyph glyph-name="breve.case" horiz-adv-x="543" 
d="M188.5 695.5q-34.5 22.5 -51.5 62.5l23 12q42 -47 104 -47q31 0 54.5 12t46.5 37l21 -13q-17 -41 -50.5 -63.5t-73.5 -22.5q-39 0 -73.5 22.5z" />
    <glyph glyph-name="caron.case" horiz-adv-x="543" 
d="M372 771q-77 -69 -112 -102h-23q-18 18 -88 81l-24 21l19 19q72 -44 106 -67l62 40l44 27z" />
    <glyph glyph-name="circumflex.case" horiz-adv-x="543" 
d="M351 674l-29 18q-52 32 -77 49l-53 -33q-46 -30 -52 -34l-17 19l24 21q70 63 88 81h23q18 -18 88 -81l24 -21z" />
    <glyph glyph-name="dieresis.case" horiz-adv-x="543" 
d="M132 696q-12 13 -12 32q0 21 12 34t33 13q20 0 33 -13t13 -33q0 -18 -13.5 -32t-33.5 -14t-32 13zM301.5 696q-12.5 13 -12.5 32q0 21 13 34t34 13q20 0 32 -13t12 -33q0 -19 -12.5 -32.5t-32.5 -13.5q-21 0 -33.5 13z" />
    <glyph glyph-name="dotaccent.case" horiz-adv-x="543" 
d="M211.5 695q-13.5 13 -13.5 34t13.5 35t38.5 14t39 -13.5t14 -34.5t-14.5 -34.5t-38.5 -13.5q-25 0 -38.5 13z" />
    <glyph glyph-name="grave.case" horiz-adv-x="543" 
d="M157 747l43 48q96 -63 148 -109l-15 -19q-54 27 -176 80z" />
    <glyph glyph-name="hungarumlaut.case" horiz-adv-x="543" 
d="M113 678q26 30 96 91l25 22l52 -31q-116 -69 -159 -96zM254 679q43 39 128 97l54 -34l-29 -13q-111 -49 -141 -64z" />
    <glyph glyph-name="macron.case" horiz-adv-x="543" 
d="M135 746h230v-43h-230v43z" />
    <glyph glyph-name="ring.case" horiz-adv-x="543" 
d="M184.5 686q-23.5 18 -23.5 52t26 55t62 21q42 0 66 -19t24 -54q0 -33 -26.5 -53t-62.5 -20q-42 0 -65.5 18zM280.5 705.5q11.5 15.5 11.5 36.5t-9.5 36t-32.5 15q-20 0 -31 -15.5t-11 -36.5q0 -51 42 -51q19 0 30.5 15.5z" />
    <glyph glyph-name="tilde.case" horiz-adv-x="543" 
d="M116 699q36 84 83 84q13 0 21.5 -3.5t15.5 -7.5t10 -6l35 -22q20 -13 32 -13t22 10.5t24 35.5l25 -14q-15 -39 -36 -61.5t-45 -22.5q-15 0 -25 4.5t-23 13.5l-35 25q-17 12 -31 12q-12 0 -22.5 -12.5t-24.5 -38.5z" />
    </font>
</defs>
</svg>
